<svg xmlns="http://www.w3.org/2000/svg" xmlns:xlink="http://www.w3.org/1999/xlink" contentStyleType="text/css" height="804px" preserveAspectRatio="none" style="width:1140px;height:804px;background:#FFFFFF;" version="1.1" viewBox="0 0 1140 804" width="1140px" zoomAndPan="magnify"><title>Domain model &#8212; Workflow engine (kosha-workflow)</title><defs/><g><text fill="#000000" font-family="sans-serif" font-size="14" font-weight="bold" lengthAdjust="spacing" textLength="349.6787" x="388.5278" y="24.5332">Domain model &#8212; Workflow engine (kosha-workflow)</text><!--class WorkflowDefinition--><g id="elem_WorkflowDefinition"><rect codeLine="11" fill="#F1F1F1" height="121.1406" id="WorkflowDefinition" rx="2.5" ry="2.5" style="stroke:#181818;stroke-width:0.5;" width="294.584" x="54" y="315.1094"/><ellipse cx="134.0088" cy="336.4609" fill="#ADD1B2" rx="11" ry="11" style="stroke:#181818;stroke-width:1.0;"/><path d="M136.7744,332.3359 Q136.9307,332.1172 137.1182,332.0078 Q137.3057,331.8984 137.5244,331.8984 Q137.8994,331.8984 138.1338,332.1641 Q138.3682,332.4141 138.3682,333.0234 L138.3682,334.4766 Q138.3682,335.0859 138.1338,335.3516 Q137.8994,335.6172 137.5244,335.6172 Q137.1807,335.6172 136.9775,335.4141 Q136.7744,335.2266 136.665,334.7109 Q136.6182,334.3516 136.4307,334.1641 Q136.1025,333.7891 135.4932,333.5703 Q134.8838,333.3516 134.2588,333.3516 Q133.4932,333.3516 132.8525,333.6797 Q132.2275,334.0078 131.7275,334.7578 Q131.2432,335.5078 131.2432,336.5391 L131.2432,337.6328 Q131.2432,338.8672 132.1338,339.6953 Q133.0244,340.5078 134.6182,340.5078 Q135.5557,340.5078 136.2119,340.2578 Q136.6025,340.1016 137.0244,339.6641 Q137.29,339.3984 137.4307,339.3203 Q137.5869,339.2422 137.79,339.2422 Q138.1182,339.2422 138.3682,339.5078 Q138.6338,339.7578 138.6338,340.1016 Q138.6338,340.4453 138.29,340.8516 Q137.79,341.4297 136.9932,341.7578 Q135.915,342.2109 134.6182,342.2109 Q133.1025,342.2109 131.8994,341.5859 Q130.915,341.0859 130.2275,340.0234 Q129.54,338.9453 129.54,337.6641 L129.54,336.5078 Q129.54,335.1797 130.1494,334.0391 Q130.7744,332.8828 131.8682,332.2734 Q132.9619,331.6484 134.1963,331.6484 Q134.9307,331.6484 135.5713,331.8203 Q136.2275,331.9766 136.7744,332.3359 Z " fill="#000000"/><text fill="#000000" font-family="sans-serif" font-size="12" font-style="italic" lengthAdjust="spacing" textLength="130.0664" x="152.5088" y="332.5664">&#171;wf.workflow_definition&#187;</text><text fill="#000000" font-family="sans-serif" font-size="14" lengthAdjust="spacing" textLength="115.9238" x="159.5801" y="349.7363">WorkflowDefinition</text><line style="stroke:#181818;stroke-width:0.5;" x1="55" x2="347.584" y1="357.8125" y2="357.8125"/><text fill="#000000" font-family="sans-serif" font-size="14" lengthAdjust="spacing" textLength="64.9619" x="60" y="376.3457">+id : UUID</text><text fill="#000000" font-family="sans-serif" font-size="14" lengthAdjust="spacing" textLength="91.4375" x="60" y="393.9551">+name : String</text><text fill="#000000" font-family="sans-serif" font-size="14" lengthAdjust="spacing" textLength="141.9961" x="60" y="411.5645">+workflowType : String</text><text fill="#000000" font-family="sans-serif" font-size="14" font-style="italic" lengthAdjust="spacing" textLength="132.8086" x="209.7754" y="411.5645">LINEAR | PARALLEL</text><text fill="#000000" font-family="sans-serif" font-size="14" lengthAdjust="spacing" textLength="125.6924" x="60" y="429.1738">+isDefault : Boolean</text></g><!--class WorkflowStepDefinition--><g id="elem_WorkflowStepDefinition"><rect codeLine="18" fill="#F1F1F1" height="181.9688" id="WorkflowStepDefinition" rx="2.5" ry="2.5" style="stroke:#181818;stroke-width:0.5;" width="360.4346" x="173.5" y="513.6094"/><ellipse cx="271.7563" cy="534.9609" fill="#ADD1B2" rx="11" ry="11" style="stroke:#181818;stroke-width:1.0;"/><path d="M274.522,530.8359 Q274.6782,530.6172 274.8657,530.5078 Q275.0532,530.3984 275.272,530.3984 Q275.647,530.3984 275.8813,530.6641 Q276.1157,530.9141 276.1157,531.5234 L276.1157,532.9766 Q276.1157,533.5859 275.8813,533.8516 Q275.647,534.1172 275.272,534.1172 Q274.9282,534.1172 274.7251,533.9141 Q274.522,533.7266 274.4126,533.2109 Q274.3657,532.8516 274.1782,532.6641 Q273.8501,532.2891 273.2407,532.0703 Q272.6313,531.8516 272.0063,531.8516 Q271.2407,531.8516 270.6001,532.1797 Q269.9751,532.5078 269.4751,533.2578 Q268.9907,534.0078 268.9907,535.0391 L268.9907,536.1328 Q268.9907,537.3672 269.8813,538.1953 Q270.772,539.0078 272.3657,539.0078 Q273.3032,539.0078 273.9595,538.7578 Q274.3501,538.6016 274.772,538.1641 Q275.0376,537.8984 275.1782,537.8203 Q275.3345,537.7422 275.5376,537.7422 Q275.8657,537.7422 276.1157,538.0078 Q276.3813,538.2578 276.3813,538.6016 Q276.3813,538.9453 276.0376,539.3516 Q275.5376,539.9297 274.7407,540.2578 Q273.6626,540.7109 272.3657,540.7109 Q270.8501,540.7109 269.647,540.0859 Q268.6626,539.5859 267.9751,538.5234 Q267.2876,537.4453 267.2876,536.1641 L267.2876,535.0078 Q267.2876,533.6797 267.897,532.5391 Q268.522,531.3828 269.6157,530.7734 Q270.7095,530.1484 271.9438,530.1484 Q272.6782,530.1484 273.3188,530.3203 Q273.9751,530.4766 274.522,530.8359 Z " fill="#000000"/><text fill="#000000" font-family="sans-serif" font-size="12" font-style="italic" lengthAdjust="spacing" textLength="159.4219" x="290.2563" y="531.0664">&#171;wf.workflow_step_definition&#187;</text><text fill="#000000" font-family="sans-serif" font-size="14" lengthAdjust="spacing" textLength="144.7236" x="297.6055" y="548.2363">WorkflowStepDefinition</text><line style="stroke:#181818;stroke-width:0.5;" x1="174.5" x2="532.9346" y1="556.3125" y2="556.3125"/><text fill="#000000" font-family="sans-serif" font-size="14" lengthAdjust="spacing" textLength="64.9619" x="179.5" y="574.8457">+id : UUID</text><text fill="#000000" font-family="sans-serif" font-size="14" lengthAdjust="spacing" textLength="97.6582" x="179.5" y="592.4551">+stepOrder : Int</text><text fill="#000000" font-family="sans-serif" font-size="14" lengthAdjust="spacing" textLength="91.4375" x="179.5" y="610.0645">+name : String</text><text fill="#000000" font-family="sans-serif" font-size="14" lengthAdjust="spacing" textLength="124.8994" x="179.5" y="627.6738">+actionType : String</text><text fill="#000000" font-family="sans-serif" font-size="14" font-style="italic" lengthAdjust="spacing" textLength="215.7559" x="312.1787" y="627.6738">REVIEW | APPROVE | SIGN_OFF</text><text fill="#000000" font-family="sans-serif" font-size="14" lengthAdjust="spacing" textLength="123.3135" x="179.5" y="645.2832">+timeLimitDays : Int</text><text fill="#000000" font-family="sans-serif" font-size="14" lengthAdjust="spacing" textLength="184.8164" x="179.5" y="662.8926">+deletedAt : OffsetDateTime?</text><line style="stroke:#181818;stroke-width:0.5;" x1="174.5" x2="532.9346" y1="669.9688" y2="669.9688"/><text fill="#000000" font-family="sans-serif" font-size="14" lengthAdjust="spacing" textLength="149.8164" x="179.5" y="688.502">+conditionJson : String?</text><text fill="#000000" font-family="sans-serif" font-size="14" font-style="italic" lengthAdjust="spacing" textLength="144.7168" x="337.0957" y="688.502">JSON Logic (auto-skip)</text></g><!--class WorkflowInstance--><g id="elem_WorkflowInstance"><rect codeLine="28" fill="#F1F1F1" height="191.5781" id="WorkflowInstance" rx="2.5" ry="2.5" style="stroke:#181818;stroke-width:0.5;" width="493.9814" x="403.5" y="45.6094"/><ellipse cx="584.8774" cy="66.9609" fill="#ADD1B2" rx="11" ry="11" style="stroke:#181818;stroke-width:1.0;"/><path d="M587.6431,62.8359 Q587.7993,62.6172 587.9868,62.5078 Q588.1743,62.3984 588.3931,62.3984 Q588.7681,62.3984 589.0024,62.6641 Q589.2368,62.9141 589.2368,63.5234 L589.2368,64.9766 Q589.2368,65.5859 589.0024,65.8516 Q588.7681,66.1172 588.3931,66.1172 Q588.0493,66.1172 587.8462,65.9141 Q587.6431,65.7266 587.5337,65.2109 Q587.4868,64.8516 587.2993,64.6641 Q586.9712,64.2891 586.3618,64.0703 Q585.7524,63.8516 585.1274,63.8516 Q584.3618,63.8516 583.7212,64.1797 Q583.0962,64.5078 582.5962,65.2578 Q582.1118,66.0078 582.1118,67.0391 L582.1118,68.1328 Q582.1118,69.3672 583.0024,70.1953 Q583.8931,71.0078 585.4868,71.0078 Q586.4243,71.0078 587.0806,70.7578 Q587.4712,70.6016 587.8931,70.1641 Q588.1587,69.8984 588.2993,69.8203 Q588.4556,69.7422 588.6587,69.7422 Q588.9868,69.7422 589.2368,70.0078 Q589.5024,70.2578 589.5024,70.6016 Q589.5024,70.9453 589.1587,71.3516 Q588.6587,71.9297 587.8618,72.2578 Q586.7837,72.7109 585.4868,72.7109 Q583.9712,72.7109 582.7681,72.0859 Q581.7837,71.5859 581.0962,70.5234 Q580.4087,69.4453 580.4087,68.1641 L580.4087,67.0078 Q580.4087,65.6797 581.0181,64.5391 Q581.6431,63.3828 582.7368,62.7734 Q583.8306,62.1484 585.0649,62.1484 Q585.7993,62.1484 586.4399,62.3203 Q587.0962,62.4766 587.6431,62.8359 Z " fill="#000000"/><text fill="#000000" font-family="sans-serif" font-size="12" font-style="italic" lengthAdjust="spacing" textLength="126.7266" x="603.3774" y="63.0664">&#171;wf.workflow_instance&#187;</text><text fill="#000000" font-family="sans-serif" font-size="14" lengthAdjust="spacing" textLength="110.4824" x="611.4995" y="80.2363">WorkflowInstance</text><line style="stroke:#181818;stroke-width:0.5;" x1="404.5" x2="896.4814" y1="88.3125" y2="88.3125"/><text fill="#000000" font-family="sans-serif" font-size="14" lengthAdjust="spacing" textLength="64.9619" x="409.5" y="106.8457">+id : UUID</text><text fill="#000000" font-family="sans-serif" font-size="14" lengthAdjust="spacing" textLength="127.2236" x="409.5" y="124.4551">+documentId : UUID</text><text fill="#000000" font-family="sans-serif" font-size="14" lengthAdjust="spacing" textLength="110.8721" x="409.5" y="142.0645">+versionId : UUID</text><text fill="#000000" font-family="sans-serif" font-size="14" lengthAdjust="spacing" textLength="93.7686" x="409.5" y="159.6738">+status : String</text><text fill="#000000" font-family="sans-serif" font-size="14" font-style="italic" lengthAdjust="spacing" textLength="380.4336" x="511.0479" y="159.6738">IN_PROGRESS | COMPLETED | REJECTED | CANCELLED</text><text fill="#000000" font-family="sans-serif" font-size="14" lengthAdjust="spacing" textLength="173.8994" x="409.5" y="177.2832">+startedAt : OffsetDateTime</text><text fill="#000000" font-family="sans-serif" font-size="14" lengthAdjust="spacing" textLength="203.4785" x="409.5" y="194.8926">+completedAt : OffsetDateTime?</text><text fill="#000000" font-family="sans-serif" font-size="14" lengthAdjust="spacing" textLength="184.8027" x="409.5" y="212.502">+rejectionComments : String?</text><text fill="#000000" font-family="sans-serif" font-size="14" lengthAdjust="spacing" textLength="165.3613" x="409.5" y="230.1113">+rejectedAtStepId : UUID?</text></g><!--class WorkflowStepInstance--><g id="elem_WorkflowStepInstance"><rect codeLine="39" fill="#F1F1F1" height="156.3594" id="WorkflowStepInstance" rx="2.5" ry="2.5" style="stroke:#181818;stroke-width:0.5;" width="532.6182" x="384" y="297.6094"/><ellipse cx="570.0181" cy="318.9609" fill="#ADD1B2" rx="11" ry="11" style="stroke:#181818;stroke-width:1.0;"/><path d="M572.7837,314.8359 Q572.9399,314.6172 573.1274,314.5078 Q573.3149,314.3984 573.5337,314.3984 Q573.9087,314.3984 574.1431,314.6641 Q574.3774,314.9141 574.3774,315.5234 L574.3774,316.9766 Q574.3774,317.5859 574.1431,317.8516 Q573.9087,318.1172 573.5337,318.1172 Q573.1899,318.1172 572.9868,317.9141 Q572.7837,317.7266 572.6743,317.2109 Q572.6274,316.8516 572.4399,316.6641 Q572.1118,316.2891 571.5024,316.0703 Q570.8931,315.8516 570.2681,315.8516 Q569.5024,315.8516 568.8618,316.1797 Q568.2368,316.5078 567.7368,317.2578 Q567.2524,318.0078 567.2524,319.0391 L567.2524,320.1328 Q567.2524,321.3672 568.1431,322.1953 Q569.0337,323.0078 570.6274,323.0078 Q571.5649,323.0078 572.2212,322.7578 Q572.6118,322.6016 573.0337,322.1641 Q573.2993,321.8984 573.4399,321.8203 Q573.5962,321.7422 573.7993,321.7422 Q574.1274,321.7422 574.3774,322.0078 Q574.6431,322.2578 574.6431,322.6016 Q574.6431,322.9453 574.2993,323.3516 Q573.7993,323.9297 573.0024,324.2578 Q571.9243,324.7109 570.6274,324.7109 Q569.1118,324.7109 567.9087,324.0859 Q566.9243,323.5859 566.2368,322.5234 Q565.5493,321.4453 565.5493,320.1641 L565.5493,319.0078 Q565.5493,317.6797 566.1587,316.5391 Q566.7837,315.3828 567.8774,314.7734 Q568.9712,314.1484 570.2056,314.1484 Q570.9399,314.1484 571.5806,314.3203 Q572.2368,314.4766 572.7837,314.8359 Z " fill="#000000"/><text fill="#000000" font-family="sans-serif" font-size="12" font-style="italic" lengthAdjust="spacing" textLength="156.082" x="588.5181" y="315.0664">&#171;wf.workflow_step_instance&#187;</text><text fill="#000000" font-family="sans-serif" font-size="14" lengthAdjust="spacing" textLength="139.2822" x="596.918" y="332.2363">WorkflowStepInstance</text><line style="stroke:#181818;stroke-width:0.5;" x1="385" x2="915.6182" y1="340.3125" y2="340.3125"/><text fill="#000000" font-family="sans-serif" font-size="14" lengthAdjust="spacing" textLength="64.9619" x="390" y="358.8457">+id : UUID</text><text fill="#000000" font-family="sans-serif" font-size="14" lengthAdjust="spacing" textLength="93.7686" x="390" y="376.4551">+status : String</text><text fill="#000000" font-family="sans-serif" font-size="14" font-style="italic" lengthAdjust="spacing" textLength="419.0703" x="491.5479" y="376.4551">WAITING | IN_PROGRESS | APPROVED | REJECTED | SKIPPED</text><text fill="#000000" font-family="sans-serif" font-size="14" lengthAdjust="spacing" textLength="128.7754" x="390" y="394.0645">+comments : String?</text><text fill="#000000" font-family="sans-serif" font-size="14" lengthAdjust="spacing" textLength="187.9268" x="390" y="411.6738">+decidedAt : OffsetDateTime?</text><text fill="#000000" font-family="sans-serif" font-size="14" lengthAdjust="spacing" textLength="162.2441" x="390" y="429.2832">+dueAt : OffsetDateTime?</text><text fill="#000000" font-family="sans-serif" font-size="14" lengthAdjust="spacing" textLength="198.8164" x="390" y="446.8926">+escalatedAt : OffsetDateTime?</text></g><!--class UserProfile--><g id="elem_UserProfile"><rect codeLine="48" fill="#F1F1F1" height="42.7031" id="UserProfile" rx="2.5" ry="2.5" style="stroke:#181818;stroke-width:0.5;" width="133.4043" x="403" y="755.6094"/><ellipse cx="418" cy="776.9609" fill="#ADD1B2" rx="11" ry="11" style="stroke:#181818;stroke-width:1.0;"/><path d="M420.7656,772.8359 Q420.9219,772.6172 421.1094,772.5078 Q421.2969,772.3984 421.5156,772.3984 Q421.8906,772.3984 422.125,772.6641 Q422.3594,772.9141 422.3594,773.5234 L422.3594,774.9766 Q422.3594,775.5859 422.125,775.8516 Q421.8906,776.1172 421.5156,776.1172 Q421.1719,776.1172 420.9688,775.9141 Q420.7656,775.7266 420.6563,775.2109 Q420.6094,774.8516 420.4219,774.6641 Q420.0938,774.2891 419.4844,774.0703 Q418.875,773.8516 418.25,773.8516 Q417.4844,773.8516 416.8438,774.1797 Q416.2188,774.5078 415.7188,775.2578 Q415.2344,776.0078 415.2344,777.0391 L415.2344,778.1328 Q415.2344,779.3672 416.125,780.1953 Q417.0156,781.0078 418.6094,781.0078 Q419.5469,781.0078 420.2031,780.7578 Q420.5938,780.6016 421.0156,780.1641 Q421.2813,779.8984 421.4219,779.8203 Q421.5781,779.7422 421.7813,779.7422 Q422.1094,779.7422 422.3594,780.0078 Q422.625,780.2578 422.625,780.6016 Q422.625,780.9453 422.2813,781.3516 Q421.7813,781.9297 420.9844,782.2578 Q419.9063,782.7109 418.6094,782.7109 Q417.0938,782.7109 415.8906,782.0859 Q414.9063,781.5859 414.2188,780.5234 Q413.5313,779.4453 413.5313,778.1641 L413.5313,777.0078 Q413.5313,775.6797 414.1406,774.5391 Q414.7656,773.3828 415.8594,772.7734 Q416.9531,772.1484 418.1875,772.1484 Q418.9219,772.1484 419.5625,772.3203 Q420.2188,772.4766 420.7656,772.8359 Z " fill="#000000"/><text fill="#000000" font-family="sans-serif" font-size="12" font-style="italic" lengthAdjust="spacing" textLength="105.4043" x="430" y="773.0664">&#171;ident.user_profile&#187;</text><text fill="#000000" font-family="sans-serif" font-size="14" lengthAdjust="spacing" textLength="69.2412" x="448.0815" y="790.2363">UserProfile</text></g><!--class Department--><g id="elem_Department"><rect codeLine="61" fill="#F1F1F1" height="42.7031" id="Department" rx="2.5" ry="2.5" style="stroke:#181818;stroke-width:0.5;" width="131.4063" x="7" y="583.1094"/><ellipse cx="22" cy="604.4609" fill="#ADD1B2" rx="11" ry="11" style="stroke:#181818;stroke-width:1.0;"/><path d="M24.7656,600.3359 Q24.9219,600.1172 25.1094,600.0078 Q25.2969,599.8984 25.5156,599.8984 Q25.8906,599.8984 26.125,600.1641 Q26.3594,600.4141 26.3594,601.0234 L26.3594,602.4766 Q26.3594,603.0859 26.125,603.3516 Q25.8906,603.6172 25.5156,603.6172 Q25.1719,603.6172 24.9688,603.4141 Q24.7656,603.2266 24.6563,602.7109 Q24.6094,602.3516 24.4219,602.1641 Q24.0938,601.7891 23.4844,601.5703 Q22.875,601.3516 22.25,601.3516 Q21.4844,601.3516 20.8438,601.6797 Q20.2188,602.0078 19.7188,602.7578 Q19.2344,603.5078 19.2344,604.5391 L19.2344,605.6328 Q19.2344,606.8672 20.125,607.6953 Q21.0156,608.5078 22.6094,608.5078 Q23.5469,608.5078 24.2031,608.2578 Q24.5938,608.1016 25.0156,607.6641 Q25.2813,607.3984 25.4219,607.3203 Q25.5781,607.2422 25.7813,607.2422 Q26.1094,607.2422 26.3594,607.5078 Q26.625,607.7578 26.625,608.1016 Q26.625,608.4453 26.2813,608.8516 Q25.7813,609.4297 24.9844,609.7578 Q23.9063,610.2109 22.6094,610.2109 Q21.0938,610.2109 19.8906,609.5859 Q18.9063,609.0859 18.2188,608.0234 Q17.5313,606.9453 17.5313,605.6641 L17.5313,604.5078 Q17.5313,603.1797 18.1406,602.0391 Q18.7656,600.8828 19.8594,600.2734 Q20.9531,599.6484 22.1875,599.6484 Q22.9219,599.6484 23.5625,599.8203 Q24.2188,599.9766 24.7656,600.3359 Z " fill="#000000"/><text fill="#000000" font-family="sans-serif" font-size="12" font-style="italic" lengthAdjust="spacing" textLength="103.4063" x="34" y="600.5664">&#171;ident.department&#187;</text><text fill="#000000" font-family="sans-serif" font-size="14" lengthAdjust="spacing" textLength="73.1445" x="49.1309" y="617.7363">Department</text></g><g id="elem_GMN17"><path d="M639.5,542.6094 L639.5,667.0703 A0,0 0 0 0 639.5,667.0703 L981.2725,667.0703 A0,0 0 0 0 981.2725,667.0703 L981.2725,552.6094 L971.2725,542.6094 L782.25,542.6094 L778.25,453.7794 L774.25,542.6094 L639.5,542.6094 A0,0 0 0 0 639.5,542.6094 " fill="#FEFFDD" style="stroke:#181818;stroke-width:0.5;"/><path d="M971.2725,542.6094 L971.2725,552.6094 L981.2725,552.6094 L971.2725,542.6094 " fill="#FEFFDD" style="stroke:#181818;stroke-width:0.5;"/><text fill="#000000" font-family="sans-serif" font-size="13" lengthAdjust="spacing" textLength="239.8779" x="645.5" y="561.1045">Engine: WorkflowActionService.approve()</text><text fill="#000000" font-family="sans-serif" font-size="13" lengthAdjust="spacing" textLength="299.8379" x="649.1118" y="577.4561">- LINEAR: promote next non-skipped WAITING step</text><text fill="#000000" font-family="sans-serif" font-size="13" lengthAdjust="spacing" textLength="281.7979" x="649.1118" y="593.8076">- PARALLEL: complete when all siblings terminal</text><text fill="#000000" font-family="sans-serif" font-size="13" lengthAdjust="spacing" textLength="317.1606" x="649.1118" y="610.1592">- SIGN_OFF approval emits WorkflowSignOffApproved</text><text fill="#000000" font-family="sans-serif" font-size="13" lengthAdjust="spacing" textLength="272.3589" x="649.1118" y="626.5107">- Final terminal state emits WorkflowCompleted</text><text fill="#000000" font-family="sans-serif" font-size="13" lengthAdjust="spacing" textLength="208.7808" x="649.1118" y="642.8623">- Any reject emits WorkflowRejected</text><text fill="#000000" font-family="sans-serif" font-size="13" lengthAdjust="spacing" textLength="229.7725" x="645.5" y="659.2139">See diagram 11-seq-approval-workflow.</text></g><!--reverse link WorkflowDefinition to WorkflowStepDefinition--><g id="link_WorkflowDefinition_WorkflowStepDefinition"><path codeLine="51" d="M261.25,448.3794 C261.25,471.9594 261.25,487.4794 261.25,513.3494 " fill="none" id="WorkflowDefinition-backto-WorkflowStepDefinition" style="stroke:#181818;stroke-width:1.0;"/><polygon fill="#181818" points="261.25,436.3794,257.25,442.3794,261.25,448.3794,265.25,442.3794,261.25,436.3794" style="stroke:#181818;stroke-width:1.0;"/><text fill="#000000" font-family="sans-serif" font-size="13" lengthAdjust="spacing" textLength="31.0718" x="316.0845" y="489.3545">steps</text><text fill="#000000" font-family="sans-serif" font-size="13" lengthAdjust="spacing" textLength="138.7407" x="262.25" y="505.7061">(ordered, soft-deletable)</text><text fill="#000000" font-family="sans-serif" font-size="13" lengthAdjust="spacing" textLength="7.23" x="260.7913" y="457.8382">1</text><text fill="#000000" font-family="sans-serif" font-size="13" lengthAdjust="spacing" textLength="31.7891" x="221.3416" y="502.6404">many</text></g><!--link WorkflowDefinition to Department--><g id="link_WorkflowDefinition_Department"><path codeLine="52" d="M96,436.3794 C96,484.7394 96,543.6494 96,576.9294 " fill="none" id="WorkflowDefinition-to-Department" style="stroke:#181818;stroke-width:1.0;"/><polygon fill="#181818" points="96,582.9294,100,573.9294,96,577.9294,92,573.9294,96,582.9294" style="stroke:#181818;stroke-width:1.0;"/><text fill="#000000" font-family="sans-serif" font-size="13" lengthAdjust="spacing" textLength="65.7617" x="30" y="506.1445">department</text><text fill="#000000" font-family="sans-serif" font-size="13" lengthAdjust="spacing" textLength="21.6836" x="61.6511" y="457.8382">0..1</text><text fill="#000000" font-family="sans-serif" font-size="13" lengthAdjust="spacing" textLength="21.6836" x="78.6953" y="572.1682">0..1</text></g><!--link WorkflowInstance to WorkflowDefinition--><g id="link_WorkflowInstance_WorkflowDefinition"><path codeLine="53" d="M403.34,141.6094 C299.13,141.6094 201.5,141.6094 201.5,141.6094 C201.5,141.6094 201.5,239.7094 201.5,309.0394 " fill="none" id="WorkflowInstance-to-WorkflowDefinition" style="stroke:#181818;stroke-width:1.0;"/><polygon fill="#181818" points="201.5,315.0394,205.5,306.0394,201.5,310.0394,197.5,306.0394,201.5,315.0394" style="stroke:#181818;stroke-width:1.0;"/><text fill="#000000" font-family="sans-serif" font-size="13" lengthAdjust="spacing" textLength="31.7891" x="363.7347" y="138.8547">many</text><text fill="#000000" font-family="sans-serif" font-size="13" lengthAdjust="spacing" textLength="7.23" x="194.1128" y="304.1904">1</text></g><!--reverse link WorkflowInstance to WorkflowStepInstance--><g id="link_WorkflowInstance_WorkflowStepInstance"><path codeLine="54" d="M650.5,249.7994 C650.5,269.5894 650.5,278.1994 650.5,297.2694 " fill="none" id="WorkflowInstance-backto-WorkflowStepInstance" style="stroke:#181818;stroke-width:1.0;"/><polygon fill="#181818" points="650.5,237.7994,646.5,243.7994,650.5,249.7994,654.5,243.7994,650.5,237.7994" style="stroke:#181818;stroke-width:1.0;"/><text fill="#000000" font-family="sans-serif" font-size="13" lengthAdjust="spacing" textLength="7.23" x="643.2626" y="258.6475">1</text><text fill="#000000" font-family="sans-serif" font-size="13" lengthAdjust="spacing" textLength="31.7891" x="618.1251" y="286.8047">many</text></g><!--link WorkflowStepInstance to WorkflowStepDefinition--><g id="link_WorkflowStepInstance_WorkflowStepDefinition"><path codeLine="55" d="M458.75,453.7794 C458.75,472.9494 458.75,487.6494 458.75,507.3794 " fill="none" id="WorkflowStepInstance-to-WorkflowStepDefinition" style="stroke:#181818;stroke-width:1.0;"/><polygon fill="#181818" points="458.75,513.3794,462.75,504.3794,458.75,508.3794,454.75,504.3794,458.75,513.3794" style="stroke:#181818;stroke-width:1.0;"/><text fill="#000000" font-family="sans-serif" font-size="13" lengthAdjust="spacing" textLength="78.7681" x="459.75" y="480.0745">stepDefinition</text><text fill="#000000" font-family="sans-serif" font-size="13" lengthAdjust="spacing" textLength="31.7891" x="408.0523" y="475.4872">many</text><text fill="#000000" font-family="sans-serif" font-size="13" lengthAdjust="spacing" textLength="7.23" x="460.1677" y="502.6729">1</text></g><!--link WorkflowStepInstance to UserProfile--><g id="link_WorkflowStepInstance_UserProfile"><path codeLine="56" d="M587.75,453.6494 C587.75,568.7594 587.75,770.6094 587.75,770.6094 C587.75,770.6094 569.05,770.6094 542.23,770.6094 " fill="none" id="WorkflowStepInstance-to-UserProfile" style="stroke:#181818;stroke-width:1.0;"/><polygon fill="#181818" points="536.23,770.6094,545.23,774.6094,541.23,770.6094,545.23,766.6094,536.23,770.6094" style="stroke:#181818;stroke-width:1.0;"/><text fill="#000000" font-family="sans-serif" font-size="13" lengthAdjust="spacing" textLength="67.209" x="571.5" y="652.3845">assignedTo</text><text fill="#000000" font-family="sans-serif" font-size="13" lengthAdjust="spacing" textLength="21.6836" x="559.8191" y="475.3448">0..1</text><text fill="#000000" font-family="sans-serif" font-size="13" lengthAdjust="spacing" textLength="7.23" x="544.3403" y="766.4654">1</text></g><!--link WorkflowStepDefinition to UserProfile--><g id="link_WorkflowStepDefinition_UserProfile"><path codeLine="57" d="M490,695.6594 C490,718.0094 490,733.9294 490,749.3994 " fill="none" id="WorkflowStepDefinition-to-UserProfile" style="stroke:#181818;stroke-width:1.0;"/><polygon fill="#181818" points="490,755.3994,494,746.3994,490,750.3994,486,746.3994,490,755.3994" style="stroke:#181818;stroke-width:1.0;"/><text fill="#000000" font-family="sans-serif" font-size="13" lengthAdjust="spacing" textLength="52.0381" x="491" y="722.0245">assignee</text><text fill="#000000" font-family="sans-serif" font-size="13" lengthAdjust="spacing" textLength="21.6836" x="479.0505" y="717.0628">0..1</text><text fill="#000000" font-family="sans-serif" font-size="13" lengthAdjust="spacing" textLength="7.23" x="487.7567" y="744.6297">1</text></g><!--link WorkflowStepDefinition to UserProfile--><g id="link_WorkflowStepDefinition_UserProfile"><path codeLine="58" d="M446.5,695.6594 C446.5,718.0094 446.5,733.9294 446.5,749.3994 " fill="none" id="WorkflowStepDefinition-to-UserProfile-1" style="stroke:#181818;stroke-width:1.0;"/><polygon fill="#181818" points="446.5,755.3994,450.5,746.3994,446.5,750.3994,442.5,746.3994,446.5,755.3994" style="stroke:#181818;stroke-width:1.0;"/><text fill="#000000" font-family="sans-serif" font-size="13" lengthAdjust="spacing" textLength="58.5381" x="387.5" y="740.0245">escalation</text><text fill="#000000" font-family="sans-serif" font-size="13" lengthAdjust="spacing" textLength="21.6836" x="432.0841" y="717.0628">0..1</text><text fill="#000000" font-family="sans-serif" font-size="13" lengthAdjust="spacing" textLength="7.23" x="432.0224" y="744.6297">1</text></g><!--link WorkflowInstance to UserProfile--><g id="link_WorkflowInstance_UserProfile"><path codeLine="59" d="M897.62,141.6094 C954.92,141.6094 999.5,141.6094 999.5,141.6094 C999.5,141.6094 999.5,784.6094 999.5,784.6094 C999.5,784.6094 684.44,784.6094 542.09,784.6094 " fill="none" id="WorkflowInstance-to-UserProfile" style="stroke:#181818;stroke-width:1.0;"/><polygon fill="#181818" points="536.09,784.6094,545.09,788.6094,541.09,784.6094,545.09,780.6094,536.09,784.6094" style="stroke:#181818;stroke-width:1.0;"/><text fill="#000000" font-family="sans-serif" font-size="13" lengthAdjust="spacing" textLength="132.2344" x="1000.5" y="640.3645">initiatedBy / rejectedBy</text></g><!--SRC=[dLPTSk8u47xtARhoCZ2pXiahbIBbW9DomW25oUHbgrB2Qa2BBNajGORzgPf3x4ds2dkJFScsREm0iIkxcuSWIzsVllwwrT87yF_wCsOQ7hw4yFVtF-19PPjbh5u0vKf81AuI9gJp0KArpIBimKRfDNDV3cPTdKLTQz7TA1FJ3yTTDpVfLYOeZJ3xxiVEnbWSWobmN0efZ51I0yiGj5eQbsEC1Zcq3WFFj6a1X7INiLYj3OsqOJ92JJ0R91W6DB684MuVmB1iXGPmXn9UrlJFh14OJuG4vCBe_Blar74SlH4oPHbB8ABujMTC9XPRWq6aP2X-GVXyP4AHeTcd22epQ-Mi1KV093LxI31POAOT2f5u37Er854KGgsShLFvsewJxrxP3IjXuEhgPTaf3PzV5UltuLS7u1C83ZruV0o6-PTa2T9tI678LJvJ-iujyN85u4hqHy7OzsRm6qozcJSQ-QEhhkWNc9eOi6rioE56gHYPT7u_9sbJs4XKq-BxRAtL9EEOqMGWJKC4BB8GR_dF_A-1_qJylUbqDldgqoWCxiRFazlRAX8Z4Xo9H9WXs-kZNIYzF6Tshubx2NkTuzw7ap6Cr4f4q69RerogWBHTGLPrIMwJvL8ZOHkSqqRNRqKA3iLw9azPmmswS1Lj4pemmSdiZYgC60Td4ZAprQV21EDd4kHkveSXQJAOV9cE_Ba_fF7Cl_S7nN3WZGS-PNrO1KPGMNrW1ycIj3boQv7XJvZdQg0II_-Lrl6w1R2rKyLnNLzR3TBbbVMEVdMYF7d1F1ZVKUIdyXoAvqoTy26OJe-qYUeZuXXH4sXMX6-nSGrrn6BsRYKzQioccLgAs2f1kqdJsTBSSrfCzliEDKBNTKbUWhFDT2rIRMV-uvzJqtukBY_W8s5V94pkBvhEVYy_oVf7sLBsD2F_uQYNszRShiN-tEaGlElso-4GgT4QApH1ykh3UNEQ3dHorykBchvPuz8SIMdZr9PVmrwr4jGGECKw2fb-ZtFR0ygsM4daS-KqRF9ltF5_EH-AiLOvwt5gdKFQqhtPGxSwrZVxicQFybYMx6isRS5APH0MoXYLW5hM9mF0ps_BNhNivSqbn6md8komb4x03bjjiWGNYjki1pIPM7I9tmn89VFkdTA3ecm0Da-5ItdlzQhULhmPM1o35WkwxbVqOC2CNWyiBbpA2mQAtLbC3m3xhAWYe1JGKVOARhnmkhN-5L3UdV3CRr0sryB3a_k3h6TsiuFMP1OYlSi4MzcNoUMbg_5djoJblhvmK7AmQZl_0000]--></g></svg>