<svg xmlns="http://www.w3.org/2000/svg" xmlns:xlink="http://www.w3.org/1999/xlink" contentStyleType="text/css" height="888px" preserveAspectRatio="none" style="width:1225px;height:888px;background:#FFFFFF;" version="1.1" viewBox="0 0 1225 888" width="1225px" zoomAndPan="magnify"><title>Domain model &#8212; Knowledge core (kosha-document)</title><defs/><g><text fill="#000000" font-family="sans-serif" font-size="14" font-weight="bold" lengthAdjust="spacing" textLength="352.0303" x="429.6333" y="24.5332">Domain model &#8212; Knowledge core (kosha-document)</text><!--class Document--><g id="elem_Document"><rect codeLine="11" fill="#F1F1F1" height="262.0156" id="Document" rx="2.5" ry="2.5" style="stroke:#181818;stroke-width:0.5;" width="346.4482" x="511" y="45.6094"/><ellipse cx="637.6099" cy="66.9609" fill="#ADD1B2" rx="11" ry="11" style="stroke:#181818;stroke-width:1.0;"/><path d="M640.3755,62.8359 Q640.5317,62.6172 640.7192,62.5078 Q640.9067,62.3984 641.1255,62.3984 Q641.5005,62.3984 641.7349,62.6641 Q641.9692,62.9141 641.9692,63.5234 L641.9692,64.9766 Q641.9692,65.5859 641.7349,65.8516 Q641.5005,66.1172 641.1255,66.1172 Q640.7817,66.1172 640.5786,65.9141 Q640.3755,65.7266 640.2661,65.2109 Q640.2192,64.8516 640.0317,64.6641 Q639.7036,64.2891 639.0942,64.0703 Q638.4849,63.8516 637.8599,63.8516 Q637.0942,63.8516 636.4536,64.1797 Q635.8286,64.5078 635.3286,65.2578 Q634.8442,66.0078 634.8442,67.0391 L634.8442,68.1328 Q634.8442,69.3672 635.7349,70.1953 Q636.6255,71.0078 638.2192,71.0078 Q639.1567,71.0078 639.813,70.7578 Q640.2036,70.6016 640.6255,70.1641 Q640.8911,69.8984 641.0317,69.8203 Q641.188,69.7422 641.3911,69.7422 Q641.7192,69.7422 641.9692,70.0078 Q642.2349,70.2578 642.2349,70.6016 Q642.2349,70.9453 641.8911,71.3516 Q641.3911,71.9297 640.5942,72.2578 Q639.5161,72.7109 638.2192,72.7109 Q636.7036,72.7109 635.5005,72.0859 Q634.5161,71.5859 633.8286,70.5234 Q633.1411,69.4453 633.1411,68.1641 L633.1411,67.0078 Q633.1411,65.6797 633.7505,64.5391 Q634.3755,63.3828 635.4692,62.7734 Q636.563,62.1484 637.7974,62.1484 Q638.5317,62.1484 639.1724,62.3203 Q639.8286,62.4766 640.3755,62.8359 Z " fill="#000000"/><text fill="#000000" font-family="sans-serif" font-size="12" font-style="italic" lengthAdjust="spacing" textLength="88.7285" x="656.1099" y="63.0664">&#171;doc.document&#187;</text><text fill="#000000" font-family="sans-serif" font-size="14" lengthAdjust="spacing" textLength="63.8066" x="668.5708" y="80.2363">Document</text><line style="stroke:#181818;stroke-width:0.5;" x1="512" x2="856.4482" y1="88.3125" y2="88.3125"/><text fill="#000000" font-family="sans-serif" font-size="14" lengthAdjust="spacing" textLength="64.9619" x="517" y="106.8457">+id : UUID</text><text fill="#000000" font-family="sans-serif" font-size="14" lengthAdjust="spacing" textLength="136.5684" x="517" y="124.4551">+docNumber : String?</text><text fill="#000000" font-family="sans-serif" font-size="14" lengthAdjust="spacing" textLength="78.2031" x="517" y="142.0645">+title : String</text><text fill="#000000" font-family="sans-serif" font-size="14" lengthAdjust="spacing" textLength="131.9063" x="517" y="159.6738">+description : String?</text><text fill="#000000" font-family="sans-serif" font-size="14" lengthAdjust="spacing" textLength="93.7686" x="517" y="177.2832">+status : String</text><text fill="#000000" font-family="sans-serif" font-size="14" font-style="italic" lengthAdjust="spacing" textLength="225.8662" x="618.5479" y="177.2832">DRAFT | IN_REVIEW | PUBLISHED</text><text fill="#000000" font-family="sans-serif" font-size="14" lengthAdjust="spacing" textLength="138.1338" x="517" y="194.8926">+storageMode : String</text><text fill="#000000" font-family="sans-serif" font-size="14" font-style="italic" lengthAdjust="spacing" textLength="146.7607" x="662.9131" y="194.8926">VAULT | CONNECTOR</text><text fill="#000000" font-family="sans-serif" font-size="14" lengthAdjust="spacing" textLength="141.9961" x="517" y="212.502">+workflowType : String</text><text fill="#000000" font-family="sans-serif" font-size="14" font-style="italic" lengthAdjust="spacing" textLength="184.6729" x="666.7754" y="212.502">NONE | LINEAR | PARALLEL</text><text fill="#000000" font-family="sans-serif" font-size="14" lengthAdjust="spacing" textLength="145.9336" x="517" y="230.1113">+checkedOut : Boolean</text><text fill="#000000" font-family="sans-serif" font-size="14" lengthAdjust="spacing" textLength="179.3545" x="517" y="247.7207">+lockedAt : OffsetDateTime?</text><text fill="#000000" font-family="sans-serif" font-size="14" lengthAdjust="spacing" textLength="139.665" x="517" y="265.3301">+reviewCycle : String?</text><text fill="#000000" font-family="sans-serif" font-size="14" lengthAdjust="spacing" textLength="211.251" x="517" y="282.9395">+nextReviewAt : OffsetDateTime?</text><text fill="#000000" font-family="sans-serif" font-size="14" lengthAdjust="spacing" textLength="201.9609" x="517" y="300.5488">+requiresLegalReview : Boolean</text></g><!--class DocumentVersion--><g id="elem_DocumentVersion"><rect codeLine="26" fill="#F1F1F1" height="314.8438" id="DocumentVersion" rx="2.5" ry="2.5" style="stroke:#181818;stroke-width:0.5;" width="318.2227" x="116" y="367.6094"/><ellipse cx="205.8184" cy="388.9609" fill="#ADD1B2" rx="11" ry="11" style="stroke:#181818;stroke-width:1.0;"/><path d="M208.584,384.8359 Q208.7402,384.6172 208.9277,384.5078 Q209.1152,384.3984 209.334,384.3984 Q209.709,384.3984 209.9434,384.6641 Q210.1777,384.9141 210.1777,385.5234 L210.1777,386.9766 Q210.1777,387.5859 209.9434,387.8516 Q209.709,388.1172 209.334,388.1172 Q208.9902,388.1172 208.7871,387.9141 Q208.584,387.7266 208.4746,387.2109 Q208.4277,386.8516 208.2402,386.6641 Q207.9121,386.2891 207.3027,386.0703 Q206.6934,385.8516 206.0684,385.8516 Q205.3027,385.8516 204.6621,386.1797 Q204.0371,386.5078 203.5371,387.2578 Q203.0527,388.0078 203.0527,389.0391 L203.0527,390.1328 Q203.0527,391.3672 203.9434,392.1953 Q204.834,393.0078 206.4277,393.0078 Q207.3652,393.0078 208.0215,392.7578 Q208.4121,392.6016 208.834,392.1641 Q209.0996,391.8984 209.2402,391.8203 Q209.3965,391.7422 209.5996,391.7422 Q209.9277,391.7422 210.1777,392.0078 Q210.4434,392.2578 210.4434,392.6016 Q210.4434,392.9453 210.0996,393.3516 Q209.5996,393.9297 208.8027,394.2578 Q207.7246,394.7109 206.4277,394.7109 Q204.9121,394.7109 203.709,394.0859 Q202.7246,393.5859 202.0371,392.5234 Q201.3496,391.4453 201.3496,390.1641 L201.3496,389.0078 Q201.3496,387.6797 201.959,386.5391 Q202.584,385.3828 203.6777,384.7734 Q204.7715,384.1484 206.0059,384.1484 Q206.7402,384.1484 207.3809,384.3203 Q208.0371,384.4766 208.584,384.8359 Z " fill="#000000"/><text fill="#000000" font-family="sans-serif" font-size="12" font-style="italic" lengthAdjust="spacing" textLength="134.0859" x="224.3184" y="385.0664">&#171;doc.document_version&#187;</text><text fill="#000000" font-family="sans-serif" font-size="14" lengthAdjust="spacing" textLength="111.2754" x="235.7236" y="402.2363">DocumentVersion</text><line style="stroke:#181818;stroke-width:0.5;" x1="117" x2="433.2227" y1="410.3125" y2="410.3125"/><text fill="#000000" font-family="sans-serif" font-size="14" lengthAdjust="spacing" textLength="64.9619" x="122" y="428.8457">+id : UUID</text><text fill="#000000" font-family="sans-serif" font-size="14" lengthAdjust="spacing" textLength="151.3408" x="122" y="446.4551">+versionNumber : String</text><text fill="#000000" font-family="sans-serif" font-size="14" lengthAdjust="spacing" textLength="111.6582" x="122" y="464.0645">+fileName : String</text><text fill="#000000" font-family="sans-serif" font-size="14" lengthAdjust="spacing" textLength="138.9199" x="122" y="481.6738">+fileSizeBytes : Long?</text><text fill="#000000" font-family="sans-serif" font-size="14" lengthAdjust="spacing" textLength="142.8096" x="122" y="499.2832">+contentHash : String?</text><text fill="#000000" font-family="sans-serif" font-size="14" font-style="italic" lengthAdjust="spacing" textLength="56.8066" x="272.5889" y="499.2832">SHA-256</text><text fill="#000000" font-family="sans-serif" font-size="14" lengthAdjust="spacing" textLength="135.0234" x="122" y="516.8926">+storageKey : String?</text><text fill="#000000" font-family="sans-serif" font-size="14" font-style="italic" lengthAdjust="spacing" textLength="37.3379" x="264.8027" y="516.8926">MinIO</text><text fill="#000000" font-family="sans-serif" font-size="14" lengthAdjust="spacing" textLength="141.251" x="122" y="534.502">+contentType : String?</text><text fill="#000000" font-family="sans-serif" font-size="14" lengthAdjust="spacing" textLength="137.375" x="122" y="552.1113">+ocrApplied : Boolean</text><text fill="#000000" font-family="sans-serif" font-size="14" lengthAdjust="spacing" textLength="156.8096" x="122" y="569.7207">+ocrStorageKey : String?</text><text fill="#000000" font-family="sans-serif" font-size="14" lengthAdjust="spacing" textLength="145.9404" x="122" y="587.3301">+ocrLanguage : String?</text><text fill="#000000" font-family="sans-serif" font-size="14" lengthAdjust="spacing" textLength="182.499" x="122" y="604.9395">+extractedMetadata : JsonB?</text><text fill="#000000" font-family="sans-serif" font-size="14" font-style="italic" lengthAdjust="spacing" textLength="115.9443" x="312.2783" y="604.9395">spaCy NER output</text><text fill="#000000" font-family="sans-serif" font-size="14" lengthAdjust="spacing" textLength="170.0303" x="122" y="622.5488">+changeSummary : String?</text><text fill="#000000" font-family="sans-serif" font-size="14" lengthAdjust="spacing" textLength="93.7686" x="122" y="640.1582">+status : String</text><text fill="#000000" font-family="sans-serif" font-size="14" lengthAdjust="spacing" textLength="183.251" x="122" y="657.7676">+publishAt : OffsetDateTime?</text><text fill="#000000" font-family="sans-serif" font-size="14" lengthAdjust="spacing" textLength="198.8232" x="122" y="675.377">+unpublishAt : OffsetDateTime?</text></g><!--class VersionMetadata--><g id="elem_VersionMetadata"><rect codeLine="44" fill="#F1F1F1" height="138.75" id="VersionMetadata" rx="2.5" ry="2.5" style="stroke:#181818;stroke-width:0.5;" width="257.4922" x="146.5" y="742.6094"/><ellipse cx="207.2861" cy="763.9609" fill="#ADD1B2" rx="11" ry="11" style="stroke:#181818;stroke-width:1.0;"/><path d="M210.0518,759.8359 Q210.208,759.6172 210.3955,759.5078 Q210.583,759.3984 210.8018,759.3984 Q211.1768,759.3984 211.4111,759.6641 Q211.6455,759.9141 211.6455,760.5234 L211.6455,761.9766 Q211.6455,762.5859 211.4111,762.8516 Q211.1768,763.1172 210.8018,763.1172 Q210.458,763.1172 210.2549,762.9141 Q210.0518,762.7266 209.9424,762.2109 Q209.8955,761.8516 209.708,761.6641 Q209.3799,761.2891 208.7705,761.0703 Q208.1611,760.8516 207.5361,760.8516 Q206.7705,760.8516 206.1299,761.1797 Q205.5049,761.5078 205.0049,762.2578 Q204.5205,763.0078 204.5205,764.0391 L204.5205,765.1328 Q204.5205,766.3672 205.4111,767.1953 Q206.3018,768.0078 207.8955,768.0078 Q208.833,768.0078 209.4893,767.7578 Q209.8799,767.6016 210.3018,767.1641 Q210.5674,766.8984 210.708,766.8203 Q210.8643,766.7422 211.0674,766.7422 Q211.3955,766.7422 211.6455,767.0078 Q211.9111,767.2578 211.9111,767.6016 Q211.9111,767.9453 211.5674,768.3516 Q211.0674,768.9297 210.2705,769.2578 Q209.1924,769.7109 207.8955,769.7109 Q206.3799,769.7109 205.1768,769.0859 Q204.1924,768.5859 203.5049,767.5234 Q202.8174,766.4453 202.8174,765.1641 L202.8174,764.0078 Q202.8174,762.6797 203.4268,761.5391 Q204.0518,760.3828 205.1455,759.7734 Q206.2393,759.1484 207.4736,759.1484 Q208.208,759.1484 208.8486,759.3203 Q209.5049,759.4766 210.0518,759.8359 Z " fill="#000000"/><text fill="#000000" font-family="sans-serif" font-size="12" font-style="italic" lengthAdjust="spacing" textLength="131.4199" x="225.7861" y="760.0664">&#171;doc.version_metadata&#187;</text><text fill="#000000" font-family="sans-serif" font-size="14" lengthAdjust="spacing" textLength="105.8408" x="238.5757" y="777.2363">VersionMetadata</text><line style="stroke:#181818;stroke-width:0.5;" x1="147.5" x2="402.9922" y1="785.3125" y2="785.3125"/><text fill="#000000" font-family="sans-serif" font-size="14" lengthAdjust="spacing" textLength="64.9619" x="152.5" y="803.8457">+id : UUID</text><text fill="#000000" font-family="sans-serif" font-size="14" lengthAdjust="spacing" textLength="121.7617" x="152.5" y="821.4551">+summary : String?</text><text fill="#000000" font-family="sans-serif" font-size="14" font-style="italic" lengthAdjust="spacing" textLength="94.9512" x="282.041" y="821.4551">LLM-generated</text><text fill="#000000" font-family="sans-serif" font-size="14" lengthAdjust="spacing" textLength="149.0166" x="152.5" y="839.0645">+extractedText : String?</text><text fill="#000000" font-family="sans-serif" font-size="14" font-style="italic" lengthAdjust="spacing" textLength="88.6963" x="309.2959" y="839.0645">Tika-extracted</text><text fill="#000000" font-family="sans-serif" font-size="14" lengthAdjust="spacing" textLength="180.1543" x="152.5" y="856.6738">+aiConfidence : BigDecimal?</text><text fill="#000000" font-family="sans-serif" font-size="14" lengthAdjust="spacing" textLength="175.5059" x="152.5" y="874.2832">+humanReviewed : Boolean</text></g><!--class DocumentCategory--><g id="elem_DocumentCategory"><rect codeLine="52" fill="#F1F1F1" height="103.5313" id="DocumentCategory" rx="2.5" ry="2.5" style="stroke:#181818;stroke-width:0.5;" width="199.9404" x="487" y="473.1094"/><ellipse cx="515.7307" cy="494.4609" fill="#ADD1B2" rx="11" ry="11" style="stroke:#181818;stroke-width:1.0;"/><path d="M518.4963,490.3359 Q518.6526,490.1172 518.8401,490.0078 Q519.0276,489.8984 519.2463,489.8984 Q519.6213,489.8984 519.8557,490.1641 Q520.0901,490.4141 520.0901,491.0234 L520.0901,492.4766 Q520.0901,493.0859 519.8557,493.3516 Q519.6213,493.6172 519.2463,493.6172 Q518.9026,493.6172 518.6995,493.4141 Q518.4963,493.2266 518.387,492.7109 Q518.3401,492.3516 518.1526,492.1641 Q517.8245,491.7891 517.2151,491.5703 Q516.6057,491.3516 515.9807,491.3516 Q515.2151,491.3516 514.5745,491.6797 Q513.9495,492.0078 513.4495,492.7578 Q512.9651,493.5078 512.9651,494.5391 L512.9651,495.6328 Q512.9651,496.8672 513.8557,497.6953 Q514.7463,498.5078 516.3401,498.5078 Q517.2776,498.5078 517.9338,498.2578 Q518.3245,498.1016 518.7463,497.6641 Q519.012,497.3984 519.1526,497.3203 Q519.3088,497.2422 519.512,497.2422 Q519.8401,497.2422 520.0901,497.5078 Q520.3557,497.7578 520.3557,498.1016 Q520.3557,498.4453 520.012,498.8516 Q519.512,499.4297 518.7151,499.7578 Q517.637,500.2109 516.3401,500.2109 Q514.8245,500.2109 513.6213,499.5859 Q512.637,499.0859 511.9495,498.0234 Q511.262,496.9453 511.262,495.6641 L511.262,494.5078 Q511.262,493.1797 511.8713,492.0391 Q512.4963,490.8828 513.5901,490.2734 Q514.6838,489.6484 515.9182,489.6484 Q516.6526,489.6484 517.2932,489.8203 Q517.9495,489.9766 518.4963,490.3359 Z " fill="#000000"/><text fill="#000000" font-family="sans-serif" font-size="12" font-style="italic" lengthAdjust="spacing" textLength="141.4277" x="530.782" y="490.5664">&#171;doc.document_category&#187;</text><text fill="#000000" font-family="sans-serif" font-size="14" lengthAdjust="spacing" textLength="120.6133" x="541.1892" y="507.7363">DocumentCategory</text><line style="stroke:#181818;stroke-width:0.5;" x1="488" x2="685.9404" y1="515.8125" y2="515.8125"/><text fill="#000000" font-family="sans-serif" font-size="14" lengthAdjust="spacing" textLength="64.9619" x="493" y="534.3457">+id : UUID</text><text fill="#000000" font-family="sans-serif" font-size="14" lengthAdjust="spacing" textLength="91.4375" x="493" y="551.9551">+name : String</text><text fill="#000000" font-family="sans-serif" font-size="14" lengthAdjust="spacing" textLength="187.9404" x="493" y="569.5645">+parent : DocumentCategory?</text></g><!--class ShareLink--><g id="elem_ShareLink"><rect codeLine="58" fill="#F1F1F1" height="42.7031" id="ShareLink" rx="2.5" ry="2.5" style="stroke:#181818;stroke-width:0.5;" width="118.7266" x="722.5" y="503.6094"/><ellipse cx="737.5" cy="524.9609" fill="#ADD1B2" rx="11" ry="11" style="stroke:#181818;stroke-width:1.0;"/><path d="M740.2656,520.8359 Q740.4219,520.6172 740.6094,520.5078 Q740.7969,520.3984 741.0156,520.3984 Q741.3906,520.3984 741.625,520.6641 Q741.8594,520.9141 741.8594,521.5234 L741.8594,522.9766 Q741.8594,523.5859 741.625,523.8516 Q741.3906,524.1172 741.0156,524.1172 Q740.6719,524.1172 740.4688,523.9141 Q740.2656,523.7266 740.1563,523.2109 Q740.1094,522.8516 739.9219,522.6641 Q739.5938,522.2891 738.9844,522.0703 Q738.375,521.8516 737.75,521.8516 Q736.9844,521.8516 736.3438,522.1797 Q735.7188,522.5078 735.2188,523.2578 Q734.7344,524.0078 734.7344,525.0391 L734.7344,526.1328 Q734.7344,527.3672 735.625,528.1953 Q736.5156,529.0078 738.1094,529.0078 Q739.0469,529.0078 739.7031,528.7578 Q740.0938,528.6016 740.5156,528.1641 Q740.7813,527.8984 740.9219,527.8203 Q741.0781,527.7422 741.2813,527.7422 Q741.6094,527.7422 741.8594,528.0078 Q742.125,528.2578 742.125,528.6016 Q742.125,528.9453 741.7813,529.3516 Q741.2813,529.9297 740.4844,530.2578 Q739.4063,530.7109 738.1094,530.7109 Q736.5938,530.7109 735.3906,530.0859 Q734.4063,529.5859 733.7188,528.5234 Q733.0313,527.4453 733.0313,526.1641 L733.0313,525.0078 Q733.0313,523.6797 733.6406,522.5391 Q734.2656,521.3828 735.3594,520.7734 Q736.4531,520.1484 737.6875,520.1484 Q738.4219,520.1484 739.0625,520.3203 Q739.7188,520.4766 740.2656,520.8359 Z " fill="#000000"/><text fill="#000000" font-family="sans-serif" font-size="12" font-style="italic" lengthAdjust="spacing" textLength="90.7266" x="749.5" y="521.0664">&#171;doc.share_link&#187;</text><text fill="#000000" font-family="sans-serif" font-size="14" lengthAdjust="spacing" textLength="63.041" x="763.3428" y="538.2363">ShareLink</text></g><!--class DocumentSignature--><g id="elem_DocumentSignature"><rect codeLine="59" fill="#F1F1F1" height="42.7031" id="DocumentSignature" rx="2.5" ry="2.5" style="stroke:#181818;stroke-width:0.5;" width="172.7676" x="876.5" y="503.6094"/><ellipse cx="891.5" cy="524.9609" fill="#ADD1B2" rx="11" ry="11" style="stroke:#181818;stroke-width:1.0;"/><path d="M894.2656,520.8359 Q894.4219,520.6172 894.6094,520.5078 Q894.7969,520.3984 895.0156,520.3984 Q895.3906,520.3984 895.625,520.6641 Q895.8594,520.9141 895.8594,521.5234 L895.8594,522.9766 Q895.8594,523.5859 895.625,523.8516 Q895.3906,524.1172 895.0156,524.1172 Q894.6719,524.1172 894.4688,523.9141 Q894.2656,523.7266 894.1563,523.2109 Q894.1094,522.8516 893.9219,522.6641 Q893.5938,522.2891 892.9844,522.0703 Q892.375,521.8516 891.75,521.8516 Q890.9844,521.8516 890.3438,522.1797 Q889.7188,522.5078 889.2188,523.2578 Q888.7344,524.0078 888.7344,525.0391 L888.7344,526.1328 Q888.7344,527.3672 889.625,528.1953 Q890.5156,529.0078 892.1094,529.0078 Q893.0469,529.0078 893.7031,528.7578 Q894.0938,528.6016 894.5156,528.1641 Q894.7813,527.8984 894.9219,527.8203 Q895.0781,527.7422 895.2813,527.7422 Q895.6094,527.7422 895.8594,528.0078 Q896.125,528.2578 896.125,528.6016 Q896.125,528.9453 895.7813,529.3516 Q895.2813,529.9297 894.4844,530.2578 Q893.4063,530.7109 892.1094,530.7109 Q890.5938,530.7109 889.3906,530.0859 Q888.4063,529.5859 887.7188,528.5234 Q887.0313,527.4453 887.0313,526.1641 L887.0313,525.0078 Q887.0313,523.6797 887.6406,522.5391 Q888.2656,521.3828 889.3594,520.7734 Q890.4531,520.1484 891.6875,520.1484 Q892.4219,520.1484 893.0625,520.3203 Q893.7188,520.4766 894.2656,520.8359 Z " fill="#000000"/><text fill="#000000" font-family="sans-serif" font-size="12" font-style="italic" lengthAdjust="spacing" textLength="144.7676" x="903.5" y="521.0664">&#171;doc.document_signature&#187;</text><text fill="#000000" font-family="sans-serif" font-size="14" lengthAdjust="spacing" textLength="123.7373" x="914.0151" y="538.2363">DocumentSignature</text></g><g id="elem_GMN14"><path d="M892,130.6094 L892,172.6094 L857.01,176.6094 L892,180.6094 L892,222.3672 A0,0 0 0 0 892,222.3672 L1218.2969,222.3672 A0,0 0 0 0 1218.2969,222.3672 L1218.2969,140.6094 L1208.2969,130.6094 L892,130.6094 A0,0 0 0 0 892,130.6094 " fill="#FEFFDD" style="stroke:#181818;stroke-width:0.5;"/><path d="M1208.2969,130.6094 L1208.2969,140.6094 L1218.2969,140.6094 L1208.2969,130.6094 " fill="#FEFFDD" style="stroke:#181818;stroke-width:0.5;"/><text fill="#000000" font-family="sans-serif" font-size="13" lengthAdjust="spacing" textLength="127.1626" x="898" y="149.1045">Cross-aggregate FKs:</text><text fill="#000000" font-family="sans-serif" font-size="13" lengthAdjust="spacing" textLength="207.0542" x="898" y="165.4561">- department_id &#8594; ident.department</text><text fill="#000000" font-family="sans-serif" font-size="13" lengthAdjust="spacing" textLength="213.8716" x="898" y="181.8076">- primary_owner_id, proxy_owner_id,</text><text fill="#000000" font-family="sans-serif" font-size="13" lengthAdjust="spacing" textLength="285.0986" x="905.2236" y="198.1592">legal_reviewer_id, locked_by &#8594; ident.user_profile</text><text fill="#000000" font-family="sans-serif" font-size="13" lengthAdjust="spacing" textLength="305.2969" x="898" y="214.5107">- many-to-many doc.document_owner &#8594; user_profile</text></g><!--reverse link Document to DocumentVersion--><g id="link_Document_DocumentVersion"><path codeLine="62" d="M569.67,319.8894 C569.67,377.6494 569.67,420.6094 569.67,420.6094 C569.67,420.6094 503.84,420.6094 434.41,420.6094 " fill="none" id="Document-backto-DocumentVersion" style="stroke:#181818;stroke-width:1.0;"/><polygon fill="#181818" points="569.67,307.8894,565.67,313.8894,569.67,319.8894,573.67,313.8894,569.67,307.8894" style="stroke:#181818;stroke-width:1.0;"/><text fill="#000000" font-family="sans-serif" font-size="13" lengthAdjust="spacing" textLength="48.4072" x="509.39" y="417.1045">versions</text><text fill="#000000" font-family="sans-serif" font-size="13" lengthAdjust="spacing" textLength="7.23" x="556.2202" y="329.0106">1</text><text fill="#000000" font-family="sans-serif" font-size="13" lengthAdjust="spacing" textLength="31.7891" x="442.3484" y="413.0183">many</text></g><!--link Document to DocumentCategory--><g id="link_Document_DocumentCategory"><path codeLine="63" d="M628.33,307.8694 C628.33,365.1694 628.33,423.0894 628.33,466.6694 " fill="none" id="Document-to-DocumentCategory" style="stroke:#181818;stroke-width:1.0;"/><polygon fill="#181818" points="628.33,472.6694,632.33,463.6694,628.33,467.6694,624.33,463.6694,628.33,472.6694" style="stroke:#181818;stroke-width:1.0;"/><text fill="#000000" font-family="sans-serif" font-size="13" lengthAdjust="spacing" textLength="49.8608" x="578.33" y="386.7645">category</text><text fill="#000000" font-family="sans-serif" font-size="13" lengthAdjust="spacing" textLength="21.6836" x="603.7178" y="328.9895">0..1</text><text fill="#000000" font-family="sans-serif" font-size="13" lengthAdjust="spacing" textLength="7.23" x="626.4329" y="462.098">1</text></g><!--link DocumentVersion to VersionMetadata--><g id="link_DocumentVersion_VersionMetadata"><path codeLine="64" d="M275,682.8794 C275,703.7194 275,724.1594 275,742.4094 " fill="none" id="DocumentVersion-VersionMetadata" style="stroke:#181818;stroke-width:1.0;"/><text fill="#000000" font-family="sans-serif" font-size="13" lengthAdjust="spacing" textLength="54.2026" x="276" y="709.1345">metadata</text><text fill="#000000" font-family="sans-serif" font-size="13" lengthAdjust="spacing" textLength="7.23" x="267.8416" y="703.8975">1</text><text fill="#000000" font-family="sans-serif" font-size="13" lengthAdjust="spacing" textLength="21.6836" x="252.9271" y="731.9227">0..1</text></g><!--link DocumentVersion to DocumentVersion--><g id="link_DocumentVersion_DocumentVersion"><path codeLine="65" d="M275,367.3194 C275,349.5094 275,337.6094 275,337.6094 C275,337.6094 98,337.6094 98,337.6094 C98,337.6094 98,712.6094 98,712.6094 C98,712.6094 131.25,712.6094 131.25,712.6094 C131.25,712.6094 131.25,706.7094 131.25,688.8994 " fill="none" id="DocumentVersion-to-DocumentVersion" style="stroke:#181818;stroke-width:1.0;"/><polygon fill="#181818" points="131.25,682.8994,127.25,691.8994,131.25,687.8994,135.25,691.8994,131.25,682.8994" style="stroke:#181818;stroke-width:1.0;"/><text fill="#000000" font-family="sans-serif" font-size="13" lengthAdjust="spacing" textLength="80.939" x="12" y="444.7245">parentVersion</text><text fill="#000000" font-family="sans-serif" font-size="13" lengthAdjust="spacing" textLength="21.6836" x="253.5026" y="356.7963">0..1</text><text fill="#000000" font-family="sans-serif" font-size="13" lengthAdjust="spacing" textLength="7.23" x="117.5779" y="703.9184">1</text></g><!--reverse link Document to ShareLink--><g id="link_Document_ShareLink"><path codeLine="66" d="M782,319.8694 C782,392.9894 782,464.8994 782,503.5494 " fill="none" id="Document-backto-ShareLink" style="stroke:#181818;stroke-width:1.0;"/><polygon fill="none" points="782,307.8694,778,313.8694,782,319.8694,786,313.8694,782,307.8694" style="stroke:#181818;stroke-width:1.0;"/><text fill="#000000" font-family="sans-serif" font-size="13" lengthAdjust="spacing" textLength="7.23" x="780.162" y="328.9895">1</text><text fill="#000000" font-family="sans-serif" font-size="13" lengthAdjust="spacing" textLength="31.7891" x="746.79" y="492.8219">many</text></g><!--reverse link Document to DocumentSignature--><g id="link_Document_DocumentSignature"><path codeLine="67" d="M849.25,320.0494 C849.25,418.9894 849.25,525.6094 849.25,525.6094 C849.25,525.6094 860.78,525.6094 876.5,525.6094 " fill="none" id="Document-backto-DocumentSignature" style="stroke:#181818;stroke-width:1.0;"/><polygon fill="none" points="849.25,308.0494,845.25,314.0494,849.25,320.0494,853.25,314.0494,849.25,308.0494" style="stroke:#181818;stroke-width:1.0;"/><text fill="#000000" font-family="sans-serif" font-size="13" lengthAdjust="spacing" textLength="7.23" x="851.0897" y="329.1793">1</text><text fill="#000000" font-family="sans-serif" font-size="13" lengthAdjust="spacing" textLength="31.7891" x="836.5622" y="521.8183">many</text></g><!--SRC=[bLRRZk9647ttLvJcPIzPmoRIve6CYBYDXeo129Z98shimcxHxdQwsyCw5obF-O0eNv9Vo9_ibwJQ1WDc62aZZS1LTUfsZhjv0wD__n7CmCDa0L_- -1iUfDe9Z6A4K6c4IAMCI-yDB5IkG-p0Lfc4-P4AynIbRHiTjbr4Uwkie8y8dzjbIBiEeNzkY_RxrjPIdfaK1TW4GIWM-MjaciiODXn5P81HHPEedVmEDhaGOC84KsfEy6S4BXsEKjo9OiSAI7cicULA6iXbX7hV6ikoOrSQJTctQKVhTWreUPxPSfanpL88QNhJirRpTMvn72gvuByWV3m9eS7G5Xc2qZPHNi8Z14mpIprWkaPjF9fG80pBPK6g8XGlBVFj-VBUULvPd72L0MvloTSw-BjT-DK3-0fu11ruV1mFooToJtDNbemBwzRtVMclUZZOgb0qeUQPcxaHR2opkQcD0BUyEvptxfRm6uodg_deQJpwYRx_-DWFnelxqV2spRjxfD8inWaDUGv_wZq63ZwOJQUZmN8sho4xfRSReNPBjyCpp7Gs7H4a64z7lRahrvltWc0Kr50IGBZ5Q9PR0lQL4iXawH3AsNlEFDji3DeXixZaALRpQNpck1iKuSbAAe_4ptPUUby1_vnpaaw0CHDLx4drtvkqFP42t8RFsLizL-OhBEwz3IPBruOBdB8KBwrEcVt2eYCkK8U9IBAM2jupanndBTUxkE_vttpwjidT0nQDm0cNuzbnwLN2CxggKYhKlImJ7AC67UHOl93yu0kOZ7DoDZn4XMQXnMY2baNCClB_O9JiLrsPZ0qAc8xce7ARvVP45PGF5tcQCbsyhkpIbkLhmKrobV1SlXPH4xudkcws8dpFv2hTcwyGRfhTbYC6mSIFKI8TJ1ZLyzLxMTAt1cB9jyol0se8umCbDtGooT1jkS_Z8OOyPQAQCCbJ9Yifdt5t8UO1DH8hwhEXvd1llpATlD0h7PtkIEjSP3vPw2AXe83BxRwQSSyhEcwttMwZhmMF9H5BfsYZCNDm48Gk1z_twVqLrSMGyCmuo__yy-e3-URh6tXF6MzeUyNDnHlVERp6vWJoiTKYbEztI_J5NZjmMANNJ7TJuWuPcchhm45Xby2NQnxRhCZOFv-FfuxZrNHSZRXWmwrye9KnFejZJUUbHLh_1hNJeO6tz4bNCqbEA6LG51_08DsZT95hY3YZ2parxpof78p7YGMrgOkGZ9gfxnvCXym-tMmqaYq5G4ByykTVuAHlMqTx6PPfxbww5VsaG4sH7yYYFfyyKnI0SEVygheozc7LzR9Q5oUvSqDEmhkJkCpkTk9RvRjFE1DbcR-4de5e6U1czVu3]--></g></svg>