<svg xmlns="http://www.w3.org/2000/svg" xmlns:xlink="http://www.w3.org/1999/xlink" contentStyleType="text/css" height="639px" preserveAspectRatio="none" style="width:1532px;height:639px;background:#FFFFFF;" version="1.1" viewBox="0 0 1532 639" width="1532px" zoomAndPan="magnify"><title>Domain model &#8212; Taxonomy &amp;amp; retention</title><defs/><g><text fill="#000000" font-family="sans-serif" font-size="14" font-weight="bold" lengthAdjust="spacing" textLength="299.9131" x="609.4966" y="24.5332">Domain model &#8212; Taxonomy &amp;amp; retention</text><!--cluster kosha-taxonomy--><g id="cluster_kosha-taxonomy"><path d="M8.5,62.1094 L120.748,62.1094 A3.75,3.75 0 0 1 123.248,64.6094 L130.248,85.7188 L633.5,85.7188 A2.5,2.5 0 0 1 636,88.2188 L636,630.1094 A2.5,2.5 0 0 1 633.5,632.6094 L8.5,632.6094 A2.5,2.5 0 0 1 6,630.1094 L6,64.6094 A2.5,2.5 0 0 1 8.5,62.1094 " fill="none" style="stroke:#000000;stroke-width:1.5;"/><line style="stroke:#000000;stroke-width:1.5;" x1="6" x2="130.248" y1="85.7188" y2="85.7188"/><text fill="#000000" font-family="sans-serif" font-size="14" font-weight="bold" lengthAdjust="spacing" textLength="111.248" x="10" y="78.6426">kosha-taxonomy</text></g><!--cluster kosha-retention--><g id="cluster_kosha-retention"><path d="M982.5,44.6094 L1088.5137,44.6094 A3.75,3.75 0 0 1 1091.0137,47.1094 L1098.0137,68.2188 L1375.5,68.2188 A2.5,2.5 0 0 1 1378,70.7188 L1378,440.1094 A2.5,2.5 0 0 1 1375.5,442.6094 L982.5,442.6094 A2.5,2.5 0 0 1 980,440.1094 L980,47.1094 A2.5,2.5 0 0 1 982.5,44.6094 " fill="none" style="stroke:#000000;stroke-width:1.5;"/><line style="stroke:#000000;stroke-width:1.5;" x1="980" x2="1098.0137" y1="68.2188" y2="68.2188"/><text fill="#000000" font-family="sans-serif" font-size="14" font-weight="bold" lengthAdjust="spacing" textLength="105.0137" x="984" y="61.1426">kosha-retention</text></g><!--class TaxonomyTerm--><g id="elem_TaxonomyTerm"><rect codeLine="12" fill="#F1F1F1" height="138.75" id="TaxonomyTerm" rx="2.5" ry="2.5" style="stroke:#181818;stroke-width:0.5;" width="436.3887" x="130" y="296.6094"/><ellipse cx="288.25" cy="317.9609" fill="#ADD1B2" rx="11" ry="11" style="stroke:#181818;stroke-width:1.0;"/><path d="M291.0156,313.8359 Q291.1719,313.6172 291.3594,313.5078 Q291.5469,313.3984 291.7656,313.3984 Q292.1406,313.3984 292.375,313.6641 Q292.6094,313.9141 292.6094,314.5234 L292.6094,315.9766 Q292.6094,316.5859 292.375,316.8516 Q292.1406,317.1172 291.7656,317.1172 Q291.4219,317.1172 291.2188,316.9141 Q291.0156,316.7266 290.9063,316.2109 Q290.8594,315.8516 290.6719,315.6641 Q290.3438,315.2891 289.7344,315.0703 Q289.125,314.8516 288.5,314.8516 Q287.7344,314.8516 287.0938,315.1797 Q286.4688,315.5078 285.9688,316.2578 Q285.4844,317.0078 285.4844,318.0391 L285.4844,319.1328 Q285.4844,320.3672 286.375,321.1953 Q287.2656,322.0078 288.8594,322.0078 Q289.7969,322.0078 290.4531,321.7578 Q290.8438,321.6016 291.2656,321.1641 Q291.5313,320.8984 291.6719,320.8203 Q291.8281,320.7422 292.0313,320.7422 Q292.3594,320.7422 292.6094,321.0078 Q292.875,321.2578 292.875,321.6016 Q292.875,321.9453 292.5313,322.3516 Q292.0313,322.9297 291.2344,323.2578 Q290.1563,323.7109 288.8594,323.7109 Q287.3438,323.7109 286.1406,323.0859 Q285.1563,322.5859 284.4688,321.5234 Q283.7813,320.4453 283.7813,319.1641 L283.7813,318.0078 Q283.7813,316.6797 284.3906,315.5391 Q285.0156,314.3828 286.1094,313.7734 Q287.2031,313.1484 288.4375,313.1484 Q289.1719,313.1484 289.8125,313.3203 Q290.4688,313.4766 291.0156,313.8359 Z " fill="#000000"/><text fill="#000000" font-family="sans-serif" font-size="12" font-style="italic" lengthAdjust="spacing" textLength="115.3887" x="306.75" y="314.0664">&#171;tax.taxonomy_term&#187;</text><text fill="#000000" font-family="sans-serif" font-size="14" lengthAdjust="spacing" textLength="98.0205" x="315.4341" y="331.2363">TaxonomyTerm</text><line style="stroke:#181818;stroke-width:0.5;" x1="131" x2="565.3887" y1="339.3125" y2="339.3125"/><text fill="#000000" font-family="sans-serif" font-size="14" lengthAdjust="spacing" textLength="64.9619" x="136" y="357.8457">+id : UUID</text><text fill="#000000" font-family="sans-serif" font-size="14" lengthAdjust="spacing" textLength="85.9961" x="136" y="375.4551">+label : String</text><text fill="#000000" font-family="sans-serif" font-size="14" lengthAdjust="spacing" textLength="159.1475" x="136" y="393.0645">+normalizedLabel : String</text><text fill="#000000" font-family="sans-serif" font-size="14" lengthAdjust="spacing" textLength="98.4375" x="136" y="410.6738">+source : String</text><text fill="#000000" font-family="sans-serif" font-size="14" font-style="italic" lengthAdjust="spacing" textLength="227.4385" x="242.2168" y="410.6738">SEED | AI_GENERATED | MANUAL</text><text fill="#000000" font-family="sans-serif" font-size="14" lengthAdjust="spacing" textLength="93.7686" x="136" y="428.2832">+status : String</text><text fill="#000000" font-family="sans-serif" font-size="14" font-style="italic" lengthAdjust="spacing" textLength="322.8408" x="237.5479" y="428.2832">ACTIVE | CANDIDATE | MERGED | DEPRECATED</text></g><!--class TaxonomyTermAlias--><g id="elem_TaxonomyTermAlias"><rect codeLine="20" fill="#F1F1F1" height="121.1406" id="TaxonomyTermAlias" rx="2.5" ry="2.5" style="stroke:#181818;stroke-width:0.5;" width="296.8945" x="199.5" y="495.6094"/><ellipse cx="272.3262" cy="516.9609" fill="#ADD1B2" rx="11" ry="11" style="stroke:#181818;stroke-width:1.0;"/><path d="M275.0918,512.8359 Q275.248,512.6172 275.4355,512.5078 Q275.623,512.3984 275.8418,512.3984 Q276.2168,512.3984 276.4512,512.6641 Q276.6855,512.9141 276.6855,513.5234 L276.6855,514.9766 Q276.6855,515.5859 276.4512,515.8516 Q276.2168,516.1172 275.8418,516.1172 Q275.498,516.1172 275.2949,515.9141 Q275.0918,515.7266 274.9824,515.2109 Q274.9355,514.8516 274.748,514.6641 Q274.4199,514.2891 273.8105,514.0703 Q273.2012,513.8516 272.5762,513.8516 Q271.8105,513.8516 271.1699,514.1797 Q270.5449,514.5078 270.0449,515.2578 Q269.5605,516.0078 269.5605,517.0391 L269.5605,518.1328 Q269.5605,519.3672 270.4512,520.1953 Q271.3418,521.0078 272.9355,521.0078 Q273.873,521.0078 274.5293,520.7578 Q274.9199,520.6016 275.3418,520.1641 Q275.6074,519.8984 275.748,519.8203 Q275.9043,519.7422 276.1074,519.7422 Q276.4355,519.7422 276.6855,520.0078 Q276.9512,520.2578 276.9512,520.6016 Q276.9512,520.9453 276.6074,521.3516 Q276.1074,521.9297 275.3105,522.2578 Q274.2324,522.7109 272.9355,522.7109 Q271.4199,522.7109 270.2168,522.0859 Q269.2324,521.5859 268.5449,520.5234 Q267.8574,519.4453 267.8574,518.1641 L267.8574,517.0078 Q267.8574,515.6797 268.4668,514.5391 Q269.0918,513.3828 270.1855,512.7734 Q271.2793,512.1484 272.5137,512.1484 Q273.248,512.1484 273.8887,512.3203 Q274.5449,512.4766 275.0918,512.8359 Z " fill="#000000"/><text fill="#000000" font-family="sans-serif" font-size="12" font-style="italic" lengthAdjust="spacing" textLength="146.7422" x="290.8262" y="513.0664">&#171;tax.taxonomy_term_alias&#187;</text><text fill="#000000" font-family="sans-serif" font-size="14" lengthAdjust="spacing" textLength="128.3652" x="300.0146" y="530.2363">TaxonomyTermAlias</text><line style="stroke:#181818;stroke-width:0.5;" x1="200.5" x2="495.3945" y1="538.3125" y2="538.3125"/><text fill="#000000" font-family="sans-serif" font-size="14" lengthAdjust="spacing" textLength="64.9619" x="205.5" y="556.8457">+id : UUID</text><text fill="#000000" font-family="sans-serif" font-size="14" lengthAdjust="spacing" textLength="119.4648" x="205.5" y="574.4551">+aliasLabel : String</text><text fill="#000000" font-family="sans-serif" font-size="14" lengthAdjust="spacing" textLength="189.4922" x="205.5" y="592.0645">+normalizedAliasLabel : String</text><text fill="#000000" font-family="sans-serif" font-size="14" lengthAdjust="spacing" textLength="98.4375" x="205.5" y="609.6738">+source : String</text><text fill="#000000" font-family="sans-serif" font-size="14" font-style="italic" lengthAdjust="spacing" textLength="178.6777" x="311.7168" y="609.6738">AI_SUGGESTED | MANUAL</text></g><!--class TaxonomyEdge--><g id="elem_TaxonomyEdge"><rect codeLine="27" fill="#F1F1F1" height="85.9219" id="TaxonomyEdge" rx="2.5" ry="2.5" style="stroke:#181818;stroke-width:0.5;" width="169.5615" x="227" y="115.6094"/><ellipse cx="252.5649" cy="136.9609" fill="#ADD1B2" rx="11" ry="11" style="stroke:#181818;stroke-width:1.0;"/><path d="M255.3305,132.8359 Q255.4868,132.6172 255.6743,132.5078 Q255.8618,132.3984 256.0805,132.3984 Q256.4555,132.3984 256.6899,132.6641 Q256.9243,132.9141 256.9243,133.5234 L256.9243,134.9766 Q256.9243,135.5859 256.6899,135.8516 Q256.4555,136.1172 256.0805,136.1172 Q255.7368,136.1172 255.5336,135.9141 Q255.3305,135.7266 255.2211,135.2109 Q255.1743,134.8516 254.9868,134.6641 Q254.6586,134.2891 254.0493,134.0703 Q253.4399,133.8516 252.8149,133.8516 Q252.0493,133.8516 251.4086,134.1797 Q250.7836,134.5078 250.2836,135.2578 Q249.7993,136.0078 249.7993,137.0391 L249.7993,138.1328 Q249.7993,139.3672 250.6899,140.1953 Q251.5805,141.0078 253.1743,141.0078 Q254.1118,141.0078 254.768,140.7578 Q255.1586,140.6016 255.5805,140.1641 Q255.8461,139.8984 255.9868,139.8203 Q256.143,139.7422 256.3461,139.7422 Q256.6743,139.7422 256.9243,140.0078 Q257.1899,140.2578 257.1899,140.6016 Q257.1899,140.9453 256.8461,141.3516 Q256.3461,141.9297 255.5493,142.2578 Q254.4711,142.7109 253.1743,142.7109 Q251.6586,142.7109 250.4555,142.0859 Q249.4711,141.5859 248.7836,140.5234 Q248.0961,139.4453 248.0961,138.1641 L248.0961,137.0078 Q248.0961,135.6797 248.7055,134.5391 Q249.3305,133.3828 250.4243,132.7734 Q251.518,132.1484 252.7524,132.1484 Q253.4868,132.1484 254.1274,132.3203 Q254.7836,132.4766 255.3305,132.8359 Z " fill="#000000"/><text fill="#000000" font-family="sans-serif" font-size="12" font-style="italic" lengthAdjust="spacing" textLength="118.084" x="266.9126" y="133.0664">&#171;tax.taxonomy_edge&#187;</text><text fill="#000000" font-family="sans-serif" font-size="14" lengthAdjust="spacing" textLength="98.0547" x="276.9273" y="150.2363">TaxonomyEdge</text><line style="stroke:#181818;stroke-width:0.5;" x1="228" x2="395.5615" y1="158.3125" y2="158.3125"/><text fill="#000000" font-family="sans-serif" font-size="14" lengthAdjust="spacing" textLength="157.5615" x="233" y="176.8457">+parent : TaxonomyTerm</text><text fill="#000000" font-family="sans-serif" font-size="14" lengthAdjust="spacing" textLength="146.6582" x="233" y="194.4551">+child : TaxonomyTerm</text></g><!--class DocumentClassification--><g id="elem_DocumentClassification"><rect codeLine="32" fill="#F1F1F1" height="121.1406" id="DocumentClassification" rx="2.5" ry="2.5" style="stroke:#181818;stroke-width:0.5;" width="188.0898" x="432" y="98.1094"/><ellipse cx="447" cy="119.4609" fill="#ADD1B2" rx="11" ry="11" style="stroke:#181818;stroke-width:1.0;"/><path d="M449.7656,115.3359 Q449.9219,115.1172 450.1094,115.0078 Q450.2969,114.8984 450.5156,114.8984 Q450.8906,114.8984 451.125,115.1641 Q451.3594,115.4141 451.3594,116.0234 L451.3594,117.4766 Q451.3594,118.0859 451.125,118.3516 Q450.8906,118.6172 450.5156,118.6172 Q450.1719,118.6172 449.9688,118.4141 Q449.7656,118.2266 449.6563,117.7109 Q449.6094,117.3516 449.4219,117.1641 Q449.0938,116.7891 448.4844,116.5703 Q447.875,116.3516 447.25,116.3516 Q446.4844,116.3516 445.8438,116.6797 Q445.2188,117.0078 444.7188,117.7578 Q444.2344,118.5078 444.2344,119.5391 L444.2344,120.6328 Q444.2344,121.8672 445.125,122.6953 Q446.0156,123.5078 447.6094,123.5078 Q448.5469,123.5078 449.2031,123.2578 Q449.5938,123.1016 450.0156,122.6641 Q450.2813,122.3984 450.4219,122.3203 Q450.5781,122.2422 450.7813,122.2422 Q451.1094,122.2422 451.3594,122.5078 Q451.625,122.7578 451.625,123.1016 Q451.625,123.4453 451.2813,123.8516 Q450.7813,124.4297 449.9844,124.7578 Q448.9063,125.2109 447.6094,125.2109 Q446.0938,125.2109 444.8906,124.5859 Q443.9063,124.0859 443.2188,123.0234 Q442.5313,121.9453 442.5313,120.6641 L442.5313,119.5078 Q442.5313,118.1797 443.1406,117.0391 Q443.7656,115.8828 444.8594,115.2734 Q445.9531,114.6484 447.1875,114.6484 Q447.9219,114.6484 448.5625,114.8203 Q449.2188,114.9766 449.7656,115.3359 Z " fill="#000000"/><text fill="#000000" font-family="sans-serif" font-size="12" font-style="italic" lengthAdjust="spacing" textLength="160.0898" x="459" y="115.5664">&#171;tax.document_classification&#187;</text><text fill="#000000" font-family="sans-serif" font-size="14" lengthAdjust="spacing" textLength="146.2822" x="465.9038" y="132.7363">DocumentClassification</text><line style="stroke:#181818;stroke-width:0.5;" x1="433" x2="619.0898" y1="140.8125" y2="140.8125"/><text fill="#000000" font-family="sans-serif" font-size="14" lengthAdjust="spacing" textLength="127.2236" x="438" y="159.3457">+documentId : UUID</text><text fill="#000000" font-family="sans-serif" font-size="14" lengthAdjust="spacing" textLength="93.7412" x="438" y="176.9551">+termId : UUID</text><text fill="#000000" font-family="sans-serif" font-size="14" lengthAdjust="spacing" textLength="158.3613" x="438" y="194.5645">+confidence : BigDecimal</text><text fill="#000000" font-family="sans-serif" font-size="14" lengthAdjust="spacing" textLength="98.4375" x="438" y="212.1738">+source : String</text></g><!--class ExtractedKeyword--><g id="elem_ExtractedKeyword"><rect codeLine="39" fill="#F1F1F1" height="121.1406" id="ExtractedKeyword" rx="2.5" ry="2.5" style="stroke:#181818;stroke-width:0.5;" width="170.3613" x="22" y="98.1094"/><ellipse cx="41.0298" cy="119.4609" fill="#ADD1B2" rx="11" ry="11" style="stroke:#181818;stroke-width:1.0;"/><path d="M43.7954,115.3359 Q43.9517,115.1172 44.1392,115.0078 Q44.3267,114.8984 44.5454,114.8984 Q44.9204,114.8984 45.1548,115.1641 Q45.3892,115.4141 45.3892,116.0234 L45.3892,117.4766 Q45.3892,118.0859 45.1548,118.3516 Q44.9204,118.6172 44.5454,118.6172 Q44.2017,118.6172 43.9985,118.4141 Q43.7954,118.2266 43.686,117.7109 Q43.6392,117.3516 43.4517,117.1641 Q43.1235,116.7891 42.5142,116.5703 Q41.9048,116.3516 41.2798,116.3516 Q40.5142,116.3516 39.8735,116.6797 Q39.2485,117.0078 38.7485,117.7578 Q38.2642,118.5078 38.2642,119.5391 L38.2642,120.6328 Q38.2642,121.8672 39.1548,122.6953 Q40.0454,123.5078 41.6392,123.5078 Q42.5767,123.5078 43.2329,123.2578 Q43.6235,123.1016 44.0454,122.6641 Q44.311,122.3984 44.4517,122.3203 Q44.6079,122.2422 44.811,122.2422 Q45.1392,122.2422 45.3892,122.5078 Q45.6548,122.7578 45.6548,123.1016 Q45.6548,123.4453 45.311,123.8516 Q44.811,124.4297 44.0142,124.7578 Q42.936,125.2109 41.6392,125.2109 Q40.1235,125.2109 38.9204,124.5859 Q37.936,124.0859 37.2485,123.0234 Q36.561,121.9453 36.561,120.6641 L36.561,119.5078 Q36.561,118.1797 37.1704,117.0391 Q37.7954,115.8828 38.8892,115.2734 Q39.9829,114.6484 41.2173,114.6484 Q41.9517,114.6484 42.5923,114.8203 Q43.2485,114.9766 43.7954,115.3359 Z " fill="#000000"/><text fill="#000000" font-family="sans-serif" font-size="12" font-style="italic" lengthAdjust="spacing" textLength="133.4063" x="53.9253" y="115.5664">&#171;tax.extracted_keyword&#187;</text><text fill="#000000" font-family="sans-serif" font-size="14" lengthAdjust="spacing" textLength="113.6064" x="63.8252" y="132.7363">ExtractedKeyword</text><line style="stroke:#181818;stroke-width:0.5;" x1="23" x2="191.3613" y1="140.8125" y2="140.8125"/><text fill="#000000" font-family="sans-serif" font-size="14" lengthAdjust="spacing" textLength="110.8721" x="28" y="159.3457">+versionId : UUID</text><text fill="#000000" font-family="sans-serif" font-size="14" lengthAdjust="spacing" textLength="108.5479" x="28" y="176.9551">+keyword : String</text><text fill="#000000" font-family="sans-serif" font-size="14" lengthAdjust="spacing" textLength="96.8926" x="28" y="194.5645">+frequency : Int</text><text fill="#000000" font-family="sans-serif" font-size="14" lengthAdjust="spacing" textLength="158.3613" x="28" y="212.1738">+confidence : BigDecimal</text></g><!--class RetentionPolicy--><g id="elem_RetentionPolicy"><rect codeLine="54" fill="#F1F1F1" height="156.3594" id="RetentionPolicy" rx="2.5" ry="2.5" style="stroke:#181818;stroke-width:0.5;" width="365.8828" x="996" y="80.6094"/><ellipse cx="1119.3223" cy="101.9609" fill="#ADD1B2" rx="11" ry="11" style="stroke:#181818;stroke-width:1.0;"/><path d="M1122.0879,97.8359 Q1122.2441,97.6172 1122.4316,97.5078 Q1122.6191,97.3984 1122.8379,97.3984 Q1123.2129,97.3984 1123.4473,97.6641 Q1123.6816,97.9141 1123.6816,98.5234 L1123.6816,99.9766 Q1123.6816,100.5859 1123.4473,100.8516 Q1123.2129,101.1172 1122.8379,101.1172 Q1122.4941,101.1172 1122.291,100.9141 Q1122.0879,100.7266 1121.9785,100.2109 Q1121.9316,99.8516 1121.7441,99.6641 Q1121.416,99.2891 1120.8066,99.0703 Q1120.1973,98.8516 1119.5723,98.8516 Q1118.8066,98.8516 1118.166,99.1797 Q1117.541,99.5078 1117.041,100.2578 Q1116.5566,101.0078 1116.5566,102.0391 L1116.5566,103.1328 Q1116.5566,104.3672 1117.4473,105.1953 Q1118.3379,106.0078 1119.9316,106.0078 Q1120.8691,106.0078 1121.5254,105.7578 Q1121.916,105.6016 1122.3379,105.1641 Q1122.6035,104.8984 1122.7441,104.8203 Q1122.9004,104.7422 1123.1035,104.7422 Q1123.4316,104.7422 1123.6816,105.0078 Q1123.9473,105.2578 1123.9473,105.6016 Q1123.9473,105.9453 1123.6035,106.3516 Q1123.1035,106.9297 1122.3066,107.2578 Q1121.2285,107.7109 1119.9316,107.7109 Q1118.416,107.7109 1117.2129,107.0859 Q1116.2285,106.5859 1115.541,105.5234 Q1114.8535,104.4453 1114.8535,103.1641 L1114.8535,102.0078 Q1114.8535,100.6797 1115.4629,99.5391 Q1116.0879,98.3828 1117.1816,97.7734 Q1118.2754,97.1484 1119.5098,97.1484 Q1120.2441,97.1484 1120.8848,97.3203 Q1121.541,97.4766 1122.0879,97.8359 Z " fill="#000000"/><text fill="#000000" font-family="sans-serif" font-size="12" font-style="italic" lengthAdjust="spacing" textLength="114.7383" x="1137.8223" y="98.0664">&#171;ret.retention_policy&#187;</text><text fill="#000000" font-family="sans-serif" font-size="14" lengthAdjust="spacing" textLength="97.2754" x="1146.5537" y="115.2363">RetentionPolicy</text><line style="stroke:#181818;stroke-width:0.5;" x1="997" x2="1360.8828" y1="123.3125" y2="123.3125"/><text fill="#000000" font-family="sans-serif" font-size="14" lengthAdjust="spacing" textLength="64.9619" x="1002" y="141.8457">+id : UUID</text><text fill="#000000" font-family="sans-serif" font-size="14" lengthAdjust="spacing" textLength="91.4375" x="1002" y="159.4551">+name : String</text><text fill="#000000" font-family="sans-serif" font-size="14" lengthAdjust="spacing" textLength="151.3682" x="1002" y="177.0645">+retentionPeriod : String</text><text fill="#000000" font-family="sans-serif" font-size="14" font-style="italic" lengthAdjust="spacing" textLength="114.4063" x="1161.1475" y="177.0645">ISO-8601 duration</text><text fill="#000000" font-family="sans-serif" font-size="14" lengthAdjust="spacing" textLength="150.5684" x="1002" y="194.6738">+reviewInterval : String?</text><text fill="#000000" font-family="sans-serif" font-size="14" lengthAdjust="spacing" textLength="151.3477" x="1002" y="212.2832">+actionOnExpiry : String</text><text fill="#000000" font-family="sans-serif" font-size="14" font-style="italic" lengthAdjust="spacing" textLength="194.7559" x="1161.127" y="212.2832">REVIEW | DELETE | ARCHIVE</text><text fill="#000000" font-family="sans-serif" font-size="14" lengthAdjust="spacing" textLength="93.7686" x="1002" y="229.8926">+status : String</text><text fill="#000000" font-family="sans-serif" font-size="14" font-style="italic" lengthAdjust="spacing" textLength="126.5469" x="1103.5479" y="229.8926">ACTIVE | INACTIVE</text></g><!--class RetentionReview--><g id="elem_RetentionReview"><rect codeLine="63" fill="#F1F1F1" height="121.1406" id="RetentionReview" rx="2.5" ry="2.5" style="stroke:#181818;stroke-width:0.5;" width="329.8643" x="1014" y="305.6094"/><ellipse cx="1117.3149" cy="326.9609" fill="#ADD1B2" rx="11" ry="11" style="stroke:#181818;stroke-width:1.0;"/><path d="M1120.0806,322.8359 Q1120.2368,322.6172 1120.4243,322.5078 Q1120.6118,322.3984 1120.8306,322.3984 Q1121.2056,322.3984 1121.4399,322.6641 Q1121.6743,322.9141 1121.6743,323.5234 L1121.6743,324.9766 Q1121.6743,325.5859 1121.4399,325.8516 Q1121.2056,326.1172 1120.8306,326.1172 Q1120.4868,326.1172 1120.2837,325.9141 Q1120.0806,325.7266 1119.9712,325.2109 Q1119.9243,324.8516 1119.7368,324.6641 Q1119.4087,324.2891 1118.7993,324.0703 Q1118.1899,323.8516 1117.5649,323.8516 Q1116.7993,323.8516 1116.1587,324.1797 Q1115.5337,324.5078 1115.0337,325.2578 Q1114.5493,326.0078 1114.5493,327.0391 L1114.5493,328.1328 Q1114.5493,329.3672 1115.4399,330.1953 Q1116.3306,331.0078 1117.9243,331.0078 Q1118.8618,331.0078 1119.5181,330.7578 Q1119.9087,330.6016 1120.3306,330.1641 Q1120.5962,329.8984 1120.7368,329.8203 Q1120.8931,329.7422 1121.0962,329.7422 Q1121.4243,329.7422 1121.6743,330.0078 Q1121.9399,330.2578 1121.9399,330.6016 Q1121.9399,330.9453 1121.5962,331.3516 Q1121.0962,331.9297 1120.2993,332.2578 Q1119.2212,332.7109 1117.9243,332.7109 Q1116.4087,332.7109 1115.2056,332.0859 Q1114.2212,331.5859 1113.5337,330.5234 Q1112.8462,329.4453 1112.8462,328.1641 L1112.8462,327.0078 Q1112.8462,325.6797 1113.4556,324.5391 Q1114.0806,323.3828 1115.1743,322.7734 Q1116.2681,322.1484 1117.5024,322.1484 Q1118.2368,322.1484 1118.8774,322.3203 Q1119.5337,322.4766 1120.0806,322.8359 Z " fill="#000000"/><text fill="#000000" font-family="sans-serif" font-size="12" font-style="italic" lengthAdjust="spacing" textLength="118.7344" x="1135.8149" y="323.0664">&#171;ret.retention_review&#187;</text><text fill="#000000" font-family="sans-serif" font-size="14" lengthAdjust="spacing" textLength="105.834" x="1142.2651" y="340.2363">RetentionReview</text><line style="stroke:#181818;stroke-width:0.5;" x1="1015" x2="1342.8643" y1="348.3125" y2="348.3125"/><text fill="#000000" font-family="sans-serif" font-size="14" lengthAdjust="spacing" textLength="127.2236" x="1020" y="366.8457">+documentId : UUID</text><text fill="#000000" font-family="sans-serif" font-size="14" lengthAdjust="spacing" textLength="154.458" x="1020" y="384.4551">+dueAt : OffsetDateTime</text><text fill="#000000" font-family="sans-serif" font-size="14" lengthAdjust="spacing" textLength="129.5547" x="1020" y="402.0645">+warningTier : String</text><text fill="#000000" font-family="sans-serif" font-size="14" font-style="italic" lengthAdjust="spacing" textLength="180.5303" x="1157.334" y="402.0645">90D | 60D | 30D | OVERDUE</text><text fill="#000000" font-family="sans-serif" font-size="14" lengthAdjust="spacing" textLength="129.5957" x="1020" y="419.6738">+legalHold : Boolean</text></g><!--class Department--><g id="elem_Department"><rect codeLine="73" fill="#F1F1F1" height="42.7031" id="Department" rx="2.5" ry="2.5" style="stroke:#181818;stroke-width:0.5;" width="131.4063" x="1394.5" y="344.6094"/><ellipse cx="1409.5" cy="365.9609" fill="#ADD1B2" rx="11" ry="11" style="stroke:#181818;stroke-width:1.0;"/><path d="M1412.2656,361.8359 Q1412.4219,361.6172 1412.6094,361.5078 Q1412.7969,361.3984 1413.0156,361.3984 Q1413.3906,361.3984 1413.625,361.6641 Q1413.8594,361.9141 1413.8594,362.5234 L1413.8594,363.9766 Q1413.8594,364.5859 1413.625,364.8516 Q1413.3906,365.1172 1413.0156,365.1172 Q1412.6719,365.1172 1412.4688,364.9141 Q1412.2656,364.7266 1412.1563,364.2109 Q1412.1094,363.8516 1411.9219,363.6641 Q1411.5938,363.2891 1410.9844,363.0703 Q1410.375,362.8516 1409.75,362.8516 Q1408.9844,362.8516 1408.3438,363.1797 Q1407.7188,363.5078 1407.2188,364.2578 Q1406.7344,365.0078 1406.7344,366.0391 L1406.7344,367.1328 Q1406.7344,368.3672 1407.625,369.1953 Q1408.5156,370.0078 1410.1094,370.0078 Q1411.0469,370.0078 1411.7031,369.7578 Q1412.0938,369.6016 1412.5156,369.1641 Q1412.7813,368.8984 1412.9219,368.8203 Q1413.0781,368.7422 1413.2813,368.7422 Q1413.6094,368.7422 1413.8594,369.0078 Q1414.125,369.2578 1414.125,369.6016 Q1414.125,369.9453 1413.7813,370.3516 Q1413.2813,370.9297 1412.4844,371.2578 Q1411.4063,371.7109 1410.1094,371.7109 Q1408.5938,371.7109 1407.3906,371.0859 Q1406.4063,370.5859 1405.7188,369.5234 Q1405.0313,368.4453 1405.0313,367.1641 L1405.0313,366.0078 Q1405.0313,364.6797 1405.6406,363.5391 Q1406.2656,362.3828 1407.3594,361.7734 Q1408.4531,361.1484 1409.6875,361.1484 Q1410.4219,361.1484 1411.0625,361.3203 Q1411.7188,361.4766 1412.2656,361.8359 Z " fill="#000000"/><text fill="#000000" font-family="sans-serif" font-size="12" font-style="italic" lengthAdjust="spacing" textLength="103.4063" x="1421.5" y="362.0664">&#171;ident.department&#187;</text><text fill="#000000" font-family="sans-serif" font-size="14" lengthAdjust="spacing" textLength="73.1445" x="1436.6309" y="379.2363">Department</text></g><g id="elem_GMN20"><path d="M655,121.1094 L655,154.6094 L620.29,158.6094 L655,162.6094 L655,196.5156 A0,0 0 0 0 655,196.5156 L961.397,196.5156 A0,0 0 0 0 961.397,196.5156 L961.397,131.1094 L951.397,121.1094 L655,121.1094 A0,0 0 0 0 655,121.1094 " fill="#FEFFDD" style="stroke:#181818;stroke-width:0.5;"/><path d="M951.397,121.1094 L951.397,131.1094 L961.397,131.1094 L951.397,121.1094 " fill="#FEFFDD" style="stroke:#181818;stroke-width:0.5;"/><text fill="#000000" font-family="sans-serif" font-size="13" lengthAdjust="spacing" textLength="285.397" x="661" y="139.6045">Inserted by AiResultListener.saveClassifications()</text><text fill="#000000" font-family="sans-serif" font-size="13" lengthAdjust="spacing" textLength="272.4097" x="661" y="155.9561">on `ai.classification.completed`. Re-indexes the</text><text fill="#000000" font-family="sans-serif" font-size="13" lengthAdjust="spacing" textLength="282.5596" x="661" y="172.3076">document into OpenSearch with `tags` populated</text><text fill="#000000" font-family="sans-serif" font-size="13" lengthAdjust="spacing" textLength="221.0825" x="661" y="188.6592">from the linked TaxonomyTerm labels.</text></g><!--reverse link TaxonomyTerm to TaxonomyTermAlias--><g id="link_TaxonomyTerm_TaxonomyTermAlias"><path codeLine="46" d="M348,447.7794 C348,467.3694 348,476.5194 348,495.5294 " fill="none" id="TaxonomyTerm-backto-TaxonomyTermAlias" style="stroke:#181818;stroke-width:1.0;"/><polygon fill="none" points="348,435.7794,344,441.7794,348,447.7794,352,441.7794,348,435.7794" style="stroke:#181818;stroke-width:1.0;"/><text fill="#000000" font-family="sans-serif" font-size="13" lengthAdjust="spacing" textLength="40.4663" x="349" y="462.1545">aliases</text><text fill="#000000" font-family="sans-serif" font-size="13" lengthAdjust="spacing" textLength="7.23" x="340.6477" y="456.9497">1</text><text fill="#000000" font-family="sans-serif" font-size="13" lengthAdjust="spacing" textLength="31.7891" x="315.1654" y="484.6792">many</text></g><!--reverse link TaxonomyTerm to TaxonomyTerm--><g id="link_TaxonomyTerm_TaxonomyTerm"><path codeLine="47" d="M532.5,284.4594 C532.5,267.7394 532.5,266.6094 532.5,266.6094 C532.5,266.6094 593,266.6094 593,266.6094 C593,266.6094 593,465.6094 593,465.6094 C593,465.6094 531.25,465.6094 531.25,465.6094 C531.25,465.6094 531.25,452.4794 531.25,435.7594 " fill="none" id="TaxonomyTerm-backto-TaxonomyTerm" style="stroke:#181818;stroke-width:1.0;"/><polygon fill="none" points="532.5,296.4594,536.5,290.4594,532.5,284.4594,528.5,290.4594,532.5,296.4594" style="stroke:#181818;stroke-width:1.0;"/><text fill="#000000" font-family="sans-serif" font-size="13" lengthAdjust="spacing" textLength="65.7617" x="599" y="358.2245">mergedInto</text><text fill="#000000" font-family="sans-serif" font-size="13" lengthAdjust="spacing" textLength="7.23" x="544.1574" y="285.9779">1</text><text fill="#000000" font-family="sans-serif" font-size="13" lengthAdjust="spacing" textLength="21.6836" x="527.2696" y="456.9278">0..1</text></g><!--link TaxonomyEdge to TaxonomyTerm--><g id="link_TaxonomyEdge_TaxonomyTerm"><path codeLine="48" d="M283.67,201.8594 C283.67,229.1694 283.67,259.0894 283.67,290.3794 " fill="none" id="TaxonomyEdge-to-TaxonomyTerm" style="stroke:#181818;stroke-width:1.0;"/><polygon fill="#181818" points="283.67,296.3794,287.67,287.3794,283.67,291.3794,279.67,287.3794,283.67,296.3794" style="stroke:#181818;stroke-width:1.0;"/><text fill="#000000" font-family="sans-serif" font-size="13" lengthAdjust="spacing" textLength="36.8608" x="246.67" y="245.6145">parent</text><text fill="#000000" font-family="sans-serif" font-size="13" lengthAdjust="spacing" textLength="31.7891" x="246.3226" y="222.9134">many</text><text fill="#000000" font-family="sans-serif" font-size="13" lengthAdjust="spacing" textLength="7.23" x="269.6668" y="285.8896">1</text></g><!--link TaxonomyEdge to TaxonomyTerm--><g id="link_TaxonomyEdge_TaxonomyTerm"><path codeLine="49" d="M340.33,201.8594 C340.33,229.1694 340.33,259.0894 340.33,290.3794 " fill="none" id="TaxonomyEdge-to-TaxonomyTerm-1" style="stroke:#181818;stroke-width:1.0;"/><polygon fill="#181818" points="340.33,296.3794,344.33,287.3794,340.33,291.3794,336.33,287.3794,340.33,296.3794" style="stroke:#181818;stroke-width:1.0;"/><text fill="#000000" font-family="sans-serif" font-size="13" lengthAdjust="spacing" textLength="26.7363" x="313.33" y="245.6145">child</text><text fill="#000000" font-family="sans-serif" font-size="13" lengthAdjust="spacing" textLength="31.7891" x="311.3046" y="222.9134">many</text><text fill="#000000" font-family="sans-serif" font-size="13" lengthAdjust="spacing" textLength="7.23" x="332.1699" y="285.8896">1</text></g><!--link DocumentClassification to TaxonomyTerm--><g id="link_DocumentClassification_TaxonomyTerm"><path codeLine="50" d="M465.5,219.1894 C465.5,243.3494 465.5,265.3194 465.5,290.3194 " fill="none" id="DocumentClassification-to-TaxonomyTerm" style="stroke:#181818;stroke-width:1.0;"/><polygon fill="#181818" points="465.5,296.3194,469.5,287.3194,465.5,291.3194,461.5,287.3194,465.5,296.3194" style="stroke:#181818;stroke-width:1.0;"/><text fill="#000000" font-family="sans-serif" font-size="13" lengthAdjust="spacing" textLength="31.7891" x="425.7529" y="240.6262">many</text><text fill="#000000" font-family="sans-serif" font-size="13" lengthAdjust="spacing" textLength="7.23" x="470.2481" y="285.8234">1</text></g><!--link TaxonomyTerm to DocumentClassification--><g id="link_TaxonomyTerm_DocumentClassification"><path codeLine="75" d="M499,296.4394 C499,271.4794 499,243.5594 499,219.4094 " fill="none" id="TaxonomyTerm-DocumentClassification" style="stroke:#181818;stroke-width:1.0;stroke-dasharray:7.0,7.0;"/><text fill="#000000" font-family="sans-serif" font-size="13" lengthAdjust="spacing" textLength="123.5825" x="375" y="254.4145">applied to documents</text></g><!--reverse link RetentionPolicy to RetentionReview--><g id="link_RetentionPolicy_RetentionReview"><path codeLine="70" d="M1179,248.7594 C1179,271.5094 1179,284.0094 1179,305.4994 " fill="none" id="RetentionPolicy-backto-RetentionReview" style="stroke:#181818;stroke-width:1.0;"/><polygon fill="none" points="1179,236.7594,1175,242.7594,1179,248.7594,1183,242.7594,1179,236.7594" style="stroke:#181818;stroke-width:1.0;"/><text fill="#000000" font-family="sans-serif" font-size="13" lengthAdjust="spacing" textLength="7.23" x="1171.683" y="258.4653">1</text><text fill="#000000" font-family="sans-serif" font-size="13" lengthAdjust="spacing" textLength="31.7891" x="1146.1673" y="294.6455">many</text></g><!--link RetentionPolicy to Department--><g id="link_RetentionPolicy_Department"><path codeLine="74" d="M1353,236.6494 C1353,295.6694 1353,366.6094 1353,366.6094 C1353,366.6094 1366.22,366.6094 1388.37,366.6094 " fill="none" id="RetentionPolicy-to-Department" style="stroke:#181818;stroke-width:1.0;"/><polygon fill="#181818" points="1394.37,366.6094,1385.37,362.6094,1389.37,366.6094,1385.37,370.6094,1394.37,366.6094" style="stroke:#181818;stroke-width:1.0;"/><text fill="#000000" font-family="sans-serif" font-size="13" lengthAdjust="spacing" textLength="21.6836" x="1347.6218" y="258.3448">0..1</text><text fill="#000000" font-family="sans-serif" font-size="13" lengthAdjust="spacing" textLength="7.23" x="1379.3667" y="363.2748">1</text></g><!--SRC=[bLPTRjj647xdAGPwQ5gqecqK21f7LS68X4D4iGpzk8_ocXn92v6xxEvAjj86o25wabwXD-b9EboI4ab9Rlf2YRFpxNxppG_t5GH__vKm3Hy-Jk2VBt_2b3rB8TCTV0CA3Gh3fO1OfemBxRo2YToe2AzXBVMATKtfVF53QTX3BY3_DJl8MBHcIzGkWRqG8YPY7ZE36XBw2tHoTU8KLUfgmyn6myymy6xzqFUc0Ioa0XQdN12XBSUdjxHJYcg9CHY2QCWa5mQO0RD2hl8ZfE0HIs3BMUaP2YDTnz5hBZAcM0eHnQmzOnH_t1WC8oac_1F2PSqbuGBDBaEGogoai-8n0gOPnPHY-eXAEnHWWk1RSI2LCIOj2LcQlJt8w3Yb6D1fojU1tnqeA3NKW5wFNDpARPw7s-zRPu3lWSTm3RDPw9Vl2Nia1jSmeQZ4iZGAgLAMK6pnyDIojldSMm5wl3y90X_-e6pDRuBRO4mvo5y_UhSpRzYxuFqAMgIg0VK6q_0-8Ez3-WWPZ6_i5dvmDmu6-NxbDf-Tat5x2QUwE17ydEKhBqXWruSlw-2TzJab1gamcTtS19CJAfoW7yIKtXPp95kDCrKNrGETKW-vN8jMF8cFbse7-JBQf8GVv6zyGNLkExGuCYuNvr5ZjNPuvH6sXClLRTkeAHPKzC9AyeulVOmuQNXQh2RBuDae5XcCF-3kIQguv8ULURukx3LcM-eeujecKJgsKxLG-Dk6gEreWPhxFnbRRetUwbnrG7Qxq4cPe0uyhh_heffGdqLUkkvL4qcWmy2fuMnPb2TrktsxHGjNbCN_mzXo8SYPedW1x7m-caRxELKVH-FAU2SJJchtUkJcxbtdcJM_q962fTXEtXv-XuhBkDbmuMJK_UdrvHN46sN3g8sSuWD0sgBQiaFx_b9rVvJxZqJmd76rQsux3kx3u5SxX8Q17KlUUF2UXjNNJhJmjlXxtFjxZSQMtf561UklQC9uWru-64QBXKRZqrToobCi5v-O4aHgob4r6Rwvp0VJQ_lyqJv7zy7OdzKZIt39alVIpfPtKYR8H1L3EyEjlcW5bzTDEOYGAjRaOL30UTCPDzwR-dtdQD-YMwfYFC2THb6xxhbgfdxCieJddtsvbr0xZf06GV7boe1Sd05JdA7Gg6ZqmECEF3v6lKdCa6iYYShLR8jDXFxsEmBHiG-CkyrnwaOopH8ABtvmIPyk5p4-quM6hXy4gPW1NKeaZ38K4sGgMi4JDojuC6of7-ZAacqIoc_Ul0ibqnoRNpZMnAyXX_scq-K9wQwK1-hy2m00]--></g></svg>