<svg xmlns="http://www.w3.org/2000/svg" xmlns:xlink="http://www.w3.org/1999/xlink" contentStyleType="text/css" height="758px" preserveAspectRatio="none" style="width:807px;height:758px;background:#FFFFFF;" version="1.1" viewBox="0 0 807 758" width="807px" zoomAndPan="magnify"><title>Domain model &#8212; Identity &amp;amp; access (kosha-identity)</title><defs/><g><text fill="#000000" font-family="sans-serif" font-size="14" font-weight="bold" lengthAdjust="spacing" textLength="374.623" x="209.3247" y="24.5332">Domain model &#8212; Identity &amp;amp; access (kosha-identity)</text><!--class UserProfile--><g id="elem_UserProfile"><rect codeLine="11" fill="#F1F1F1" height="156.3594" id="UserProfile" rx="2.5" ry="2.5" style="stroke:#181818;stroke-width:0.5;" width="488.499" x="7" y="45.6094"/><ellipse cx="196.2974" cy="66.9609" fill="#ADD1B2" rx="11" ry="11" style="stroke:#181818;stroke-width:1.0;"/><path d="M199.063,62.8359 Q199.2192,62.6172 199.4067,62.5078 Q199.5942,62.3984 199.813,62.3984 Q200.188,62.3984 200.4224,62.6641 Q200.6567,62.9141 200.6567,63.5234 L200.6567,64.9766 Q200.6567,65.5859 200.4224,65.8516 Q200.188,66.1172 199.813,66.1172 Q199.4692,66.1172 199.2661,65.9141 Q199.063,65.7266 198.9536,65.2109 Q198.9067,64.8516 198.7192,64.6641 Q198.3911,64.2891 197.7817,64.0703 Q197.1724,63.8516 196.5474,63.8516 Q195.7817,63.8516 195.1411,64.1797 Q194.5161,64.5078 194.0161,65.2578 Q193.5317,66.0078 193.5317,67.0391 L193.5317,68.1328 Q193.5317,69.3672 194.4224,70.1953 Q195.313,71.0078 196.9067,71.0078 Q197.8442,71.0078 198.5005,70.7578 Q198.8911,70.6016 199.313,70.1641 Q199.5786,69.8984 199.7192,69.8203 Q199.8755,69.7422 200.0786,69.7422 Q200.4067,69.7422 200.6567,70.0078 Q200.9224,70.2578 200.9224,70.6016 Q200.9224,70.9453 200.5786,71.3516 Q200.0786,71.9297 199.2817,72.2578 Q198.2036,72.7109 196.9067,72.7109 Q195.3911,72.7109 194.188,72.0859 Q193.2036,71.5859 192.5161,70.5234 Q191.8286,69.4453 191.8286,68.1641 L191.8286,67.0078 Q191.8286,65.6797 192.438,64.5391 Q193.063,63.3828 194.1567,62.7734 Q195.2505,62.1484 196.4849,62.1484 Q197.2192,62.1484 197.8599,62.3203 Q198.5161,62.4766 199.063,62.8359 Z " fill="#000000"/><text fill="#000000" font-family="sans-serif" font-size="12" font-style="italic" lengthAdjust="spacing" textLength="105.4043" x="214.7974" y="63.0664">&#171;ident.user_profile&#187;</text><text fill="#000000" font-family="sans-serif" font-size="14" lengthAdjust="spacing" textLength="69.2412" x="232.8789" y="80.2363">UserProfile</text><line style="stroke:#181818;stroke-width:0.5;" x1="8" x2="494.499" y1="88.3125" y2="88.3125"/><text fill="#000000" font-family="sans-serif" font-size="14" lengthAdjust="spacing" textLength="64.9619" x="13" y="106.8457">+id : UUID</text><text fill="#000000" font-family="sans-serif" font-size="14" lengthAdjust="spacing" textLength="120.21" x="13" y="124.4551">+keycloakId : UUID</text><text fill="#000000" font-family="sans-serif" font-size="14" font-style="italic" lengthAdjust="spacing" textLength="58.3584" x="140.9893" y="124.4551">FK to IdP</text><text fill="#000000" font-family="sans-serif" font-size="14" lengthAdjust="spacing" textLength="137.3408" x="13" y="142.0645">+displayName : String</text><text fill="#000000" font-family="sans-serif" font-size="14" lengthAdjust="spacing" textLength="89.8721" x="13" y="159.6738">+email : String</text><text fill="#000000" font-family="sans-serif" font-size="14" lengthAdjust="spacing" textLength="79.7617" x="13" y="177.2832">+role : String</text><text fill="#000000" font-family="sans-serif" font-size="14" font-style="italic" lengthAdjust="spacing" textLength="388.958" x="100.541" y="177.2832">GLOBAL_ADMIN | DEPT_ADMIN | EDITOR | CONTRIBUTOR</text><text fill="#000000" font-family="sans-serif" font-size="14" lengthAdjust="spacing" textLength="93.7686" x="13" y="194.8926">+status : String</text><text fill="#000000" font-family="sans-serif" font-size="14" font-style="italic" lengthAdjust="spacing" textLength="131.2295" x="114.5479" y="194.8926">ACTIVE | DISABLED</text></g><!--class Department--><g id="elem_Department"><rect codeLine="20" fill="#F1F1F1" height="173.9688" id="Department" rx="2.5" ry="2.5" style="stroke:#181818;stroke-width:0.5;" width="212.4229" x="145" y="425.6094"/><ellipse cx="197.2583" cy="446.9609" fill="#ADD1B2" rx="11" ry="11" style="stroke:#181818;stroke-width:1.0;"/><path d="M200.0239,442.8359 Q200.1802,442.6172 200.3677,442.5078 Q200.5552,442.3984 200.7739,442.3984 Q201.1489,442.3984 201.3833,442.6641 Q201.6177,442.9141 201.6177,443.5234 L201.6177,444.9766 Q201.6177,445.5859 201.3833,445.8516 Q201.1489,446.1172 200.7739,446.1172 Q200.4302,446.1172 200.2271,445.9141 Q200.0239,445.7266 199.9146,445.2109 Q199.8677,444.8516 199.6802,444.6641 Q199.3521,444.2891 198.7427,444.0703 Q198.1333,443.8516 197.5083,443.8516 Q196.7427,443.8516 196.1021,444.1797 Q195.4771,444.5078 194.9771,445.2578 Q194.4927,446.0078 194.4927,447.0391 L194.4927,448.1328 Q194.4927,449.3672 195.3833,450.1953 Q196.2739,451.0078 197.8677,451.0078 Q198.8052,451.0078 199.4614,450.7578 Q199.8521,450.6016 200.2739,450.1641 Q200.5396,449.8984 200.6802,449.8203 Q200.8364,449.7422 201.0396,449.7422 Q201.3677,449.7422 201.6177,450.0078 Q201.8833,450.2578 201.8833,450.6016 Q201.8833,450.9453 201.5396,451.3516 Q201.0396,451.9297 200.2427,452.2578 Q199.1646,452.7109 197.8677,452.7109 Q196.3521,452.7109 195.1489,452.0859 Q194.1646,451.5859 193.4771,450.5234 Q192.7896,449.4453 192.7896,448.1641 L192.7896,447.0078 Q192.7896,445.6797 193.3989,444.5391 Q194.0239,443.3828 195.1177,442.7734 Q196.2114,442.1484 197.4458,442.1484 Q198.1802,442.1484 198.8208,442.3203 Q199.4771,442.4766 200.0239,442.8359 Z " fill="#000000"/><text fill="#000000" font-family="sans-serif" font-size="12" font-style="italic" lengthAdjust="spacing" textLength="103.4063" x="215.7583" y="443.0664">&#171;ident.department&#187;</text><text fill="#000000" font-family="sans-serif" font-size="14" lengthAdjust="spacing" textLength="73.1445" x="230.8892" y="460.2363">Department</text><line style="stroke:#181818;stroke-width:0.5;" x1="146" x2="356.4229" y1="468.3125" y2="468.3125"/><text fill="#000000" font-family="sans-serif" font-size="14" lengthAdjust="spacing" textLength="64.9619" x="151" y="486.8457">+id : UUID</text><text fill="#000000" font-family="sans-serif" font-size="14" lengthAdjust="spacing" textLength="91.4375" x="151" y="504.4551">+name : String</text><text fill="#000000" font-family="sans-serif" font-size="14" lengthAdjust="spacing" textLength="131.9063" x="151" y="522.0645">+description : String?</text><text fill="#000000" font-family="sans-serif" font-size="14" lengthAdjust="spacing" textLength="93.7686" x="151" y="539.6738">+status : String</text><text fill="#000000" font-family="sans-serif" font-size="14" lengthAdjust="spacing" textLength="156.0234" x="151" y="557.2832">+scanIntervalHours : Int?</text><text fill="#000000" font-family="sans-serif" font-size="14" lengthAdjust="spacing" textLength="192.582" x="151" y="574.8926">+lastScanAt : OffsetDateTime?</text><text fill="#000000" font-family="sans-serif" font-size="14" lengthAdjust="spacing" textLength="200.4229" x="151" y="592.502">+handlesLegalReview : Boolean</text></g><!--class AccessGroup--><g id="elem_AccessGroup"><rect codeLine="30" fill="#F1F1F1" height="103.5313" id="AccessGroup" rx="2.5" ry="2.5" style="stroke:#181818;stroke-width:0.5;" width="147.7959" x="321" y="261.6094"/><ellipse cx="337.0709" cy="282.9609" fill="#ADD1B2" rx="11" ry="11" style="stroke:#181818;stroke-width:1.0;"/><path d="M339.8366,278.8359 Q339.9928,278.6172 340.1803,278.5078 Q340.3678,278.3984 340.5866,278.3984 Q340.9616,278.3984 341.1959,278.6641 Q341.4303,278.9141 341.4303,279.5234 L341.4303,280.9766 Q341.4303,281.5859 341.1959,281.8516 Q340.9616,282.1172 340.5866,282.1172 Q340.2428,282.1172 340.0397,281.9141 Q339.8366,281.7266 339.7272,281.2109 Q339.6803,280.8516 339.4928,280.6641 Q339.1647,280.2891 338.5553,280.0703 Q337.9459,279.8516 337.3209,279.8516 Q336.5553,279.8516 335.9147,280.1797 Q335.2897,280.5078 334.7897,281.2578 Q334.3053,282.0078 334.3053,283.0391 L334.3053,284.1328 Q334.3053,285.3672 335.1959,286.1953 Q336.0866,287.0078 337.6803,287.0078 Q338.6178,287.0078 339.2741,286.7578 Q339.6647,286.6016 340.0866,286.1641 Q340.3522,285.8984 340.4928,285.8203 Q340.6491,285.7422 340.8522,285.7422 Q341.1803,285.7422 341.4303,286.0078 Q341.6959,286.2578 341.6959,286.6016 Q341.6959,286.9453 341.3522,287.3516 Q340.8522,287.9297 340.0553,288.2578 Q338.9772,288.7109 337.6803,288.7109 Q336.1647,288.7109 334.9616,288.0859 Q333.9772,287.5859 333.2897,286.5234 Q332.6022,285.4453 332.6022,284.1641 L332.6022,283.0078 Q332.6022,281.6797 333.2116,280.5391 Q333.8366,279.3828 334.9303,278.7734 Q336.0241,278.1484 337.2584,278.1484 Q337.9928,278.1484 338.6334,278.3203 Q339.2897,278.4766 339.8366,278.8359 Z " fill="#000000"/><text fill="#000000" font-family="sans-serif" font-size="12" font-style="italic" lengthAdjust="spacing" textLength="117.416" x="349.3089" y="279.0664">&#171;ident.access_group&#187;</text><text fill="#000000" font-family="sans-serif" font-size="14" lengthAdjust="spacing" textLength="84.0342" x="365.9999" y="296.2363">AccessGroup</text><line style="stroke:#181818;stroke-width:0.5;" x1="322" x2="467.7959" y1="304.3125" y2="304.3125"/><text fill="#000000" font-family="sans-serif" font-size="14" lengthAdjust="spacing" textLength="64.9619" x="327" y="322.8457">+id : UUID</text><text fill="#000000" font-family="sans-serif" font-size="14" lengthAdjust="spacing" textLength="91.4375" x="327" y="340.4551">+name : String</text><text fill="#000000" font-family="sans-serif" font-size="14" lengthAdjust="spacing" textLength="135.7959" x="327" y="358.0645">+externalRef : String?</text></g><g id="elem_GMN10"><path d="M530,86.1094 L530,119.6094 L495.12,123.6094 L530,127.6094 L530,161.5156 A0,0 0 0 0 530,161.5156 L800.2725,161.5156 A0,0 0 0 0 800.2725,161.5156 L800.2725,96.1094 L790.2725,86.1094 L530,86.1094 A0,0 0 0 0 530,86.1094 " fill="#FEFFDD" style="stroke:#181818;stroke-width:0.5;"/><path d="M790.2725,86.1094 L790.2725,96.1094 L800.2725,96.1094 L790.2725,86.1094 " fill="#FEFFDD" style="stroke:#181818;stroke-width:0.5;"/><text fill="#000000" font-family="sans-serif" font-size="13" lengthAdjust="spacing" textLength="236.2598" x="536" y="104.6045">keycloakId is set by UserCreationService</text><text fill="#000000" font-family="sans-serif" font-size="13" lengthAdjust="spacing" textLength="249.2725" x="536" y="120.9561">after a successful Keycloak Admin API call.</text><text fill="#000000" font-family="sans-serif" font-size="13" lengthAdjust="spacing" textLength="231.9624" x="536" y="137.3076">Local rollback deletes the Keycloak user</text><text fill="#000000" font-family="sans-serif" font-size="13" lengthAdjust="spacing" textLength="170.5234" x="536" y="153.6592">to keep both systems in sync.</text></g><g id="elem_GMN13"><path d="M111.5,659.6094 L111.5,751.3672 A0,0 0 0 0 111.5,751.3672 L390.8306,751.3672 A0,0 0 0 0 390.8306,751.3672 L390.8306,669.6094 L380.8306,659.6094 L219.67,659.6094 L215.67,599.7894 L211.67,659.6094 L111.5,659.6094 A0,0 0 0 0 111.5,659.6094 " fill="#FEFFDD" style="stroke:#181818;stroke-width:0.5;"/><path d="M380.8306,659.6094 L380.8306,669.6094 L390.8306,669.6094 L380.8306,659.6094 " fill="#FEFFDD" style="stroke:#181818;stroke-width:0.5;"/><text fill="#000000" font-family="sans-serif" font-size="13" lengthAdjust="spacing" textLength="256.877" x="117.5" y="678.1045">handlesLegalReview = true makes members</text><text fill="#000000" font-family="sans-serif" font-size="13" lengthAdjust="spacing" textLength="228.3442" x="117.5" y="694.4561">selectable on Document.legalReviewer.</text><text fill="#000000" font-family="sans-serif" font-size="13" lengthAdjust="spacing" textLength="258.3306" x="117.5" y="710.8076">A document with requiresLegalReview = true</text><text fill="#000000" font-family="sans-serif" font-size="13" lengthAdjust="spacing" textLength="250.0342" x="117.5" y="727.1592">forces the workflow engine to add a parallel</text><text fill="#000000" font-family="sans-serif" font-size="13" lengthAdjust="spacing" textLength="100.439" x="117.5" y="743.5107">legal review step.</text></g><!--link UserProfile to Department--><g id="link_UserProfile_Department"><path codeLine="37" d="M262.33,201.8594 C262.33,266.5394 262.33,352.2894 262.33,419.3294 " fill="none" id="UserProfile-to-Department" style="stroke:#181818;stroke-width:1.0;"/><polygon fill="#181818" points="262.33,425.3294,266.33,416.3294,262.33,420.3294,258.33,416.3294,262.33,425.3294" style="stroke:#181818;stroke-width:1.0;"/><text fill="#000000" font-family="sans-serif" font-size="13" lengthAdjust="spacing" textLength="65.7617" x="196.33" y="328.0945">department</text><text fill="#000000" font-family="sans-serif" font-size="13" lengthAdjust="spacing" textLength="31.7891" x="230.9464" y="223.5748">many</text><text fill="#000000" font-family="sans-serif" font-size="13" lengthAdjust="spacing" textLength="7.23" x="255.9946" y="414.6528">1</text></g><!--link Department to UserProfile--><g id="link_Department_UserProfile"><path codeLine="41" d="M203.67,425.3094 C203.67,358.2194 203.67,272.3894 203.67,207.7094 " fill="none" id="Department-to-UserProfile" style="stroke:#181818;stroke-width:1.0;"/><polygon fill="#181818" points="203.67,201.7094,199.67,210.7094,203.67,206.7094,207.67,210.7094,203.67,201.7094" style="stroke:#181818;stroke-width:1.0;"/><text fill="#000000" font-family="sans-serif" font-size="13" lengthAdjust="spacing" textLength="51.3081" x="151.67" y="310.0045">manager</text><text fill="#000000" font-family="sans-serif" font-size="13" lengthAdjust="spacing" textLength="21.6836" x="177.7114" y="414.6311">0..1</text><text fill="#000000" font-family="sans-serif" font-size="13" lengthAdjust="spacing" textLength="21.6836" x="177.1669" y="223.4105">0..1</text></g><!--link UserProfile to AccessGroup--><g id="link_UserProfile_AccessGroup"><path codeLine="38" d="M395,201.7094 C395,221.8794 395,243.0894 395,261.5594 " fill="none" id="UserProfile-AccessGroup" style="stroke:#181818;stroke-width:1.0;"/><text fill="#000000" font-family="sans-serif" font-size="13" lengthAdjust="spacing" textLength="39.749" x="452.7163" y="212.1345">groups</text><text fill="#000000" font-family="sans-serif" font-size="13" lengthAdjust="spacing" textLength="153.1816" x="396" y="228.4861">(user_group_membership)</text><text fill="#000000" font-family="sans-serif" font-size="13" lengthAdjust="spacing" textLength="31.7891" x="376.2615" y="223.4105">many</text><text fill="#000000" font-family="sans-serif" font-size="13" lengthAdjust="spacing" textLength="31.7891" x="361.8901" y="250.6676">many</text></g><!--link AccessGroup to Department--><g id="link_AccessGroup_Department"><path codeLine="39" d="M333,365.6294 C333,383.9494 333,399.0594 333,419.4694 " fill="none" id="AccessGroup-to-Department" style="stroke:#181818;stroke-width:1.0;"/><polygon fill="#181818" points="333,425.4694,337,416.4694,333,420.4694,329,416.4694,333,425.4694" style="stroke:#181818;stroke-width:1.0;"/><text fill="#000000" font-family="sans-serif" font-size="13" lengthAdjust="spacing" textLength="65.7617" x="334" y="392.0445">department</text><text fill="#000000" font-family="sans-serif" font-size="13" lengthAdjust="spacing" textLength="31.7891" x="292.6152" y="386.4894">many</text><text fill="#000000" font-family="sans-serif" font-size="13" lengthAdjust="spacing" textLength="21.6836" x="340.9604" y="414.8048">0..1</text></g><!--link Department to Department--><g id="link_Department_Department"><path codeLine="40" d="M345,425.4394 C345,408.3594 345,395.6094 345,395.6094 C345,395.6094 373.75,395.6094 373.75,395.6094 C373.75,395.6094 373.75,629.6094 373.75,629.6094 C373.75,629.6094 286.33,629.6094 286.33,629.6094 C286.33,629.6094 286.33,622.8594 286.33,605.7794 " fill="none" id="Department-to-Department" style="stroke:#181818;stroke-width:1.0;"/><polygon fill="#181818" points="286.33,599.7794,282.33,608.7794,286.33,604.7794,290.33,608.7794,286.33,599.7794" style="stroke:#181818;stroke-width:1.0;"/><text fill="#000000" font-family="sans-serif" font-size="13" lengthAdjust="spacing" textLength="36.8608" x="379.75" y="533.4345">parent</text><text fill="#000000" font-family="sans-serif" font-size="13" lengthAdjust="spacing" textLength="31.7891" x="320.7618" y="414.7723">many</text><text fill="#000000" font-family="sans-serif" font-size="13" lengthAdjust="spacing" textLength="21.6836" x="267.397" y="621.1716">0..1</text></g><!--SRC=[bLLBRjim4Dth58CicgH5x7Jhf2wKo4s5E1_4JbS50feQsOGeKYMfkEe7w25wabwXD-b9EgGSMqdJdpSYXsyUvpsIusqOVVyccONJimdy-F8LqWoL4ww19y0uHsiXqoKJAjg6YQuDnm4KsYxOdbW1-zRmlaVq2-qaVJAyxGT8VmrPVPxs2aSyfzXmgLa1me9R8DZ02pe7PsgtW5mRu0P3CfFs04uz6vJ266qiL4RdGY8H6RsqK6236SmQFmYqQGOxrzTfijkB8bi8LJ73Ik0aqiRE6J6h7QPSguduWB3VWL3nw9gAAZ5keQC5bGzOLkH5YUKCZOr8XKH8WY5GwWpb0yzOMHtS-RPptwVTA0ermBL5SzbgWCF3iDohANQp4ZOSmiS8u1c830RWbOHPHruR1JWKmrUdu3GLS7dO5yE0ouIj96lEMOa4d91WDGyBI5NB-o6ZvGOK-4x65qVn-2PEpj9p-0J9w7AwdeoIT7fnHOFZY_FfLNfqJRFrjjOnLzlxPF7nD7qpyZJf93uQZvA0_dndH8Bakoj9_zg7R1twZGlg5raPMcv4vOHMwuMNZvNKnZXJgN9eRfbyJVVEBzEyJQ2gt8G0iQFeHPvRT0bpE1Kbje05Kvb4EyOvarTuAt19m2DDBZArqHM7ypynkgxMmjexSJFtmN-MXk-fKEMtoZlIQ9zjsDlR0uEIUTbs8Ihh8__vYxetSQjagjaYbY5iFT_gdiq0DgVoUChTg2jy046hVQjsmkKEivlLGwA2TwCkkhlxVg_tXm8wyRyaqV1XGelg97Jb383us1nD52dj48oOBvplIXqG7Kld7LB_eYlYUu-771iCnp6XooMuXxASpWyOs3f8pMkvwNrnLb8FYIzJu4pA7g77caR-ISePumLfbkYmxP3hB6ybGUd95uWLp3IrIzjOXwK5ehEDuhq8LGPUmKe7WPmklP2D5SJno5r-uHimaWq5xNlNyu0qIkIEpSWZUcE9vhMdwCbD9Xel8AQ_YdODbe8AC_Yk5kQnBGXCJPwlr2srANAfbu1gJYtOgsDPHhxvjYmbIeA7pOWna93UgYFp9m00]--></g></svg>