<svg xmlns="http://www.w3.org/2000/svg" xmlns:xlink="http://www.w3.org/1999/xlink" contentStyleType="text/css" height="1859px" preserveAspectRatio="none" style="width:2472px;height:1859px;background:#FFFFFF;" version="1.1" viewBox="0 0 2472 1859" width="2472px" zoomAndPan="magnify"><title>Sequence &#8212; Document upload, AI enrichment, search indexing</title><defs/><g><text fill="#000000" font-family="sans-serif" font-size="14" font-weight="bold" lengthAdjust="spacing" textLength="422.0781" x="1021.4431" y="29.5332">Sequence &#8212; Document upload, AI enrichment, search indexing</text><rect fill="#FFFFFF" height="329.5156" style="stroke:#181818;stroke-width:1.0;" width="10" x="1561.1094" y="892.6172"/><rect fill="none" height="79.0547" style="stroke:#000000;stroke-width:1.5;" width="305.2056" x="570.3286" y="306.5859"/><line style="stroke:#181818;stroke-width:0.5;stroke-dasharray:5.0,5.0;" x1="26" x2="26" y1="124.8281" y2="1762.1094"/><line style="stroke:#181818;stroke-width:0.5;stroke-dasharray:5.0,5.0;" x1="298.5864" x2="298.5864" y1="124.8281" y2="1762.1094"/><line style="stroke:#181818;stroke-width:0.5;stroke-dasharray:5.0,5.0;" x1="671.3286" x2="671.3286" y1="124.8281" y2="1762.1094"/><line style="stroke:#181818;stroke-width:0.5;stroke-dasharray:5.0,5.0;" x1="845.0859" x2="845.0859" y1="124.8281" y2="1762.1094"/><line style="stroke:#181818;stroke-width:0.5;stroke-dasharray:5.0,5.0;" x1="946.5342" x2="946.5342" y1="124.8281" y2="1762.1094"/><line style="stroke:#181818;stroke-width:0.5;stroke-dasharray:5.0,5.0;" x1="1069.7061" x2="1069.7061" y1="124.8281" y2="1762.1094"/><line style="stroke:#181818;stroke-width:0.5;stroke-dasharray:5.0,5.0;" x1="1164.9678" x2="1164.9678" y1="124.8281" y2="1762.1094"/><line style="stroke:#181818;stroke-width:0.5;stroke-dasharray:5.0,5.0;" x1="1340.7705" x2="1340.7705" y1="124.8281" y2="1762.1094"/><line style="stroke:#181818;stroke-width:0.5;stroke-dasharray:5.0,5.0;" x1="1565.7544" x2="1565.7544" y1="124.8281" y2="1762.1094"/><line style="stroke:#181818;stroke-width:0.5;stroke-dasharray:5.0,5.0;" x1="1827.811" x2="1827.811" y1="124.8281" y2="1762.1094"/><line style="stroke:#181818;stroke-width:0.5;stroke-dasharray:5.0,5.0;" x1="1979.1001" x2="1979.1001" y1="124.8281" y2="1762.1094"/><line style="stroke:#181818;stroke-width:0.5;stroke-dasharray:5.0,5.0;" x1="2236.8022" x2="2236.8022" y1="124.8281" y2="1762.1094"/><line style="stroke:#181818;stroke-width:0.5;stroke-dasharray:5.0,5.0;" x1="2360.167" x2="2360.167" y1="124.8281" y2="1762.1094"/><text fill="#000000" font-family="sans-serif" font-size="14" lengthAdjust="spacing" textLength="36.5723" x="5" y="121.752">Editor</text><ellipse cx="26.2861" cy="55.7188" fill="#E2E2F0" rx="8" ry="8" style="stroke:#181818;stroke-width:0.5;"/><path d="M26.2861,63.7188 L26.2861,90.7188 M13.2861,71.7188 L39.2861,71.7188 M26.2861,90.7188 L13.2861,105.7188 M26.2861,90.7188 L39.2861,105.7188 " fill="none" style="stroke:#181818;stroke-width:0.5;"/><text fill="#000000" font-family="sans-serif" font-size="14" lengthAdjust="spacing" textLength="36.5723" x="5" y="1775.6426">Editor</text><ellipse cx="26.2861" cy="1787.2188" fill="#E2E2F0" rx="8" ry="8" style="stroke:#181818;stroke-width:0.5;"/><path d="M26.2861,1795.2188 L26.2861,1822.2188 M13.2861,1803.2188 L39.2861,1803.2188 M26.2861,1822.2188 L13.2861,1837.2188 M26.2861,1822.2188 L39.2861,1837.2188 " fill="none" style="stroke:#181818;stroke-width:0.5;"/><rect fill="#E2E2F0" height="49.2188" rx="2.5" ry="2.5" style="stroke:#181818;stroke-width:0.5;" width="81.7031" x="258.5864" y="74.6094"/><text fill="#000000" font-family="sans-serif" font-size="14" lengthAdjust="spacing" textLength="67.7031" x="265.5864" y="96.1426">kosha-web</text><text fill="#000000" font-family="sans-serif" font-size="14" lengthAdjust="spacing" textLength="64.5723" x="267.1519" y="113.752">(SvelteKit)</text><rect fill="#E2E2F0" height="49.2188" rx="2.5" ry="2.5" style="stroke:#181818;stroke-width:0.5;" width="81.7031" x="258.5864" y="1761.1094"/><text fill="#000000" font-family="sans-serif" font-size="14" lengthAdjust="spacing" textLength="67.7031" x="265.5864" y="1782.6426">kosha-web</text><text fill="#000000" font-family="sans-serif" font-size="14" lengthAdjust="spacing" textLength="64.5723" x="267.1519" y="1800.252">(SvelteKit)</text><rect fill="#E2E2F0" height="31.6094" rx="2.5" ry="2.5" style="stroke:#181818;stroke-width:0.5;" width="182.8613" x="580.3286" y="92.2188"/><text fill="#000000" font-family="sans-serif" font-size="14" lengthAdjust="spacing" textLength="168.8613" x="587.3286" y="113.752">DocumentUploadController</text><rect fill="#E2E2F0" height="31.6094" rx="2.5" ry="2.5" style="stroke:#181818;stroke-width:0.5;" width="182.8613" x="580.3286" y="1761.1094"/><text fill="#000000" font-family="sans-serif" font-size="14" lengthAdjust="spacing" textLength="168.8613" x="587.3286" y="1782.6426">DocumentUploadController</text><rect fill="#E2E2F0" height="31.6094" rx="2.5" ry="2.5" style="stroke:#181818;stroke-width:0.5;" width="40.4482" x="825.0859" y="92.2188"/><text fill="#000000" font-family="sans-serif" font-size="14" lengthAdjust="spacing" textLength="26.4482" x="832.0859" y="113.752">Tika</text><rect fill="#E2E2F0" height="31.6094" rx="2.5" ry="2.5" style="stroke:#181818;stroke-width:0.5;" width="40.4482" x="825.0859" y="1761.1094"/><text fill="#000000" font-family="sans-serif" font-size="14" lengthAdjust="spacing" textLength="26.4482" x="832.0859" y="1782.6426">Tika</text><rect fill="#E2E2F0" height="31.6094" rx="2.5" ry="2.5" style="stroke:#181818;stroke-width:0.5;" width="143.1719" x="875.5342" y="92.2188"/><text fill="#000000" font-family="sans-serif" font-size="14" lengthAdjust="spacing" textLength="129.1719" x="882.5342" y="113.752">MinioStorageService</text><rect fill="#E2E2F0" height="31.6094" rx="2.5" ry="2.5" style="stroke:#181818;stroke-width:0.5;" width="143.1719" x="875.5342" y="1761.1094"/><text fill="#000000" font-family="sans-serif" font-size="14" lengthAdjust="spacing" textLength="129.1719" x="882.5342" y="1782.6426">MinioStorageService</text><text fill="#000000" font-family="sans-serif" font-size="14" lengthAdjust="spacing" textLength="76.2617" x="1028.7061" y="104.1426">PostgreSQL</text><text fill="#000000" font-family="sans-serif" font-size="14" lengthAdjust="spacing" textLength="41.2344" x="1046.2197" y="121.752">(doc.*)</text><path d="M1051.8369,53.6094 C1051.8369,43.6094 1069.8369,43.6094 1069.8369,43.6094 C1069.8369,43.6094 1087.8369,43.6094 1087.8369,53.6094 L1087.8369,79.6094 C1087.8369,89.6094 1069.8369,89.6094 1069.8369,89.6094 C1069.8369,89.6094 1051.8369,89.6094 1051.8369,79.6094 L1051.8369,53.6094 " fill="#E2E2F0" style="stroke:#181818;stroke-width:1.5;"/><path d="M1051.8369,53.6094 C1051.8369,63.6094 1069.8369,63.6094 1069.8369,63.6094 C1069.8369,63.6094 1087.8369,63.6094 1087.8369,53.6094 " fill="none" style="stroke:#181818;stroke-width:1.5;"/><text fill="#000000" font-family="sans-serif" font-size="14" lengthAdjust="spacing" textLength="76.2617" x="1028.7061" y="1775.6426">PostgreSQL</text><text fill="#000000" font-family="sans-serif" font-size="14" lengthAdjust="spacing" textLength="41.2344" x="1046.2197" y="1793.252">(doc.*)</text><path d="M1051.8369,1806.3281 C1051.8369,1796.3281 1069.8369,1796.3281 1069.8369,1796.3281 C1069.8369,1796.3281 1087.8369,1796.3281 1087.8369,1806.3281 L1087.8369,1832.3281 C1087.8369,1842.3281 1069.8369,1842.3281 1069.8369,1842.3281 C1069.8369,1842.3281 1051.8369,1842.3281 1051.8369,1832.3281 L1051.8369,1806.3281 " fill="#E2E2F0" style="stroke:#181818;stroke-width:1.5;"/><path d="M1051.8369,1806.3281 C1051.8369,1816.3281 1069.8369,1816.3281 1069.8369,1816.3281 C1069.8369,1816.3281 1087.8369,1816.3281 1087.8369,1806.3281 " fill="none" style="stroke:#181818;stroke-width:1.5;"/><rect fill="#E2E2F0" height="31.6094" rx="2.5" ry="2.5" style="stroke:#181818;stroke-width:0.5;" width="89.4688" x="1120.9678" y="92.2188"/><text fill="#000000" font-family="sans-serif" font-size="14" lengthAdjust="spacing" textLength="75.4688" x="1127.9678" y="113.752">NatsService</text><rect fill="#E2E2F0" height="31.6094" rx="2.5" ry="2.5" style="stroke:#181818;stroke-width:0.5;" width="89.4688" x="1120.9678" y="1761.1094"/><text fill="#000000" font-family="sans-serif" font-size="14" lengthAdjust="spacing" textLength="75.4688" x="1127.9678" y="1782.6426">NatsService</text><path d="M1283.7705,97.2188 L1398.7979,97.2188 C1403.7979,97.2188 1403.7979,111.0234 1403.7979,111.0234 C1403.7979,111.0234 1403.7979,124.8281 1398.7979,124.8281 L1283.7705,124.8281 C1278.7705,124.8281 1278.7705,111.0234 1278.7705,111.0234 C1278.7705,111.0234 1278.7705,97.2188 1283.7705,97.2188 " fill="#E2E2F0" style="stroke:#181818;stroke-width:0.5;"/><path d="M1398.7979,97.2188 C1393.7979,97.2188 1393.7979,111.0234 1393.7979,111.0234 C1393.7979,124.8281 1398.7979,124.8281 1398.7979,124.8281 " fill="none" style="stroke:#181818;stroke-width:0.5;"/><text fill="#000000" font-family="sans-serif" font-size="14" lengthAdjust="spacing" textLength="105.0273" x="1283.7705" y="116.752">NATS JetStream</text><path d="M1283.7705,1761.1094 L1398.7979,1761.1094 C1403.7979,1761.1094 1403.7979,1774.9141 1403.7979,1774.9141 C1403.7979,1774.9141 1403.7979,1788.7188 1398.7979,1788.7188 L1283.7705,1788.7188 C1278.7705,1788.7188 1278.7705,1774.9141 1278.7705,1774.9141 C1278.7705,1774.9141 1278.7705,1761.1094 1283.7705,1761.1094 " fill="#E2E2F0" style="stroke:#181818;stroke-width:0.5;"/><path d="M1398.7979,1761.1094 C1393.7979,1761.1094 1393.7979,1774.9141 1393.7979,1774.9141 C1393.7979,1788.7188 1398.7979,1788.7188 1398.7979,1788.7188 " fill="none" style="stroke:#181818;stroke-width:0.5;"/><text fill="#000000" font-family="sans-serif" font-size="14" lengthAdjust="spacing" textLength="105.0273" x="1283.7705" y="1780.6426">NATS JetStream</text><rect fill="#E2E2F0" height="49.2188" rx="2.5" ry="2.5" style="stroke:#181818;stroke-width:0.5;" width="116.71" x="1507.7544" y="74.6094"/><text fill="#000000" font-family="sans-serif" font-size="14" lengthAdjust="spacing" textLength="102.71" x="1514.7544" y="96.1426">kosha-ai-sidecar</text><text fill="#000000" font-family="sans-serif" font-size="14" lengthAdjust="spacing" textLength="52.9102" x="1539.6543" y="113.752">(Python)</text><rect fill="#E2E2F0" height="49.2188" rx="2.5" ry="2.5" style="stroke:#181818;stroke-width:0.5;" width="116.71" x="1507.7544" y="1761.1094"/><text fill="#000000" font-family="sans-serif" font-size="14" lengthAdjust="spacing" textLength="102.71" x="1514.7544" y="1782.6426">kosha-ai-sidecar</text><text fill="#000000" font-family="sans-serif" font-size="14" lengthAdjust="spacing" textLength="52.9102" x="1539.6543" y="1800.252">(Python)</text><rect fill="#E2E2F0" height="49.2188" rx="2.5" ry="2.5" style="stroke:#181818;stroke-width:0.5;" width="167.2891" x="1744.811" y="74.6094"/><text fill="#000000" font-family="sans-serif" font-size="14" lengthAdjust="spacing" textLength="81.7031" x="1787.604" y="96.1426">LLM provider</text><text fill="#000000" font-family="sans-serif" font-size="14" lengthAdjust="spacing" textLength="153.2891" x="1751.811" y="113.752">(Ollama/Claude/OpenAI)</text><rect fill="#E2E2F0" height="49.2188" rx="2.5" ry="2.5" style="stroke:#181818;stroke-width:0.5;" width="167.2891" x="1744.811" y="1761.1094"/><text fill="#000000" font-family="sans-serif" font-size="14" lengthAdjust="spacing" textLength="81.7031" x="1787.604" y="1782.6426">LLM provider</text><text fill="#000000" font-family="sans-serif" font-size="14" lengthAdjust="spacing" textLength="153.2891" x="1751.811" y="1800.252">(Ollama/Claude/OpenAI)</text><rect fill="#E2E2F0" height="31.6094" rx="2.5" ry="2.5" style="stroke:#181818;stroke-width:0.5;" width="115.9375" x="1922.1001" y="92.2188"/><text fill="#000000" font-family="sans-serif" font-size="14" lengthAdjust="spacing" textLength="101.9375" x="1929.1001" y="113.752">AiResultListener</text><rect fill="#E2E2F0" height="31.6094" rx="2.5" ry="2.5" style="stroke:#181818;stroke-width:0.5;" width="115.9375" x="1922.1001" y="1761.1094"/><text fill="#000000" font-family="sans-serif" font-size="14" lengthAdjust="spacing" textLength="101.9375" x="1929.1001" y="1782.6426">AiResultListener</text><rect fill="#E2E2F0" height="31.6094" rx="2.5" ry="2.5" style="stroke:#181818;stroke-width:0.5;" width="139.2891" x="2167.8022" y="92.2188"/><text fill="#000000" font-family="sans-serif" font-size="14" lengthAdjust="spacing" textLength="125.2891" x="2174.8022" y="113.752">OpenSearchService</text><rect fill="#E2E2F0" height="31.6094" rx="2.5" ry="2.5" style="stroke:#181818;stroke-width:0.5;" width="139.2891" x="2167.8022" y="1761.1094"/><text fill="#000000" font-family="sans-serif" font-size="14" lengthAdjust="spacing" textLength="125.2891" x="2174.8022" y="1782.6426">OpenSearchService</text><text fill="#000000" font-family="sans-serif" font-size="14" lengthAdjust="spacing" textLength="78.6064" x="2318.167" y="121.752">OpenSearch</text><path d="M2342.4702,71.2188 C2342.4702,61.2188 2360.4702,61.2188 2360.4702,61.2188 C2360.4702,61.2188 2378.4702,61.2188 2378.4702,71.2188 L2378.4702,97.2188 C2378.4702,107.2188 2360.4702,107.2188 2360.4702,107.2188 C2360.4702,107.2188 2342.4702,107.2188 2342.4702,97.2188 L2342.4702,71.2188 " fill="#E2E2F0" style="stroke:#181818;stroke-width:1.5;"/><path d="M2342.4702,71.2188 C2342.4702,81.2188 2360.4702,81.2188 2360.4702,81.2188 C2360.4702,81.2188 2378.4702,81.2188 2378.4702,71.2188 " fill="none" style="stroke:#181818;stroke-width:1.5;"/><text fill="#000000" font-family="sans-serif" font-size="14" lengthAdjust="spacing" textLength="78.6064" x="2318.167" y="1775.6426">OpenSearch</text><path d="M2342.4702,1788.7188 C2342.4702,1778.7188 2360.4702,1778.7188 2360.4702,1778.7188 C2360.4702,1778.7188 2378.4702,1778.7188 2378.4702,1788.7188 L2378.4702,1814.7188 C2378.4702,1824.7188 2360.4702,1824.7188 2360.4702,1824.7188 C2360.4702,1824.7188 2342.4702,1824.7188 2342.4702,1814.7188 L2342.4702,1788.7188 " fill="#E2E2F0" style="stroke:#181818;stroke-width:1.5;"/><path d="M2342.4702,1788.7188 C2342.4702,1798.7188 2360.4702,1798.7188 2360.4702,1798.7188 C2360.4702,1798.7188 2378.4702,1798.7188 2378.4702,1788.7188 " fill="none" style="stroke:#181818;stroke-width:1.5;"/><rect fill="#FFFFFF" height="329.5156" style="stroke:#181818;stroke-width:1.0;" width="10" x="1561.1094" y="892.6172"/><rect fill="#EEEEEE" height="3" style="stroke:#EEEEEE;stroke-width:1.0;" width="2465.9644" x="0" y="156.0039"/><line style="stroke:#000000;stroke-width:1.0;" x1="0" x2="2465.9644" y1="156.0039" y2="156.0039"/><line style="stroke:#000000;stroke-width:1.0;" x1="0" x2="2465.9644" y1="159.0039" y2="159.0039"/><rect fill="#EEEEEE" height="24.3516" style="stroke:#000000;stroke-width:2.0;" width="155.5591" x="1155.2026" y="144.8281"/><text fill="#000000" font-family="sans-serif" font-size="13" font-weight="bold" lengthAdjust="spacing" textLength="137.9473" x="1161.2026" y="162.3232">Upload (synchronous)</text><polygon fill="#181818" points="287.438,197.5313,297.438,201.5313,287.438,205.5313,291.438,201.5313" style="stroke:#181818;stroke-width:1.0;"/><line style="stroke:#181818;stroke-width:1.0;" x1="26.2861" x2="293.438" y1="201.5313" y2="201.5313"/><text fill="#000000" font-family="sans-serif" font-size="13" lengthAdjust="spacing" textLength="172.7007" x="33.2861" y="196.6748">Drop file on document version</text><polygon fill="#181818" points="659.7593,244.2344,669.7593,248.2344,659.7593,252.2344,663.7593,248.2344" style="stroke:#181818;stroke-width:1.0;"/><line style="stroke:#181818;stroke-width:1.0;" x1="299.438" x2="665.7593" y1="248.2344" y2="248.2344"/><text fill="#000000" font-family="sans-serif" font-size="13" lengthAdjust="spacing" textLength="348.3213" x="306.438" y="227.0264">POST /api/v1/documents/{docId}/versions/{versionId}/upload</text><text fill="#000000" font-family="sans-serif" font-size="13" lengthAdjust="spacing" textLength="133.6309" x="306.438" y="243.3779">(multipart, bearer JWT)</text><line style="stroke:#181818;stroke-width:1.0;" x1="671.7593" x2="713.7593" y1="278.5859" y2="278.5859"/><line style="stroke:#181818;stroke-width:1.0;" x1="713.7593" x2="713.7593" y1="278.5859" y2="291.5859"/><line style="stroke:#181818;stroke-width:1.0;" x1="672.7593" x2="713.7593" y1="291.5859" y2="291.5859"/><polygon fill="#181818" points="682.7593,287.5859,672.7593,291.5859,682.7593,295.5859,678.7593,291.5859" style="stroke:#181818;stroke-width:1.0;"/><text fill="#000000" font-family="sans-serif" font-size="13" lengthAdjust="spacing" textLength="134.4116" x="678.7593" y="273.7295">computeSha256(bytes)</text><path d="M570.3286,306.5859 L630.4995,306.5859 L630.4995,314.9375 L620.4995,324.9375 L570.3286,324.9375 L570.3286,306.5859 " fill="#EEEEEE" style="stroke:#000000;stroke-width:1.5;"/><rect fill="none" height="79.0547" style="stroke:#000000;stroke-width:1.5;" width="305.2056" x="570.3286" y="306.5859"/><text fill="#000000" font-family="sans-serif" font-size="13" font-weight="bold" lengthAdjust="spacing" textLength="15.1709" x="585.3286" y="321.0811">alt</text><text fill="#000000" font-family="sans-serif" font-size="11" font-weight="bold" lengthAdjust="spacing" textLength="201.083" x="645.4995" y="320.0049">[content-type missing or octet-stream]</text><polygon fill="#181818" points="833.3101,343.2891,843.3101,347.2891,833.3101,351.2891,837.3101,347.2891" style="stroke:#181818;stroke-width:1.0;"/><line style="stroke:#181818;stroke-width:1.0;" x1="671.7593" x2="839.3101" y1="347.2891" y2="347.2891"/><text fill="#000000" font-family="sans-serif" font-size="13" lengthAdjust="spacing" textLength="131.5044" x="678.7593" y="342.4326">detect(bytes, filename)</text><polygon fill="#181818" points="682.7593,373.6406,672.7593,377.6406,682.7593,381.6406,678.7593,377.6406" style="stroke:#181818;stroke-width:1.0;"/><line style="stroke:#181818;stroke-width:1.0;stroke-dasharray:2.0,2.0;" x1="676.7593" x2="844.3101" y1="377.6406" y2="377.6406"/><text fill="#000000" font-family="sans-serif" font-size="13" lengthAdjust="spacing" textLength="60.6772" x="688.7593" y="372.7842">mimeType</text><polygon fill="#181818" points="935.1201,410.9922,945.1201,414.9922,935.1201,418.9922,939.1201,414.9922" style="stroke:#181818;stroke-width:1.0;"/><line style="stroke:#181818;stroke-width:1.0;" x1="671.7593" x2="941.1201" y1="414.9922" y2="414.9922"/><text fill="#000000" font-family="sans-serif" font-size="13" lengthAdjust="spacing" textLength="209.5552" x="678.7593" y="410.1357">put(storageKey, bytes, contentType)</text><path d="M952,427.9922 L952,486.9922 L1236,486.9922 L1236,437.9922 L1226,427.9922 L952,427.9922 " fill="#FEFFDD" style="stroke:#181818;stroke-width:0.5;"/><path d="M1226,427.9922 L1226,437.9922 L1236,437.9922 L1226,427.9922 " fill="#FEFFDD" style="stroke:#181818;stroke-width:0.5;"/><text fill="#000000" font-family="sans-serif" font-size="13" lengthAdjust="spacing" textLength="252.897" x="958" y="446.4873">Fail-fast: storage write failure aborts upload.</text><text fill="#000000" font-family="sans-serif" font-size="13" lengthAdjust="spacing" textLength="263.7197" x="958" y="462.8389">Once bytes are in MinIO, downstream failures</text><text fill="#000000" font-family="sans-serif" font-size="13" lengthAdjust="spacing" textLength="259.3906" x="958" y="479.1904">are non-fatal &#8212; version row stays consistent.</text><polygon fill="#181818" points="682.7593,510.3984,672.7593,514.3984,682.7593,518.3984,678.7593,514.3984" style="stroke:#181818;stroke-width:1.0;"/><line style="stroke:#181818;stroke-width:1.0;stroke-dasharray:2.0,2.0;" x1="676.7593" x2="946.1201" y1="514.3984" y2="514.3984"/><text fill="#000000" font-family="sans-serif" font-size="13" lengthAdjust="spacing" textLength="13.73" x="688.7593" y="509.542">ok</text><polygon fill="#181818" points="833.3101,540.75,843.3101,544.75,833.3101,548.75,837.3101,544.75" style="stroke:#181818;stroke-width:1.0;"/><line style="stroke:#181818;stroke-width:1.0;" x1="671.7593" x2="839.3101" y1="544.75" y2="544.75"/><text fill="#000000" font-family="sans-serif" font-size="13" lengthAdjust="spacing" textLength="121.3799" x="678.7593" y="539.8936">parseToString(bytes)</text><polygon fill="#181818" points="682.7593,571.1016,672.7593,575.1016,682.7593,579.1016,678.7593,575.1016" style="stroke:#181818;stroke-width:1.0;"/><line style="stroke:#181818;stroke-width:1.0;stroke-dasharray:2.0,2.0;" x1="676.7593" x2="844.3101" y1="575.1016" y2="575.1016"/><text fill="#000000" font-family="sans-serif" font-size="13" lengthAdjust="spacing" textLength="149.5508" x="688.7593" y="570.2451">extractedText (best-effort)</text><polygon fill="#181818" points="1057.8369,601.4531,1067.8369,605.4531,1057.8369,609.4531,1061.8369,605.4531" style="stroke:#181818;stroke-width:1.0;"/><line style="stroke:#181818;stroke-width:1.0;" x1="671.7593" x2="1063.8369" y1="605.4531" y2="605.4531"/><text fill="#000000" font-family="sans-serif" font-size="13" lengthAdjust="spacing" textLength="216.7915" x="678.7593" y="600.5967">save VersionMetadata{extractedText}</text><polygon fill="#181818" points="1057.8369,631.8047,1067.8369,635.8047,1057.8369,639.8047,1061.8369,635.8047" style="stroke:#181818;stroke-width:1.0;"/><line style="stroke:#181818;stroke-width:1.0;" x1="671.7593" x2="1063.8369" y1="635.8047" y2="635.8047"/><text fill="#000000" font-family="sans-serif" font-size="13" lengthAdjust="spacing" textLength="365.6694" x="678.7593" y="630.9482">update DocumentVersion{size, hash, storageKey, contentType}</text><polygon fill="#181818" points="1153.7021,662.1563,1163.7021,666.1563,1153.7021,670.1563,1157.7021,666.1563" style="stroke:#181818;stroke-width:1.0;"/><line style="stroke:#181818;stroke-width:1.0;" x1="671.7593" x2="1159.7021" y1="666.1563" y2="666.1563"/><text fill="#000000" font-family="sans-serif" font-size="13" lengthAdjust="spacing" textLength="370.4365" x="678.7593" y="661.2998">publishAiTask(AiTaskMessage{taskType=FULL_ANALYSIS, &#8230;})</text><polygon fill="#181818" points="1329.2842,692.5078,1339.2842,696.5078,1329.2842,700.5078,1333.2842,696.5078" style="stroke:#181818;stroke-width:1.0;"/><line style="stroke:#181818;stroke-width:1.0;" x1="1165.7021" x2="1335.2842" y1="696.5078" y2="696.5078"/><text fill="#000000" font-family="sans-serif" font-size="13" lengthAdjust="spacing" textLength="151.582" x="1172.7021" y="691.6514">publish "ai.task.submitted"</text><polygon fill="#181818" points="2225.4468,722.8594,2235.4468,726.8594,2225.4468,730.8594,2229.4468,726.8594" style="stroke:#181818;stroke-width:1.0;"/><line style="stroke:#181818;stroke-width:1.0;" x1="671.7593" x2="2231.4468" y1="726.8594" y2="726.8594"/><text fill="#000000" font-family="sans-serif" font-size="13" lengthAdjust="spacing" textLength="199.4307" x="678.7593" y="722.0029">indexDocument(initial, no tags yet)</text><polygon fill="#181818" points="2348.4702,753.2109,2358.4702,757.2109,2348.4702,761.2109,2352.4702,757.2109" style="stroke:#181818;stroke-width:1.0;"/><line style="stroke:#181818;stroke-width:1.0;" x1="2237.4468" x2="2354.4702" y1="757.2109" y2="757.2109"/><text fill="#000000" font-family="sans-serif" font-size="13" lengthAdjust="spacing" textLength="99.0234" x="2244.4468" y="752.3545">index/update doc</text><polygon fill="#181818" points="310.438,783.5625,300.438,787.5625,310.438,791.5625,306.438,787.5625" style="stroke:#181818;stroke-width:1.0;"/><line style="stroke:#181818;stroke-width:1.0;stroke-dasharray:2.0,2.0;" x1="304.438" x2="670.7593" y1="787.5625" y2="787.5625"/><text fill="#000000" font-family="sans-serif" font-size="13" lengthAdjust="spacing" textLength="303.5195" x="316.438" y="782.7061">200 ApiResponse{versionId, hash, aiTaskSubmitted}</text><polygon fill="#181818" points="37.2861,813.9141,27.2861,817.9141,37.2861,821.9141,33.2861,817.9141" style="stroke:#181818;stroke-width:1.0;"/><line style="stroke:#181818;stroke-width:1.0;stroke-dasharray:2.0,2.0;" x1="31.2861" x2="298.438" y1="817.9141" y2="817.9141"/><text fill="#000000" font-family="sans-serif" font-size="13" lengthAdjust="spacing" textLength="249.1519" x="43.2861" y="813.0576">"Uploaded &#8212; AI processing in background"</text><rect fill="#EEEEEE" height="3" style="stroke:#EEEEEE;stroke-width:1.0;" width="2465.9644" x="0" y="847.0898"/><line style="stroke:#000000;stroke-width:1.0;" x1="0" x2="2465.9644" y1="847.0898" y2="847.0898"/><line style="stroke:#000000;stroke-width:1.0;" x1="0" x2="2465.9644" y1="850.0898" y2="850.0898"/><rect fill="#EEEEEE" height="24.3516" style="stroke:#000000;stroke-width:2.0;" width="257.458" x="1104.2532" y="835.9141"/><text fill="#000000" font-family="sans-serif" font-size="13" font-weight="bold" lengthAdjust="spacing" textLength="239.8462" x="1110.2532" y="853.4092">AI processing (asynchronous, sidecar)</text><polygon fill="#181818" points="1549.1094,888.6172,1559.1094,892.6172,1549.1094,896.6172,1553.1094,892.6172" style="stroke:#181818;stroke-width:1.0;"/><line style="stroke:#181818;stroke-width:1.0;" x1="1341.2842" x2="1555.1094" y1="892.6172" y2="892.6172"/><text fill="#000000" font-family="sans-serif" font-size="13" lengthAdjust="spacing" textLength="139.4517" x="1348.2842" y="887.7607">deliver ai.task.submitted</text><line style="stroke:#181818;stroke-width:1.0;" x1="1571.1094" x2="1613.1094" y1="922.9688" y2="922.9688"/><line style="stroke:#181818;stroke-width:1.0;" x1="1613.1094" x2="1613.1094" y1="922.9688" y2="935.9688"/><line style="stroke:#181818;stroke-width:1.0;" x1="1572.1094" x2="1613.1094" y1="935.9688" y2="935.9688"/><polygon fill="#181818" points="1582.1094,931.9688,1572.1094,935.9688,1582.1094,939.9688,1578.1094,935.9688" style="stroke:#181818;stroke-width:1.0;"/><text fill="#000000" font-family="sans-serif" font-size="13" lengthAdjust="spacing" textLength="161.1035" x="1578.1094" y="918.1123">OCR (Tesseract) if scanned</text><line style="stroke:#181818;stroke-width:1.0;" x1="1571.1094" x2="1613.1094" y1="966.3203" y2="966.3203"/><line style="stroke:#181818;stroke-width:1.0;" x1="1613.1094" x2="1613.1094" y1="966.3203" y2="979.3203"/><line style="stroke:#181818;stroke-width:1.0;" x1="1572.1094" x2="1613.1094" y1="979.3203" y2="979.3203"/><polygon fill="#181818" points="1582.1094,975.3203,1572.1094,979.3203,1582.1094,983.3203,1578.1094,979.3203" style="stroke:#181818;stroke-width:1.0;"/><text fill="#000000" font-family="sans-serif" font-size="13" lengthAdjust="spacing" textLength="194.3525" x="1578.1094" y="961.4639">NER metadata extraction (spaCy)</text><polygon fill="#181818" points="1816.4556,1005.6719,1826.4556,1009.6719,1816.4556,1013.6719,1820.4556,1009.6719" style="stroke:#181818;stroke-width:1.0;"/><line style="stroke:#181818;stroke-width:1.0;" x1="1571.1094" x2="1822.4556" y1="1009.6719" y2="1009.6719"/><text fill="#000000" font-family="sans-serif" font-size="13" lengthAdjust="spacing" textLength="233.3462" x="1578.1094" y="1004.8154">summarise + extract keywords + classify</text><polygon fill="#181818" points="1582.1094,1036.0234,1572.1094,1040.0234,1582.1094,1044.0234,1578.1094,1040.0234" style="stroke:#181818;stroke-width:1.0;"/><line style="stroke:#181818;stroke-width:1.0;stroke-dasharray:2.0,2.0;" x1="1576.1094" x2="1827.4556" y1="1040.0234" y2="1040.0234"/><text fill="#000000" font-family="sans-serif" font-size="13" lengthAdjust="spacing" textLength="38.2891" x="1588.1094" y="1035.167">results</text><polygon fill="#181818" points="1352.2842,1066.375,1342.2842,1070.375,1352.2842,1074.375,1348.2842,1070.375" style="stroke:#181818;stroke-width:1.0;"/><line style="stroke:#181818;stroke-width:1.0;" x1="1346.2842" x2="1560.1094" y1="1070.375" y2="1070.375"/><text fill="#000000" font-family="sans-serif" font-size="13" lengthAdjust="spacing" textLength="140.188" x="1358.2842" y="1065.5186">publish ai.ocr.completed</text><polygon fill="#181818" points="1352.2842,1096.7266,1342.2842,1100.7266,1352.2842,1104.7266,1348.2842,1100.7266" style="stroke:#181818;stroke-width:1.0;"/><line style="stroke:#181818;stroke-width:1.0;" x1="1346.2842" x2="1560.1094" y1="1100.7266" y2="1100.7266"/><text fill="#000000" font-family="sans-serif" font-size="13" lengthAdjust="spacing" textLength="169.8252" x="1358.2842" y="1095.8701">publish ai.metadata.extracted</text><polygon fill="#181818" points="1352.2842,1127.0781,1342.2842,1131.0781,1352.2842,1135.0781,1348.2842,1131.0781" style="stroke:#181818;stroke-width:1.0;"/><line style="stroke:#181818;stroke-width:1.0;" x1="1346.2842" x2="1560.1094" y1="1131.0781" y2="1131.0781"/><text fill="#000000" font-family="sans-serif" font-size="13" lengthAdjust="spacing" textLength="175.5762" x="1358.2842" y="1126.2217">publish ai.summary.completed</text><polygon fill="#181818" points="1352.2842,1157.4297,1342.2842,1161.4297,1352.2842,1165.4297,1348.2842,1161.4297" style="stroke:#181818;stroke-width:1.0;"/><line style="stroke:#181818;stroke-width:1.0;" x1="1346.2842" x2="1560.1094" y1="1161.4297" y2="1161.4297"/><text fill="#000000" font-family="sans-serif" font-size="13" lengthAdjust="spacing" textLength="170.5298" x="1358.2842" y="1156.5732">publish ai.keywords.extracted</text><polygon fill="#181818" points="1352.2842,1187.7813,1342.2842,1191.7813,1352.2842,1195.7813,1348.2842,1191.7813" style="stroke:#181818;stroke-width:1.0;"/><line style="stroke:#181818;stroke-width:1.0;" x1="1346.2842" x2="1560.1094" y1="1191.7813" y2="1191.7813"/><text fill="#000000" font-family="sans-serif" font-size="13" lengthAdjust="spacing" textLength="195.8252" x="1358.2842" y="1186.9248">publish ai.classification.completed</text><polygon fill="#181818" points="1352.2842,1218.1328,1342.2842,1222.1328,1352.2842,1226.1328,1348.2842,1222.1328" style="stroke:#181818;stroke-width:1.0;"/><line style="stroke:#181818;stroke-width:1.0;" x1="1346.2842" x2="1565.1094" y1="1222.1328" y2="1222.1328"/><text fill="#000000" font-family="sans-serif" font-size="13" lengthAdjust="spacing" textLength="181.3906" x="1358.2842" y="1217.2764">publish ai.taxonomy.candidates</text><rect fill="#EEEEEE" height="3" style="stroke:#EEEEEE;stroke-width:1.0;" width="2465.9644" x="0" y="1251.3086"/><line style="stroke:#000000;stroke-width:1.0;" x1="0" x2="2465.9644" y1="1251.3086" y2="1251.3086"/><line style="stroke:#000000;stroke-width:1.0;" x1="0" x2="2465.9644" y1="1254.3086" y2="1254.3086"/><rect fill="#EEEEEE" height="24.3516" style="stroke:#000000;stroke-width:2.0;" width="284.1436" x="1090.9104" y="1240.1328"/><text fill="#000000" font-family="sans-serif" font-size="13" font-weight="bold" lengthAdjust="spacing" textLength="266.5317" x="1096.9104" y="1257.6279">Result fan-in (kosha-app, AiResultListener)</text><polygon fill="#181818" points="1968.0688,1292.8359,1978.0688,1296.8359,1968.0688,1300.8359,1972.0688,1296.8359" style="stroke:#181818;stroke-width:1.0;"/><line style="stroke:#181818;stroke-width:1.0;" x1="1341.2842" x2="1974.0688" y1="1296.8359" y2="1296.8359"/><text fill="#000000" font-family="sans-serif" font-size="13" lengthAdjust="spacing" textLength="130.7681" x="1348.2842" y="1291.9795">ai.summary.completed</text><polygon fill="#181818" points="1080.8369,1323.1875,1070.8369,1327.1875,1080.8369,1331.1875,1076.8369,1327.1875" style="stroke:#181818;stroke-width:1.0;"/><line style="stroke:#181818;stroke-width:1.0;" x1="1074.8369" x2="1979.0688" y1="1327.1875" y2="1327.1875"/><text fill="#000000" font-family="sans-serif" font-size="13" lengthAdjust="spacing" textLength="283.2642" x="1086.8369" y="1322.3311">upsert VersionMetadata{summary, aiConfidence}</text><polygon fill="#181818" points="1968.0688,1353.5391,1978.0688,1357.5391,1968.0688,1361.5391,1972.0688,1357.5391" style="stroke:#181818;stroke-width:1.0;"/><line style="stroke:#181818;stroke-width:1.0;" x1="1341.2842" x2="1974.0688" y1="1357.5391" y2="1357.5391"/><text fill="#000000" font-family="sans-serif" font-size="13" lengthAdjust="spacing" textLength="125.7217" x="1348.2842" y="1352.6826">ai.keywords.extracted</text><polygon fill="#181818" points="1080.8369,1383.8906,1070.8369,1387.8906,1080.8369,1391.8906,1076.8369,1387.8906" style="stroke:#181818;stroke-width:1.0;"/><line style="stroke:#181818;stroke-width:1.0;" x1="1074.8369" x2="1979.0688" y1="1387.8906" y2="1387.8906"/><text fill="#000000" font-family="sans-serif" font-size="13" lengthAdjust="spacing" textLength="207.3716" x="1086.8369" y="1383.0342">replace tax.extracted_keyword rows</text><polygon fill="#181818" points="1968.0688,1414.2422,1978.0688,1418.2422,1968.0688,1422.2422,1972.0688,1418.2422" style="stroke:#181818;stroke-width:1.0;"/><line style="stroke:#181818;stroke-width:1.0;" x1="1341.2842" x2="1974.0688" y1="1418.2422" y2="1418.2422"/><text fill="#000000" font-family="sans-serif" font-size="13" lengthAdjust="spacing" textLength="151.0171" x="1348.2842" y="1413.3857">ai.classification.completed</text><polygon fill="#181818" points="1080.8369,1444.5938,1070.8369,1448.5938,1080.8369,1452.5938,1076.8369,1448.5938" style="stroke:#181818;stroke-width:1.0;"/><line style="stroke:#181818;stroke-width:1.0;" x1="1074.8369" x2="1979.0688" y1="1448.5938" y2="1448.5938"/><text fill="#000000" font-family="sans-serif" font-size="13" lengthAdjust="spacing" textLength="259.3843" x="1086.8369" y="1443.7373">upsert tax.document_classification (per term)</text><polygon fill="#181818" points="2225.4468,1474.9453,2235.4468,1478.9453,2225.4468,1482.9453,2229.4468,1478.9453" style="stroke:#181818;stroke-width:1.0;"/><line style="stroke:#181818;stroke-width:1.0;" x1="1980.0688" x2="2231.4468" y1="1478.9453" y2="1478.9453"/><text fill="#000000" font-family="sans-serif" font-size="13" lengthAdjust="spacing" textLength="233.3779" x="1987.0688" y="1474.0889">reindexDocumentWithTags(documentId)</text><path d="M2242,1491.9453 L2242,1533.9453 L2460,1533.9453 L2460,1501.9453 L2450,1491.9453 L2242,1491.9453 " fill="#FEFFDD" style="stroke:#181818;stroke-width:0.5;"/><path d="M2450,1491.9453 L2450,1501.9453 L2460,1501.9453 L2450,1491.9453 " fill="#FEFFDD" style="stroke:#181818;stroke-width:0.5;"/><text fill="#000000" font-family="sans-serif" font-size="13" lengthAdjust="spacing" textLength="197.9644" x="2248" y="1510.4404">Re-emits the document with `tags`</text><text fill="#000000" font-family="sans-serif" font-size="13" lengthAdjust="spacing" textLength="190.7407" x="2248" y="1526.792">so term-faceted search returns it.</text><polygon fill="#181818" points="1968.0688,1558,1978.0688,1562,1968.0688,1566,1972.0688,1562" style="stroke:#181818;stroke-width:1.0;"/><line style="stroke:#181818;stroke-width:1.0;" x1="1341.2842" x2="1974.0688" y1="1562" y2="1562"/><text fill="#000000" font-family="sans-serif" font-size="13" lengthAdjust="spacing" textLength="136.5825" x="1348.2842" y="1557.1436">ai.taxonomy.candidates</text><polygon fill="#181818" points="1080.8369,1588.3516,1070.8369,1592.3516,1080.8369,1596.3516,1076.8369,1592.3516" style="stroke:#181818;stroke-width:1.0;"/><line style="stroke:#181818;stroke-width:1.0;" x1="1074.8369" x2="1979.0688" y1="1592.3516" y2="1592.3516"/><text fill="#000000" font-family="sans-serif" font-size="13" lengthAdjust="spacing" textLength="277.7607" x="1086.8369" y="1587.4951">insert CANDIDATE TaxonomyTerm + alias rows</text><polygon fill="#181818" points="2225.4468,1618.7031,2235.4468,1622.7031,2225.4468,1626.7031,2229.4468,1622.7031" style="stroke:#181818;stroke-width:1.0;"/><line style="stroke:#181818;stroke-width:1.0;" x1="1980.0688" x2="2231.4468" y1="1622.7031" y2="1622.7031"/><text fill="#000000" font-family="sans-serif" font-size="13" lengthAdjust="spacing" textLength="233.3779" x="1987.0688" y="1617.8467">reindexDocumentWithTags(documentId)</text><polygon fill="#181818" points="1968.0688,1649.0547,1978.0688,1653.0547,1968.0688,1657.0547,1972.0688,1653.0547" style="stroke:#181818;stroke-width:1.0;"/><line style="stroke:#181818;stroke-width:1.0;" x1="1341.2842" x2="1974.0688" y1="1653.0547" y2="1653.0547"/><text fill="#000000" font-family="sans-serif" font-size="13" lengthAdjust="spacing" textLength="95.3799" x="1348.2842" y="1648.1982">ai.ocr.completed</text><polygon fill="#181818" points="1080.8369,1679.4063,1070.8369,1683.4063,1080.8369,1687.4063,1076.8369,1683.4063" style="stroke:#181818;stroke-width:1.0;"/><line style="stroke:#181818;stroke-width:1.0;" x1="1074.8369" x2="1979.0688" y1="1683.4063" y2="1683.4063"/><text fill="#000000" font-family="sans-serif" font-size="13" lengthAdjust="spacing" textLength="393.1484" x="1086.8369" y="1678.5498">update DocumentVersion{ocrStorageKey, ocrApplied, ocrLanguage}</text><polygon fill="#181818" points="1968.0688,1709.7578,1978.0688,1713.7578,1968.0688,1717.7578,1972.0688,1713.7578" style="stroke:#181818;stroke-width:1.0;"/><line style="stroke:#181818;stroke-width:1.0;" x1="1341.2842" x2="1974.0688" y1="1713.7578" y2="1713.7578"/><text fill="#000000" font-family="sans-serif" font-size="13" lengthAdjust="spacing" textLength="125.0171" x="1348.2842" y="1708.9014">ai.metadata.extracted</text><polygon fill="#181818" points="1080.8369,1740.1094,1070.8369,1744.1094,1080.8369,1748.1094,1076.8369,1744.1094" style="stroke:#181818;stroke-width:1.0;"/><line style="stroke:#181818;stroke-width:1.0;" x1="1074.8369" x2="1979.0688" y1="1744.1094" y2="1744.1094"/><text fill="#000000" font-family="sans-serif" font-size="13" lengthAdjust="spacing" textLength="313.5996" x="1086.8369" y="1739.2529">update DocumentVersion.extractedMetadata (JSONB)</text><!--SRC=[bLPTRjj647xdAGP-2Pdg9mtGFWHm0TLs0YMovPfqWm86aYKv4XSYTzdTfMpLCD2d7g3e6Ng0Ng4toKawkoGbKbBQr0yslJlppVyt-mmk_luhPnhUNORmwTS_u5mcLO7201TBr0O-_VOxJAPGyX9pBj3zhv6f9FEUGIWhbU0h-W9OIPsn8IlByMWq6YTI62Np7DMuHRmjSydIi-t5Q6L8pQ_SCPJCPC4H8C6C7b_Hhn3LcYTOQntvySigphdEWF6HONerqbLSS6Cm_IpiXD-Whd8puzgWQ3tQWwL8DFblOP-3SlBQ8eOynOGfoFaQDSZAQ3e0at5DKgK4lp78XxgM7C3rncHI12FFCzpa227-NA58i9_uEY43ctKKYYUPFHqqIQUofFX0jV4ybXYfu2BbzWzLyDOhcJ8yuIKZb9FQ_3t6Ty8FrvWRVCTDS68btsFSb_rSYPpqcL5vNppYA-Qkx4V_wf8BBaFoY2sngPYJTETUoWoBcKOukPRQB1M6Fyp8lLGce-UrQzTl-dYTojVtLUnHqYg2k9f48Rn54ng5h72tzkXO5dP586jD5Pn2KyI-pcns2QMIQxgpylCyPmKRd-MiId4yBr5CfhKs2VOrznkgjb7jPTj2XAwQtSZcOISzEv7cBeqzx_GKwWA1hpSYoPGKij81d9vwjp3ypfOLNi6vaYKiEBMN592sJRL6fRaKdfKXKLjJahsUXn6CMSd7ww_7hQmUFzBdD7qQDqfqq7pPmxezAIy51SfjO0E8oLLKyFPz57WEUcSYaKLP6GmpzlARR_ruOv2cX-K6B4EGjQ7Pb0W5rvgQ6gYJPMBG3BKhgWVGmjbM8xWK3IQcnXcuC0KhC2119p3S6IvuWH5XUoXIR-kLwqEw9PzyNRVfEznG13LWuvJL2pmX3OBYoyo0N6mrNpEU3nTCcrVG0C2zuYIve8jA4L74KXdTZF7eJipjX3jye2pH05kewNn0nRaNTPojhhuJLaH8GHOConqnDBa79U_98jjewwLs7MP6NkrM9swvsaNR98sAf36YiLIKuxO6-_d21wE8KZ2Dw0lycCX_Y8i5nHBi0A_VaAHcQuGVQwykqJ3RjeyzzQU-GbMI26uPhb5zrFmN7436T3Q0RYqwHNZgcAvYLpT7yXCU4SNxzPzBr9fq7othMwNJrxUpsOV9rMJsKpWD1vJ4Fvy2p-eJZ6EDBGwS76oBavt9kPLqXDkwxbEs3MVvW6e4XYqrR93oGu9EF8rRXN4JCqrIYxUTq9SlNi2aj5HHKY5nDrnjCfWBAsmzUggdblHlIVkavW1CNNFOrQnaWlNuK6_5B5ajbQo43OGOeo_WimvpKDPh-dCKuX93DjgzPcVDxZPrk53jwk5h6rxBdwrIJtz-TWD-H9RHTaO0V04wOK8Gm57vguiRA9f-QjlHDhwlItQs2RfAbgAf4QkYO8eJONxLoiCAD_TIfPgE4dhNQBxOU5Pws3FLx76lYxdN6HIrJDJ8ybUEfk_peMZhzsWx1_ykNxk- -LBuDgelXMz2vmcp6VnIAuOzK6CKv1KJARVzgxqK3ufjswhUSyHROaXDvsyVL_HisTk1_UPoGtmy_de-6yAWdZ477DCesG6XDyg2t25g9OeuG3-MhWuylSzoHgHCyUuaFZHAbcVr4SpFf_JGSGlShjCFVKLwfz986LH5q6ewcb7O8vhtt6GHyOlVmapJ_ONar6vmY3IKcXwUkDlszwGD7oq_VRmJMZfpj54Iws_xa5HeAYKqS5eYXz4UQuLke5ouGCycL-VJyqbq0L6Z494fcZsMStgtk5J-toWFdTcRmrw-ZsuMKWWx2uN-dPHbpZ5rtpCcbXNT7UkSOtFyd_PsmcshWlysd5zz7tZ_0000]--></g></svg>