<svg xmlns="http://www.w3.org/2000/svg" xmlns:xlink="http://www.w3.org/1999/xlink" contentStyleType="text/css" height="1665px" preserveAspectRatio="none" style="width:1956px;height:1665px;background:#FFFFFF;" version="1.1" viewBox="0 0 1956 1665" width="1956px" zoomAndPan="magnify"><title>Sequence &#8212; Approval workflow (LINEAR variant, with rejection branch)</title><defs/><g><text fill="#000000" font-family="sans-serif" font-size="14" font-weight="bold" lengthAdjust="spacing" textLength="477.292" x="735.4387" y="29.5332">Sequence &#8212; Approval workflow (LINEAR variant, with rejection branch)</text><rect fill="none" height="109.4063" style="stroke:#000000;stroke-width:1.5;" width="903.2417" x="1025.9277" y="607.4922"/><rect fill="none" height="202.4609" style="stroke:#000000;stroke-width:1.5;" width="923.2417" x="1015.9277" y="730.8984"/><rect fill="none" height="79.0547" style="stroke:#000000;stroke-width:1.5;" width="903.2417" x="1025.9277" y="786.6016"/><rect fill="none" height="216.2969" style="stroke:#000000;stroke-width:1.5;" width="1919.1694" x="10" y="947.3594"/><line style="stroke:#181818;stroke-width:0.5;stroke-dasharray:5.0,5.0;" x1="52" x2="52" y1="121.2188" y2="1583.5781"/><line style="stroke:#181818;stroke-width:0.5;stroke-dasharray:5.0,5.0;" x1="153.9102" x2="153.9102" y1="121.2188" y2="1583.5781"/><line style="stroke:#181818;stroke-width:0.5;stroke-dasharray:5.0,5.0;" x1="383.186" x2="383.186" y1="121.2188" y2="1583.5781"/><line style="stroke:#181818;stroke-width:0.5;stroke-dasharray:5.0,5.0;" x1="637.0093" x2="637.0093" y1="121.2188" y2="1583.5781"/><line style="stroke:#181818;stroke-width:0.5;stroke-dasharray:5.0,5.0;" x1="944.0938" x2="944.0938" y1="121.2188" y2="1583.5781"/><line style="stroke:#181818;stroke-width:0.5;stroke-dasharray:5.0,5.0;" x1="1113.9277" x2="1113.9277" y1="121.2188" y2="1583.5781"/><line style="stroke:#181818;stroke-width:0.5;stroke-dasharray:5.0,5.0;" x1="1295.0791" x2="1295.0791" y1="121.2188" y2="1583.5781"/><line style="stroke:#181818;stroke-width:0.5;stroke-dasharray:5.0,5.0;" x1="1617.019" x2="1617.019" y1="121.2188" y2="1583.5781"/><line style="stroke:#181818;stroke-width:0.5;stroke-dasharray:5.0,5.0;" x1="1756.6323" x2="1756.6323" y1="121.2188" y2="1583.5781"/><line style="stroke:#181818;stroke-width:0.5;stroke-dasharray:5.0,5.0;" x1="1877.9077" x2="1877.9077" y1="121.2188" y2="1583.5781"/><text fill="#000000" font-family="sans-serif" font-size="14" lengthAdjust="spacing" textLength="59.9102" x="20" y="118.1426">Submitter</text><ellipse cx="52.9551" cy="52.1094" fill="#E2E2F0" rx="8" ry="8" style="stroke:#181818;stroke-width:0.5;"/><path d="M52.9551,60.1094 L52.9551,87.1094 M39.9551,68.1094 L65.9551,68.1094 M52.9551,87.1094 L39.9551,102.1094 M52.9551,87.1094 L65.9551,102.1094 " fill="none" style="stroke:#181818;stroke-width:0.5;"/><text fill="#000000" font-family="sans-serif" font-size="14" lengthAdjust="spacing" textLength="59.9102" x="20" y="1597.1113">Submitter</text><ellipse cx="52.9551" cy="1608.6875" fill="#E2E2F0" rx="8" ry="8" style="stroke:#181818;stroke-width:0.5;"/><path d="M52.9551,1616.6875 L52.9551,1643.6875 M39.9551,1624.6875 L65.9551,1624.6875 M52.9551,1643.6875 L39.9551,1658.6875 M52.9551,1643.6875 L65.9551,1658.6875 " fill="none" style="stroke:#181818;stroke-width:0.5;"/><text fill="#000000" font-family="sans-serif" font-size="14" lengthAdjust="spacing" textLength="110.4824" x="95.9102" y="118.1426">Approver (step N)</text><ellipse cx="154.1514" cy="52.1094" fill="#E2E2F0" rx="8" ry="8" style="stroke:#181818;stroke-width:0.5;"/><path d="M154.1514,60.1094 L154.1514,87.1094 M141.1514,68.1094 L167.1514,68.1094 M154.1514,87.1094 L141.1514,102.1094 M154.1514,87.1094 L167.1514,102.1094 " fill="none" style="stroke:#181818;stroke-width:0.5;"/><text fill="#000000" font-family="sans-serif" font-size="14" lengthAdjust="spacing" textLength="110.4824" x="95.9102" y="1597.1113">Approver (step N)</text><ellipse cx="154.1514" cy="1608.6875" fill="#E2E2F0" rx="8" ry="8" style="stroke:#181818;stroke-width:0.5;"/><path d="M154.1514,1616.6875 L154.1514,1643.6875 M141.1514,1624.6875 L167.1514,1624.6875 M154.1514,1643.6875 L141.1514,1658.6875 M154.1514,1643.6875 L167.1514,1658.6875 " fill="none" style="stroke:#181818;stroke-width:0.5;"/><rect fill="#E2E2F0" height="31.6094" rx="2.5" ry="2.5" style="stroke:#181818;stroke-width:0.5;" width="81.7031" x="343.186" y="88.6094"/><text fill="#000000" font-family="sans-serif" font-size="14" lengthAdjust="spacing" textLength="67.7031" x="350.186" y="110.1426">kosha-web</text><rect fill="#E2E2F0" height="31.6094" rx="2.5" ry="2.5" style="stroke:#181818;stroke-width:0.5;" width="81.7031" x="343.186" y="1582.5781"/><text fill="#000000" font-family="sans-serif" font-size="14" lengthAdjust="spacing" textLength="67.7031" x="350.186" y="1604.1113">kosha-web</text><rect fill="#E2E2F0" height="49.2188" rx="2.5" ry="2.5" style="stroke:#181818;stroke-width:0.5;" width="126.8271" x="574.0093" y="71"/><text fill="#000000" font-family="sans-serif" font-size="14" lengthAdjust="spacing" textLength="110.4893" x="582.1782" y="92.5332">DocumentService</text><text fill="#000000" font-family="sans-serif" font-size="14" lengthAdjust="spacing" textLength="112.8271" x="581.0093" y="110.1426">(kosha-document)</text><rect fill="#E2E2F0" height="49.2188" rx="2.5" ry="2.5" style="stroke:#181818;stroke-width:0.5;" width="126.8271" x="574.0093" y="1582.5781"/><text fill="#000000" font-family="sans-serif" font-size="14" lengthAdjust="spacing" textLength="110.4893" x="582.1782" y="1604.1113">DocumentService</text><text fill="#000000" font-family="sans-serif" font-size="14" lengthAdjust="spacing" textLength="112.8271" x="581.0093" y="1621.7207">(kosha-document)</text><rect fill="#E2E2F0" height="49.2188" rx="2.5" ry="2.5" style="stroke:#181818;stroke-width:0.5;" width="161.834" x="864.0938" y="71"/><text fill="#000000" font-family="sans-serif" font-size="14" lengthAdjust="spacing" textLength="147.834" x="871.0938" y="92.5332">WorkflowEngineService</text><text fill="#000000" font-family="sans-serif" font-size="14" lengthAdjust="spacing" textLength="105.7998" x="892.1108" y="110.1426">(kosha-workflow)</text><rect fill="#E2E2F0" height="49.2188" rx="2.5" ry="2.5" style="stroke:#181818;stroke-width:0.5;" width="161.834" x="864.0938" y="1582.5781"/><text fill="#000000" font-family="sans-serif" font-size="14" lengthAdjust="spacing" textLength="147.834" x="871.0938" y="1604.1113">WorkflowEngineService</text><text fill="#000000" font-family="sans-serif" font-size="14" lengthAdjust="spacing" textLength="105.7998" x="892.1108" y="1621.7207">(kosha-workflow)</text><rect fill="#E2E2F0" height="49.2188" rx="2.5" ry="2.5" style="stroke:#181818;stroke-width:0.5;" width="157.1514" x="1035.9277" y="71"/><text fill="#000000" font-family="sans-serif" font-size="14" lengthAdjust="spacing" textLength="143.1514" x="1042.9277" y="92.5332">WorkflowActionService</text><text fill="#000000" font-family="sans-serif" font-size="14" lengthAdjust="spacing" textLength="105.7998" x="1061.6035" y="110.1426">(kosha-workflow)</text><rect fill="#E2E2F0" height="49.2188" rx="2.5" ry="2.5" style="stroke:#181818;stroke-width:0.5;" width="157.1514" x="1035.9277" y="1582.5781"/><text fill="#000000" font-family="sans-serif" font-size="14" lengthAdjust="spacing" textLength="143.1514" x="1042.9277" y="1604.1113">WorkflowActionService</text><text fill="#000000" font-family="sans-serif" font-size="14" lengthAdjust="spacing" textLength="105.7998" x="1061.6035" y="1621.7207">(kosha-workflow)</text><rect fill="#E2E2F0" height="49.2188" rx="2.5" ry="2.5" style="stroke:#181818;stroke-width:0.5;" width="185.1719" x="1203.0791" y="71"/><text fill="#000000" font-family="sans-serif" font-size="14" lengthAdjust="spacing" textLength="171.1719" x="1210.0791" y="92.5332">DocumentWorkflowListener</text><text fill="#000000" font-family="sans-serif" font-size="14" lengthAdjust="spacing" textLength="112.8271" x="1239.2515" y="110.1426">(kosha-document)</text><rect fill="#E2E2F0" height="49.2188" rx="2.5" ry="2.5" style="stroke:#181818;stroke-width:0.5;" width="185.1719" x="1203.0791" y="1582.5781"/><text fill="#000000" font-family="sans-serif" font-size="14" lengthAdjust="spacing" textLength="171.1719" x="1210.0791" y="1604.1113">DocumentWorkflowListener</text><text fill="#000000" font-family="sans-serif" font-size="14" lengthAdjust="spacing" textLength="112.8271" x="1239.2515" y="1621.7207">(kosha-document)</text><rect fill="#E2E2F0" height="31.6094" rx="2.5" ry="2.5" style="stroke:#181818;stroke-width:0.5;" width="120.6133" x="1557.019" y="88.6094"/><text fill="#000000" font-family="sans-serif" font-size="14" lengthAdjust="spacing" textLength="106.6133" x="1564.019" y="110.1426">SignatureService</text><rect fill="#E2E2F0" height="31.6094" rx="2.5" ry="2.5" style="stroke:#181818;stroke-width:0.5;" width="120.6133" x="1557.019" y="1582.5781"/><text fill="#000000" font-family="sans-serif" font-size="14" lengthAdjust="spacing" textLength="106.6133" x="1564.019" y="1604.1113">SignatureService</text><rect fill="#E2E2F0" height="49.2188" rx="2.5" ry="2.5" style="stroke:#181818;stroke-width:0.5;" width="139.2754" x="1687.6323" y="71"/><text fill="#000000" font-family="sans-serif" font-size="14" lengthAdjust="spacing" textLength="125.2754" x="1694.6323" y="92.5332">Notification listeners</text><text fill="#000000" font-family="sans-serif" font-size="14" lengthAdjust="spacing" textLength="118.2754" x="1698.1323" y="110.1426">(kosha-notification)</text><rect fill="#E2E2F0" height="49.2188" rx="2.5" ry="2.5" style="stroke:#181818;stroke-width:0.5;" width="139.2754" x="1687.6323" y="1582.5781"/><text fill="#000000" font-family="sans-serif" font-size="14" lengthAdjust="spacing" textLength="125.2754" x="1694.6323" y="1604.1113">Notification listeners</text><text fill="#000000" font-family="sans-serif" font-size="14" lengthAdjust="spacing" textLength="118.2754" x="1698.1323" y="1621.7207">(kosha-notification)</text><text fill="#000000" font-family="sans-serif" font-size="14" lengthAdjust="spacing" textLength="76.2617" x="1836.9077" y="118.1426">PostgreSQL</text><path d="M1860.0386,67.6094 C1860.0386,57.6094 1878.0386,57.6094 1878.0386,57.6094 C1878.0386,57.6094 1896.0386,57.6094 1896.0386,67.6094 L1896.0386,93.6094 C1896.0386,103.6094 1878.0386,103.6094 1878.0386,103.6094 C1878.0386,103.6094 1860.0386,103.6094 1860.0386,93.6094 L1860.0386,67.6094 " fill="#E2E2F0" style="stroke:#181818;stroke-width:1.5;"/><path d="M1860.0386,67.6094 C1860.0386,77.6094 1878.0386,77.6094 1878.0386,77.6094 C1878.0386,77.6094 1896.0386,77.6094 1896.0386,67.6094 " fill="none" style="stroke:#181818;stroke-width:1.5;"/><text fill="#000000" font-family="sans-serif" font-size="14" lengthAdjust="spacing" textLength="76.2617" x="1836.9077" y="1597.1113">PostgreSQL</text><path d="M1860.0386,1610.1875 C1860.0386,1600.1875 1878.0386,1600.1875 1878.0386,1600.1875 C1878.0386,1600.1875 1896.0386,1600.1875 1896.0386,1610.1875 L1896.0386,1636.1875 C1896.0386,1646.1875 1878.0386,1646.1875 1878.0386,1646.1875 C1878.0386,1646.1875 1860.0386,1646.1875 1860.0386,1636.1875 L1860.0386,1610.1875 " fill="#E2E2F0" style="stroke:#181818;stroke-width:1.5;"/><path d="M1860.0386,1610.1875 C1860.0386,1620.1875 1878.0386,1620.1875 1878.0386,1620.1875 C1878.0386,1620.1875 1896.0386,1620.1875 1896.0386,1610.1875 " fill="none" style="stroke:#181818;stroke-width:1.5;"/><rect fill="#EEEEEE" height="3" style="stroke:#EEEEEE;stroke-width:1.0;" width="1949.1694" x="0" y="152.3945"/><line style="stroke:#000000;stroke-width:1.0;" x1="0" x2="1949.1694" y1="152.3945" y2="152.3945"/><line style="stroke:#000000;stroke-width:1.0;" x1="0" x2="1949.1694" y1="155.3945" y2="155.3945"/><rect fill="#EEEEEE" height="24.3516" style="stroke:#000000;stroke-width:2.0;" width="126.6899" x="911.2397" y="141.2188"/><text fill="#000000" font-family="sans-serif" font-size="13" font-weight="bold" lengthAdjust="spacing" textLength="109.0781" x="917.2397" y="158.7139">Submit for review</text><polygon fill="#181818" points="372.0376,193.9219,382.0376,197.9219,372.0376,201.9219,376.0376,197.9219" style="stroke:#181818;stroke-width:1.0;"/><line style="stroke:#181818;stroke-width:1.0;" x1="52.9551" x2="378.0376" y1="197.9219" y2="197.9219"/><text fill="#000000" font-family="sans-serif" font-size="13" lengthAdjust="spacing" textLength="141.4258" x="59.9551" y="193.0654">Click "Submit for review"</text><polygon fill="#181818" points="625.4229,224.2734,635.4229,228.2734,625.4229,232.2734,629.4229,228.2734" style="stroke:#181818;stroke-width:1.0;"/><line style="stroke:#181818;stroke-width:1.0;" x1="384.0376" x2="631.4229" y1="228.2734" y2="228.2734"/><text fill="#000000" font-family="sans-serif" font-size="13" lengthAdjust="spacing" textLength="229.3853" x="391.0376" y="223.417">PATCH document.status = IN_REVIEW</text><polygon fill="#181818" points="1866.0386,254.625,1876.0386,258.625,1866.0386,262.625,1870.0386,258.625" style="stroke:#181818;stroke-width:1.0;"/><line style="stroke:#181818;stroke-width:1.0;" x1="637.4229" x2="1872.0386" y1="258.625" y2="258.625"/><text fill="#000000" font-family="sans-serif" font-size="13" lengthAdjust="spacing" textLength="125.0361" x="644.4229" y="253.7686">update doc.document</text><line style="stroke:#181818;stroke-width:1.0;" x1="943.0107" x2="933.0107" y1="288.9766" y2="284.9766"/><line style="stroke:#181818;stroke-width:1.0;" x1="943.0107" x2="933.0107" y1="288.9766" y2="292.9766"/><line style="stroke:#181818;stroke-width:1.0;stroke-dasharray:2.0,2.0;" x1="637.4229" x2="944.0107" y1="288.9766" y2="288.9766"/><text fill="#000000" font-family="sans-serif" font-size="13" lengthAdjust="spacing" textLength="283.5879" x="644.4229" y="284.1201">DocumentStatusChanged(DRAFT&#8594;IN_REVIEW)</text><polygon fill="#181818" points="1866.0386,315.3281,1876.0386,319.3281,1866.0386,323.3281,1870.0386,319.3281" style="stroke:#181818;stroke-width:1.0;"/><line style="stroke:#181818;stroke-width:1.0;" x1="945.0107" x2="1872.0386" y1="319.3281" y2="319.3281"/><text fill="#000000" font-family="sans-serif" font-size="13" lengthAdjust="spacing" textLength="298.7207" x="952.0107" y="314.4717">INSERT WorkflowInstance(status=IN_PROGRESS)</text><polygon fill="#181818" points="1866.0386,362.0313,1876.0386,366.0313,1866.0386,370.0313,1870.0386,366.0313" style="stroke:#181818;stroke-width:1.0;"/><line style="stroke:#181818;stroke-width:1.0;" x1="945.0107" x2="1872.0386" y1="366.0313" y2="366.0313"/><text fill="#000000" font-family="sans-serif" font-size="13" lengthAdjust="spacing" textLength="231.2007" x="952.0107" y="344.8232">INSERT WorkflowStepInstance per step</text><text fill="#000000" font-family="sans-serif" font-size="13" lengthAdjust="spacing" textLength="265.8271" x="952.0107" y="361.1748">(first step = IN_PROGRESS, rest = WAITING)</text><line style="stroke:#181818;stroke-width:1.0;" x1="1755.27" x2="1745.27" y1="396.3828" y2="392.3828"/><line style="stroke:#181818;stroke-width:1.0;" x1="1755.27" x2="1745.27" y1="396.3828" y2="400.3828"/><line style="stroke:#181818;stroke-width:1.0;stroke-dasharray:2.0,2.0;" x1="945.0107" x2="1756.27" y1="396.3828" y2="396.3828"/><text fill="#000000" font-family="sans-serif" font-size="13" lengthAdjust="spacing" textLength="177.7407" x="952.0107" y="391.5264">WorkflowStepAssigned(step 1)</text><polygon fill="#181818" points="165.1514,422.7344,155.1514,426.7344,165.1514,430.7344,161.1514,426.7344" style="stroke:#181818;stroke-width:1.0;"/><line style="stroke:#181818;stroke-width:1.0;" x1="159.1514" x2="1756.27" y1="426.7344" y2="426.7344"/><text fill="#000000" font-family="sans-serif" font-size="13" lengthAdjust="spacing" textLength="202.9092" x="171.1514" y="421.8779">email "You have a step to approve"</text><rect fill="#EEEEEE" height="3" style="stroke:#EEEEEE;stroke-width:1.0;" width="1949.1694" x="0" y="455.9102"/><line style="stroke:#000000;stroke-width:1.0;" x1="0" x2="1949.1694" y1="455.9102" y2="455.9102"/><line style="stroke:#000000;stroke-width:1.0;" x1="0" x2="1949.1694" y1="458.9102" y2="458.9102"/><rect fill="#EEEEEE" height="24.3516" style="stroke:#000000;stroke-width:2.0;" width="297.8862" x="825.6416" y="444.7344"/><text fill="#000000" font-family="sans-serif" font-size="13" font-weight="bold" lengthAdjust="spacing" textLength="280.2744" x="831.6416" y="462.2295">Approve step (happy path, repeated per step)</text><polygon fill="#181818" points="372.0376,497.4375,382.0376,501.4375,372.0376,505.4375,376.0376,501.4375" style="stroke:#181818;stroke-width:1.0;"/><line style="stroke:#181818;stroke-width:1.0;" x1="154.1514" x2="378.0376" y1="501.4375" y2="501.4375"/><text fill="#000000" font-family="sans-serif" font-size="13" lengthAdjust="spacing" textLength="143.7871" x="161.1514" y="496.5811">Open task, click Approve</text><polygon fill="#181818" points="1102.5034,527.7891,1112.5034,531.7891,1102.5034,535.7891,1106.5034,531.7891" style="stroke:#181818;stroke-width:1.0;"/><line style="stroke:#181818;stroke-width:1.0;" x1="384.0376" x2="1108.5034" y1="531.7891" y2="531.7891"/><text fill="#000000" font-family="sans-serif" font-size="13" lengthAdjust="spacing" textLength="237.7388" x="391.0376" y="526.9326">POST /workflow/{id}/steps/{step}/approve</text><polygon fill="#181818" points="1866.0386,558.1406,1876.0386,562.1406,1866.0386,566.1406,1870.0386,562.1406" style="stroke:#181818;stroke-width:1.0;"/><line style="stroke:#181818;stroke-width:1.0;" x1="1114.5034" x2="1872.0386" y1="562.1406" y2="562.1406"/><text fill="#000000" font-family="sans-serif" font-size="13" lengthAdjust="spacing" textLength="206.2671" x="1121.5034" y="557.2842">UPDATE step.status = APPROVED</text><line style="stroke:#181818;stroke-width:1.0;" x1="1755.27" x2="1745.27" y1="592.4922" y2="588.4922"/><line style="stroke:#181818;stroke-width:1.0;" x1="1755.27" x2="1745.27" y1="592.4922" y2="596.4922"/><line style="stroke:#181818;stroke-width:1.0;stroke-dasharray:2.0,2.0;" x1="1114.5034" x2="1756.27" y1="592.4922" y2="592.4922"/><text fill="#000000" font-family="sans-serif" font-size="13" lengthAdjust="spacing" textLength="223.958" x="1121.5034" y="587.6357">WorkflowStepCompleted(APPROVED)</text><path d="M1025.9277,607.4922 L1086.0986,607.4922 L1086.0986,615.8438 L1076.0986,625.8438 L1025.9277,625.8438 L1025.9277,607.4922 " fill="#EEEEEE" style="stroke:#000000;stroke-width:1.5;"/><rect fill="none" height="109.4063" style="stroke:#000000;stroke-width:1.5;" width="903.2417" x="1025.9277" y="607.4922"/><text fill="#000000" font-family="sans-serif" font-size="13" font-weight="bold" lengthAdjust="spacing" textLength="15.1709" x="1040.9277" y="621.9873">alt</text><text fill="#000000" font-family="sans-serif" font-size="11" font-weight="bold" lengthAdjust="spacing" textLength="165.0322" x="1101.0986" y="620.9111">[step.actionType == SIGN_OFF]</text><line style="stroke:#181818;stroke-width:1.0;" x1="1293.665" x2="1283.665" y1="648.1953" y2="644.1953"/><line style="stroke:#181818;stroke-width:1.0;" x1="1293.665" x2="1283.665" y1="648.1953" y2="652.1953"/><line style="stroke:#181818;stroke-width:1.0;stroke-dasharray:2.0,2.0;" x1="1114.5034" x2="1294.665" y1="648.1953" y2="648.1953"/><text fill="#000000" font-family="sans-serif" font-size="13" lengthAdjust="spacing" textLength="152.4517" x="1121.5034" y="643.3389">WorkflowSignOffApproved</text><polygon fill="#181818" points="1605.3257,674.5469,1615.3257,678.5469,1605.3257,682.5469,1609.3257,678.5469" style="stroke:#181818;stroke-width:1.0;"/><line style="stroke:#181818;stroke-width:1.0;" x1="1295.665" x2="1611.3257" y1="678.5469" y2="678.5469"/><text fill="#000000" font-family="sans-serif" font-size="13" lengthAdjust="spacing" textLength="297.6606" x="1302.665" y="673.6904">signFromWorkflow(documentId, versionId, signerId)</text><polygon fill="#181818" points="1866.0386,704.8984,1876.0386,708.8984,1866.0386,712.8984,1870.0386,708.8984" style="stroke:#181818;stroke-width:1.0;"/><line style="stroke:#181818;stroke-width:1.0;" x1="1617.3257" x2="1872.0386" y1="708.8984" y2="708.8984"/><text fill="#000000" font-family="sans-serif" font-size="13" lengthAdjust="spacing" textLength="166.1816" x="1624.3257" y="704.042">INSERT DocumentSignature</text><path d="M1015.9277,730.8984 L1076.0986,730.8984 L1076.0986,739.25 L1066.0986,749.25 L1015.9277,749.25 L1015.9277,730.8984 " fill="#EEEEEE" style="stroke:#000000;stroke-width:1.5;"/><rect fill="none" height="202.4609" style="stroke:#000000;stroke-width:1.5;" width="923.2417" x="1015.9277" y="730.8984"/><text fill="#000000" font-family="sans-serif" font-size="13" font-weight="bold" lengthAdjust="spacing" textLength="15.1709" x="1030.9277" y="745.3936">alt</text><text fill="#000000" font-family="sans-serif" font-size="11" font-weight="bold" lengthAdjust="spacing" textLength="161.0737" x="1091.0986" y="744.3174">[LINEAR &#8212; promote next step]</text><polygon fill="#181818" points="1866.0386,767.6016,1876.0386,771.6016,1866.0386,775.6016,1870.0386,771.6016" style="stroke:#181818;stroke-width:1.0;"/><line style="stroke:#181818;stroke-width:1.0;" x1="1114.5034" x2="1872.0386" y1="771.6016" y2="771.6016"/><text fill="#000000" font-family="sans-serif" font-size="13" lengthAdjust="spacing" textLength="136.5444" x="1121.5034" y="766.7451">find next WAITING step</text><path d="M1025.9277,786.6016 L1098.3623,786.6016 L1098.3623,794.9531 L1088.3623,804.9531 L1025.9277,804.9531 L1025.9277,786.6016 " fill="#EEEEEE" style="stroke:#000000;stroke-width:1.5;"/><rect fill="none" height="79.0547" style="stroke:#000000;stroke-width:1.5;" width="903.2417" x="1025.9277" y="786.6016"/><text fill="#000000" font-family="sans-serif" font-size="13" font-weight="bold" lengthAdjust="spacing" textLength="27.4346" x="1040.9277" y="801.0967">loop</text><text fill="#000000" font-family="sans-serif" font-size="11" font-weight="bold" lengthAdjust="spacing" textLength="214.5376" x="1113.3623" y="800.0205">[while next step has falsy conditionJson]</text><polygon fill="#181818" points="1866.0386,823.3047,1876.0386,827.3047,1866.0386,831.3047,1870.0386,827.3047" style="stroke:#181818;stroke-width:1.0;"/><line style="stroke:#181818;stroke-width:1.0;" x1="1114.5034" x2="1872.0386" y1="827.3047" y2="827.3047"/><text fill="#000000" font-family="sans-serif" font-size="13" lengthAdjust="spacing" textLength="190.3789" x="1121.5034" y="822.4482">UPDATE next.status = SKIPPED</text><polygon fill="#181818" points="1866.0386,853.6563,1876.0386,857.6563,1866.0386,861.6563,1870.0386,857.6563" style="stroke:#181818;stroke-width:1.0;"/><line style="stroke:#181818;stroke-width:1.0;" x1="1114.5034" x2="1872.0386" y1="857.6563" y2="857.6563"/><text fill="#000000" font-family="sans-serif" font-size="13" lengthAdjust="spacing" textLength="107.6816" x="1121.5034" y="852.7998">load step after that</text><polygon fill="#181818" points="1866.0386,891.0078,1876.0386,895.0078,1866.0386,899.0078,1870.0386,895.0078" style="stroke:#181818;stroke-width:1.0;"/><line style="stroke:#181818;stroke-width:1.0;" x1="1114.5034" x2="1872.0386" y1="895.0078" y2="895.0078"/><text fill="#000000" font-family="sans-serif" font-size="13" lengthAdjust="spacing" textLength="269.1343" x="1121.5034" y="890.1514">UPDATE next.status = IN_PROGRESS, dueAt</text><line style="stroke:#181818;stroke-width:1.0;" x1="1755.27" x2="1745.27" y1="925.3594" y2="921.3594"/><line style="stroke:#181818;stroke-width:1.0;" x1="1755.27" x2="1745.27" y1="925.3594" y2="929.3594"/><line style="stroke:#181818;stroke-width:1.0;stroke-dasharray:2.0,2.0;" x1="1114.5034" x2="1756.27" y1="925.3594" y2="925.3594"/><text fill="#000000" font-family="sans-serif" font-size="13" lengthAdjust="spacing" textLength="222.5488" x="1121.5034" y="920.5029">WorkflowStepAssigned(next assignee)</text><path d="M10,947.3594 L70.1709,947.3594 L70.1709,955.7109 L60.1709,965.7109 L10,965.7109 L10,947.3594 " fill="#EEEEEE" style="stroke:#000000;stroke-width:1.5;"/><rect fill="none" height="216.2969" style="stroke:#000000;stroke-width:1.5;" width="1919.1694" x="10" y="947.3594"/><text fill="#000000" font-family="sans-serif" font-size="13" font-weight="bold" lengthAdjust="spacing" textLength="15.1709" x="25" y="961.8545">alt</text><text fill="#000000" font-family="sans-serif" font-size="11" font-weight="bold" lengthAdjust="spacing" textLength="234.7168" x="85.1709" y="960.7783">[all steps terminal (APPROVED or SKIPPED)]</text><polygon fill="#181818" points="1866.0386,984.0625,1876.0386,988.0625,1866.0386,992.0625,1870.0386,988.0625" style="stroke:#181818;stroke-width:1.0;"/><line style="stroke:#181818;stroke-width:1.0;" x1="1114.5034" x2="1872.0386" y1="988.0625" y2="988.0625"/><text fill="#000000" font-family="sans-serif" font-size="13" lengthAdjust="spacing" textLength="292.9443" x="1121.5034" y="983.2061">UPDATE WorkflowInstance.status = COMPLETED</text><line style="stroke:#181818;stroke-width:1.0;" x1="1293.665" x2="1283.665" y1="1018.4141" y2="1014.4141"/><line style="stroke:#181818;stroke-width:1.0;" x1="1293.665" x2="1283.665" y1="1018.4141" y2="1022.4141"/><line style="stroke:#181818;stroke-width:1.0;stroke-dasharray:2.0,2.0;" x1="1114.5034" x2="1294.665" y1="1018.4141" y2="1018.4141"/><text fill="#000000" font-family="sans-serif" font-size="13" lengthAdjust="spacing" textLength="116.3145" x="1121.5034" y="1013.5576">WorkflowCompleted</text><polygon fill="#181818" points="1866.0386,1044.7656,1876.0386,1048.7656,1866.0386,1052.7656,1870.0386,1048.7656" style="stroke:#181818;stroke-width:1.0;"/><line style="stroke:#181818;stroke-width:1.0;" x1="1295.665" x2="1872.0386" y1="1048.7656" y2="1048.7656"/><text fill="#000000" font-family="sans-serif" font-size="13" lengthAdjust="spacing" textLength="330.186" x="1302.665" y="1043.9092">UPDATE document.status = IN_REVIEW &#8594; PUBLISHED</text><line style="stroke:#181818;stroke-width:1.0;" x1="1755.27" x2="1745.27" y1="1079.1172" y2="1075.1172"/><line style="stroke:#181818;stroke-width:1.0;" x1="1755.27" x2="1745.27" y1="1079.1172" y2="1083.1172"/><line style="stroke:#181818;stroke-width:1.0;stroke-dasharray:2.0,2.0;" x1="1295.665" x2="1756.27" y1="1079.1172" y2="1079.1172"/><text fill="#000000" font-family="sans-serif" font-size="13" lengthAdjust="spacing" textLength="313.9487" x="1302.665" y="1074.2607">DocumentStatusChanged(IN_REVIEW&#8594;PUBLISHED)</text><polygon fill="#181818" points="63.9551,1105.4688,53.9551,1109.4688,63.9551,1113.4688,59.9551,1109.4688" style="stroke:#181818;stroke-width:1.0;"/><line style="stroke:#181818;stroke-width:1.0;" x1="57.9551" x2="1756.27" y1="1109.4688" y2="1109.4688"/><text fill="#000000" font-family="sans-serif" font-size="13" lengthAdjust="spacing" textLength="248.4409" x="69.9551" y="1104.6123">email "Your document has been published"</text><line style="stroke:#000000;stroke-width:1.0;stroke-dasharray:2.0,2.0;" x1="10" x2="1929.1694" y1="1118.4688" y2="1118.4688"/><text fill="#000000" font-family="sans-serif" font-size="11" font-weight="bold" lengthAdjust="spacing" textLength="262.7808" x="15" y="1129.8877">[still waiting on siblings (PARALLEL) or next step]</text><polygon fill="#181818" points="395.0376,1151.6563,385.0376,1155.6563,395.0376,1159.6563,391.0376,1155.6563" style="stroke:#181818;stroke-width:1.0;"/><line style="stroke:#181818;stroke-width:1.0;stroke-dasharray:2.0,2.0;" x1="389.0376" x2="1113.5034" y1="1155.6563" y2="1155.6563"/><text fill="#000000" font-family="sans-serif" font-size="13" lengthAdjust="spacing" textLength="345.0332" x="401.0376" y="1150.7998">200 ActionResult{workflowInstanceStatus=IN_PROGRESS}</text><rect fill="#EEEEEE" height="3" style="stroke:#EEEEEE;stroke-width:1.0;" width="1949.1694" x="0" y="1191.832"/><line style="stroke:#000000;stroke-width:1.0;" x1="0" x2="1949.1694" y1="1191.832" y2="1191.832"/><line style="stroke:#000000;stroke-width:1.0;" x1="0" x2="1949.1694" y1="1194.832" y2="1194.832"/><rect fill="#EEEEEE" height="24.3516" style="stroke:#000000;stroke-width:2.0;" width="188.0908" x="880.5393" y="1180.6563"/><text fill="#000000" font-family="sans-serif" font-size="13" font-weight="bold" lengthAdjust="spacing" textLength="170.479" x="886.5393" y="1198.1514">Rejection branch (any step)</text><polygon fill="#181818" points="372.0376,1233.3594,382.0376,1237.3594,372.0376,1241.3594,376.0376,1237.3594" style="stroke:#181818;stroke-width:1.0;"/><line style="stroke:#181818;stroke-width:1.0;" x1="154.1514" x2="378.0376" y1="1237.3594" y2="1237.3594"/><text fill="#000000" font-family="sans-serif" font-size="13" lengthAdjust="spacing" textLength="205.8862" x="161.1514" y="1232.5029">Click Reject (mandatory comments)</text><polygon fill="#181818" points="1102.5034,1263.7109,1112.5034,1267.7109,1102.5034,1271.7109,1106.5034,1267.7109" style="stroke:#181818;stroke-width:1.0;"/><line style="stroke:#181818;stroke-width:1.0;" x1="384.0376" x2="1108.5034" y1="1267.7109" y2="1267.7109"/><text fill="#000000" font-family="sans-serif" font-size="13" lengthAdjust="spacing" textLength="294.8042" x="391.0376" y="1262.8545">POST /workflow/{id}/steps/{step}/reject {comments}</text><polygon fill="#181818" points="1866.0386,1294.0625,1876.0386,1298.0625,1866.0386,1302.0625,1870.0386,1298.0625" style="stroke:#181818;stroke-width:1.0;"/><line style="stroke:#181818;stroke-width:1.0;" x1="1114.5034" x2="1872.0386" y1="1298.0625" y2="1298.0625"/><text fill="#000000" font-family="sans-serif" font-size="13" lengthAdjust="spacing" textLength="202.6426" x="1121.5034" y="1293.2061">UPDATE step.status = REJECTED</text><polygon fill="#181818" points="1866.0386,1340.7656,1876.0386,1344.7656,1866.0386,1348.7656,1870.0386,1344.7656" style="stroke:#181818;stroke-width:1.0;"/><line style="stroke:#181818;stroke-width:1.0;" x1="1114.5034" x2="1872.0386" y1="1344.7656" y2="1344.7656"/><text fill="#000000" font-family="sans-serif" font-size="13" lengthAdjust="spacing" textLength="284.2734" x="1121.5034" y="1323.5576">UPDATE WorkflowInstance.status = REJECTED,</text><text fill="#000000" font-family="sans-serif" font-size="13" lengthAdjust="spacing" textLength="283.9688" x="1121.5034" y="1339.9092">rejectionComments, rejectedAtStepId, rejectedBy</text><line style="stroke:#181818;stroke-width:1.0;" x1="1755.27" x2="1745.27" y1="1375.1172" y2="1371.1172"/><line style="stroke:#181818;stroke-width:1.0;" x1="1755.27" x2="1745.27" y1="1375.1172" y2="1379.1172"/><line style="stroke:#181818;stroke-width:1.0;stroke-dasharray:2.0,2.0;" x1="1114.5034" x2="1756.27" y1="1375.1172" y2="1375.1172"/><text fill="#000000" font-family="sans-serif" font-size="13" lengthAdjust="spacing" textLength="220.3335" x="1121.5034" y="1370.2607">WorkflowStepCompleted(REJECTED)</text><line style="stroke:#181818;stroke-width:1.0;" x1="1293.665" x2="1283.665" y1="1405.4688" y2="1401.4688"/><line style="stroke:#181818;stroke-width:1.0;" x1="1293.665" x2="1283.665" y1="1405.4688" y2="1409.4688"/><line style="stroke:#181818;stroke-width:1.0;stroke-dasharray:2.0,2.0;" x1="1114.5034" x2="1294.665" y1="1405.4688" y2="1405.4688"/><text fill="#000000" font-family="sans-serif" font-size="13" lengthAdjust="spacing" textLength="153.1626" x="1121.5034" y="1400.6123">WorkflowRejected(reason)</text><polygon fill="#181818" points="1866.0386,1431.8203,1876.0386,1435.8203,1866.0386,1439.8203,1870.0386,1435.8203" style="stroke:#181818;stroke-width:1.0;"/><line style="stroke:#181818;stroke-width:1.0;" x1="1295.665" x2="1872.0386" y1="1435.8203" y2="1435.8203"/><text fill="#000000" font-family="sans-serif" font-size="13" lengthAdjust="spacing" textLength="299.8252" x="1302.665" y="1430.9639">UPDATE document.status = IN_REVIEW &#8594; DRAFT</text><line style="stroke:#181818;stroke-width:1.0;" x1="1755.27" x2="1745.27" y1="1466.1719" y2="1462.1719"/><line style="stroke:#181818;stroke-width:1.0;" x1="1755.27" x2="1745.27" y1="1466.1719" y2="1470.1719"/><line style="stroke:#181818;stroke-width:1.0;stroke-dasharray:2.0,2.0;" x1="1295.665" x2="1756.27" y1="1466.1719" y2="1466.1719"/><text fill="#000000" font-family="sans-serif" font-size="13" lengthAdjust="spacing" textLength="283.5879" x="1302.665" y="1461.3154">DocumentStatusChanged(IN_REVIEW&#8594;DRAFT)</text><polygon fill="#181818" points="63.9551,1492.5234,53.9551,1496.5234,63.9551,1500.5234,59.9551,1496.5234" style="stroke:#181818;stroke-width:1.0;"/><line style="stroke:#181818;stroke-width:1.0;" x1="57.9551" x2="1756.27" y1="1496.5234" y2="1496.5234"/><text fill="#000000" font-family="sans-serif" font-size="13" lengthAdjust="spacing" textLength="192.0356" x="69.9551" y="1491.667">email "Rejected &#8212; please revise"</text><path d="M57,1509.5234 L57,1568.5234 L346,1568.5234 L346,1519.5234 L336,1509.5234 L57,1509.5234 " fill="#FEFFDD" style="stroke:#181818;stroke-width:0.5;"/><path d="M336,1509.5234 L336,1519.5234 L346,1519.5234 L336,1509.5234 " fill="#FEFFDD" style="stroke:#181818;stroke-width:0.5;"/><text fill="#000000" font-family="sans-serif" font-size="13" lengthAdjust="spacing" textLength="208.0762" x="63" y="1528.0186">Submitter must revise and resubmit;</text><text fill="#000000" font-family="sans-serif" font-size="13" lengthAdjust="spacing" textLength="268.7788" x="63" y="1544.3701">resubmission spawns a new WorkflowInstance</text><text fill="#000000" font-family="sans-serif" font-size="13" lengthAdjust="spacing" textLength="213.8843" x="63" y="1560.7217">(we never reuse a rejected instance).</text><!--SRC=[dLRTRjis5BxNKnpufXAGsDqkEpY0uYYfMzVMBBV1W085BT4s5vdKICfk40JOrHvWs9Fi5VOcVP8TagByqpZhUcMBFEVZ-VduyRo0v9-_IwBWxRiCllp-5yHL9SM6bB0LycvHYYs4LzFuUWPV_lWJXkDFq-J3CBcrN-dxoz4mUvrSGG-iJHIyW4pKCgUly1_0dL0hSkw1UjrkjwUetB2SzcwRnJZNJF3ChNRlz9vV8V9wJRcsVYLJcd8gUrVDgWSODHlETo25KkThKTGbXLpKLSdu4fY23IEGLT9yOOObouavDzaWaaA_qCCDnBeggQR56VYbAVsLvWSh6LlooMBXIaMBg1i4ccayCQE_rPJdz5GbHyDn4azXGoGZN9_1bkaLI8kFqS1S4fwleY0WkHOIEbazNpEjgUm0TWY__4PpieGGawzW75c3kDe45P6QvQn2UEWqzQTpktrBvuVRlfHDzJ_oyB3m3XMjiar-wEaBaV0bu_JOt-Vh_D7cQUU3rfzmHfkdOpvk_udWBoKhblGGmdIFw5hwk5rnsL6KOw7Peg49UFQfzXY-j-sEiWv1GJIP4qMXamgbbtZ8poExdTu4GRyFhgMmm2vAkc5q2_r-W8jmVc4Q1AzWWEIyyxtVC-m4PX_DN4FGCerdWzVW4-ugZLafwEzkQT2OebDwWmvrXU5Huz7rNgt9-SM5QHLQjRImU8CLuKjQE170Mz-2Hu4nzz33SPPCP-qD6NAC1Yz2w8BgerSwdTnCaonxrYz3EdjVg93WXjzOz0MJIjiFbvy7EyFYu4OVRkFXR3Y-QS1DChOVUC8-TAmKDX-piKW_H84pmc3mxg0jNHDMGkSNKSEAR2WGTwGMGDoDwzWcDjVFROOhtBk7YkYLYQQYMEAYZJqo_JNWRNyd5UMWYRexWzoska7pxKNAczvEiXdqMkbyOCLZp-2fteFvUUmr0GN6t1VpVNeLpn9xxeuDSOh5-f1SESjJbMbrB_JsHePAL_CkiLTrTbzHC1mUtem_JQwl0u0MqrsqVT13ZKJRnWI3nJsqDAsubcBjFKBFoI5ABOgRmYFDNzioEImYn32UHzHfwUglTK1vuM9lvDQ8CKQn5iXzJZ-xd7pm3TY2yS9jDapoHgKG5MnNhDppHN8eM91ItUCRmmjcYlD62OxcXwXDGupZhY7Pss6QOZ-EZKj12WTF5gZve5T4ev79vXjG3ov5KTDOxxVdsSjWyoBkYqQxyf6ojF4em73MZEDJrh83K9UQHAAdmpkMWbseWycxT9JCR0bE4wXbv05rzazuHlaEvvCzXFrYF2rqBGP2j0WcnrOhZ5plQuLi8x74c5Eyu5KznqTZHOjEG4jbf89XDRS4kO82XK-AOdCpcoW8qtWQZqR9A38r_OgVhMxy-F8bk2TpIbLTweVjKO6phwJsqVKIh-pqQCQ0aF3x4mBb7Y3d0U6QS7mqX3HKNviSLVG_bShDD_3W_H__MxEcoPjaCFEQzQsyybvd7taxKmsQGy-QCOiMiRQFJB5RkRp_Lctq9qJ1QTxwSJ6KbA0cHC7taTU-jy7tqROPnfych8_FoM99pR1Y9Wo5Znit4YdPSgL1BEp02T0EeR2kyQbrfe2iC4-ltVi9hPh_oeWsg8fikSBNa-DySzmlD0wtHapD_2ffRS3QLW1hh72cfaQHCQ3WNm00]--></g></svg>