<svg xmlns="http://www.w3.org/2000/svg" xmlns:xlink="http://www.w3.org/1999/xlink" contentStyleType="text/css" height="1503px" preserveAspectRatio="none" style="width:1533px;height:1503px;background:#FFFFFF;" version="1.1" viewBox="0 0 1533 1503" width="1533px" zoomAndPan="magnify"><title>Sequence &#8212; Login &amp;amp; JWT validation (OIDC Authorization Code + PKCE)</title><defs/><g><text fill="#000000" font-family="sans-serif" font-size="14" font-weight="bold" lengthAdjust="spacing" textLength="512.627" x="506.6401" y="29.5332">Sequence &#8212; Login &amp;amp; JWT validation (OIDC Authorization Code + PKCE)</text><rect fill="none" height="166.2969" style="stroke:#000000;stroke-width:1.5;" width="387.4336" x="1011.75" y="877.9141"/><line style="stroke:#181818;stroke-width:0.5;stroke-dasharray:5.0,5.0;" x1="22" x2="22" y1="124.8281" y2="1405.7813"/><line style="stroke:#181818;stroke-width:0.5;stroke-dasharray:5.0,5.0;" x1="254.4102" x2="254.4102" y1="124.8281" y2="1405.7813"/><line style="stroke:#181818;stroke-width:0.5;stroke-dasharray:5.0,5.0;" x1="510.3916" x2="510.3916" y1="124.8281" y2="1405.7813"/><line style="stroke:#181818;stroke-width:0.5;stroke-dasharray:5.0,5.0;" x1="660.4868" x2="660.4868" y1="124.8281" y2="1405.7813"/><line style="stroke:#181818;stroke-width:0.5;stroke-dasharray:5.0,5.0;" x1="858.5933" x2="858.5933" y1="124.8281" y2="1405.7813"/><line style="stroke:#181818;stroke-width:0.5;stroke-dasharray:5.0,5.0;" x1="1080.75" x2="1080.75" y1="124.8281" y2="1405.7813"/><line style="stroke:#181818;stroke-width:0.5;stroke-dasharray:5.0,5.0;" x1="1314.0254" x2="1314.0254" y1="124.8281" y2="1405.7813"/><line style="stroke:#181818;stroke-width:0.5;stroke-dasharray:5.0,5.0;" x1="1460.1836" x2="1460.1836" y1="124.8281" y2="1405.7813"/><text fill="#000000" font-family="sans-serif" font-size="14" lengthAdjust="spacing" textLength="29.5586" x="5" y="121.752">User</text><ellipse cx="22.7793" cy="55.7188" fill="#E2E2F0" rx="8" ry="8" style="stroke:#181818;stroke-width:0.5;"/><path d="M22.7793,63.7188 L22.7793,90.7188 M9.7793,71.7188 L35.7793,71.7188 M22.7793,90.7188 L9.7793,105.7188 M22.7793,90.7188 L35.7793,105.7188 " fill="none" style="stroke:#181818;stroke-width:0.5;"/><text fill="#000000" font-family="sans-serif" font-size="14" lengthAdjust="spacing" textLength="29.5586" x="5" y="1419.3145">User</text><ellipse cx="22.7793" cy="1430.8906" fill="#E2E2F0" rx="8" ry="8" style="stroke:#181818;stroke-width:0.5;"/><path d="M22.7793,1438.8906 L22.7793,1465.8906 M9.7793,1446.8906 L35.7793,1446.8906 M22.7793,1465.8906 L9.7793,1480.8906 M22.7793,1465.8906 L35.7793,1480.8906 " fill="none" style="stroke:#181818;stroke-width:0.5;"/><rect fill="#E2E2F0" height="49.2188" rx="2.5" ry="2.5" style="stroke:#181818;stroke-width:0.5;" width="81.7031" x="214.4102" y="74.6094"/><text fill="#000000" font-family="sans-serif" font-size="14" lengthAdjust="spacing" textLength="67.7031" x="221.4102" y="96.1426">kosha-web</text><text fill="#000000" font-family="sans-serif" font-size="14" lengthAdjust="spacing" textLength="64.5723" x="222.9756" y="113.752">(SvelteKit)</text><rect fill="#E2E2F0" height="49.2188" rx="2.5" ry="2.5" style="stroke:#181818;stroke-width:0.5;" width="81.7031" x="214.4102" y="1404.7813"/><text fill="#000000" font-family="sans-serif" font-size="14" lengthAdjust="spacing" textLength="67.7031" x="221.4102" y="1426.3145">kosha-web</text><text fill="#000000" font-family="sans-serif" font-size="14" lengthAdjust="spacing" textLength="64.5723" x="222.9756" y="1443.9238">(SvelteKit)</text><rect fill="#E2E2F0" height="31.6094" rx="2.5" ry="2.5" style="stroke:#181818;stroke-width:0.5;" width="90.2686" x="465.3916" y="92.2188"/><text fill="#000000" font-family="sans-serif" font-size="14" lengthAdjust="spacing" textLength="76.2686" x="472.3916" y="113.752">Keycloak 24</text><rect fill="#E2E2F0" height="31.6094" rx="2.5" ry="2.5" style="stroke:#181818;stroke-width:0.5;" width="90.2686" x="465.3916" y="1404.7813"/><text fill="#000000" font-family="sans-serif" font-size="14" lengthAdjust="spacing" textLength="76.2686" x="472.3916" y="1426.3145">Keycloak 24</text><rect fill="#E2E2F0" height="49.2188" rx="2.5" ry="2.5" style="stroke:#181818;stroke-width:0.5;" width="108.9307" x="606.4868" y="74.6094"/><text fill="#000000" font-family="sans-serif" font-size="14" lengthAdjust="spacing" textLength="94.9307" x="613.4868" y="96.1426">Spring Security</text><text fill="#000000" font-family="sans-serif" font-size="14" lengthAdjust="spacing" textLength="63.8066" x="629.0488" y="113.752">filter chain</text><rect fill="#E2E2F0" height="49.2188" rx="2.5" ry="2.5" style="stroke:#181818;stroke-width:0.5;" width="108.9307" x="606.4868" y="1404.7813"/><text fill="#000000" font-family="sans-serif" font-size="14" lengthAdjust="spacing" textLength="94.9307" x="613.4868" y="1426.3145">Spring Security</text><text fill="#000000" font-family="sans-serif" font-size="14" lengthAdjust="spacing" textLength="63.8066" x="629.0488" y="1443.9238">filter chain</text><rect fill="#E2E2F0" height="31.6094" rx="2.5" ry="2.5" style="stroke:#181818;stroke-width:0.5;" width="153.2754" x="782.5933" y="92.2188"/><text fill="#000000" font-family="sans-serif" font-size="14" lengthAdjust="spacing" textLength="139.2754" x="789.5933" y="113.752">KeycloakJwtConverter</text><rect fill="#E2E2F0" height="31.6094" rx="2.5" ry="2.5" style="stroke:#181818;stroke-width:0.5;" width="153.2754" x="782.5933" y="1404.7813"/><text fill="#000000" font-family="sans-serif" font-size="14" lengthAdjust="spacing" textLength="139.2754" x="789.5933" y="1426.3145">KeycloakJwtConverter</text><rect fill="#E2E2F0" height="49.2188" rx="2.5" ry="2.5" style="stroke:#181818;stroke-width:0.5;" width="118.4668" x="1021.75" y="74.6094"/><text fill="#000000" font-family="sans-serif" font-size="14" lengthAdjust="spacing" textLength="98.8066" x="1031.5801" y="96.1426">REST controller</text><text fill="#000000" font-family="sans-serif" font-size="14" lengthAdjust="spacing" textLength="104.4668" x="1028.75" y="113.752">(@PreAuthorize)</text><rect fill="#E2E2F0" height="49.2188" rx="2.5" ry="2.5" style="stroke:#181818;stroke-width:0.5;" width="118.4668" x="1021.75" y="1404.7813"/><text fill="#000000" font-family="sans-serif" font-size="14" lengthAdjust="spacing" textLength="98.8066" x="1031.5801" y="1426.3145">REST controller</text><text fill="#000000" font-family="sans-serif" font-size="14" lengthAdjust="spacing" textLength="104.4668" x="1028.75" y="1443.9238">(@PreAuthorize)</text><rect fill="#E2E2F0" height="31.6094" rx="2.5" ry="2.5" style="stroke:#181818;stroke-width:0.5;" width="150.1582" x="1239.0254" y="92.2188"/><text fill="#000000" font-family="sans-serif" font-size="14" lengthAdjust="spacing" textLength="136.1582" x="1246.0254" y="113.752">UserProfileRepository</text><rect fill="#E2E2F0" height="31.6094" rx="2.5" ry="2.5" style="stroke:#181818;stroke-width:0.5;" width="150.1582" x="1239.0254" y="1404.7813"/><text fill="#000000" font-family="sans-serif" font-size="14" lengthAdjust="spacing" textLength="136.1582" x="1246.0254" y="1426.3145">UserProfileRepository</text><text fill="#000000" font-family="sans-serif" font-size="14" lengthAdjust="spacing" textLength="76.2617" x="1419.4146" y="104.1426">PostgreSQL</text><text fill="#000000" font-family="sans-serif" font-size="14" lengthAdjust="spacing" textLength="116.7236" x="1399.1836" y="121.752">(ident.user_profile)</text><path d="M1442.5454,53.6094 C1442.5454,43.6094 1460.5454,43.6094 1460.5454,43.6094 C1460.5454,43.6094 1478.5454,43.6094 1478.5454,53.6094 L1478.5454,79.6094 C1478.5454,89.6094 1460.5454,89.6094 1460.5454,89.6094 C1460.5454,89.6094 1442.5454,89.6094 1442.5454,79.6094 L1442.5454,53.6094 " fill="#E2E2F0" style="stroke:#181818;stroke-width:1.5;"/><path d="M1442.5454,53.6094 C1442.5454,63.6094 1460.5454,63.6094 1460.5454,63.6094 C1460.5454,63.6094 1478.5454,63.6094 1478.5454,53.6094 " fill="none" style="stroke:#181818;stroke-width:1.5;"/><text fill="#000000" font-family="sans-serif" font-size="14" lengthAdjust="spacing" textLength="76.2617" x="1419.4146" y="1419.3145">PostgreSQL</text><text fill="#000000" font-family="sans-serif" font-size="14" lengthAdjust="spacing" textLength="116.7236" x="1399.1836" y="1436.9238">(ident.user_profile)</text><path d="M1442.5454,1450 C1442.5454,1440 1460.5454,1440 1460.5454,1440 C1460.5454,1440 1478.5454,1440 1478.5454,1450 L1478.5454,1476 C1478.5454,1486 1460.5454,1486 1460.5454,1486 C1460.5454,1486 1442.5454,1486 1442.5454,1476 L1442.5454,1450 " fill="#E2E2F0" style="stroke:#181818;stroke-width:1.5;"/><path d="M1442.5454,1450 C1442.5454,1460 1460.5454,1460 1460.5454,1460 C1460.5454,1460 1478.5454,1460 1478.5454,1450 " fill="none" style="stroke:#181818;stroke-width:1.5;"/><rect fill="#EEEEEE" height="3" style="stroke:#EEEEEE;stroke-width:1.0;" width="1526.9072" x="0" y="156.0039"/><line style="stroke:#000000;stroke-width:1.0;" x1="0" x2="1526.9072" y1="156.0039" y2="156.0039"/><line style="stroke:#000000;stroke-width:1.0;" x1="0" x2="1526.9072" y1="159.0039" y2="159.0039"/><rect fill="#EEEEEE" height="24.3516" style="stroke:#000000;stroke-width:2.0;" width="86.2173" x="720.345" y="144.8281"/><text fill="#000000" font-family="sans-serif" font-size="13" font-weight="bold" lengthAdjust="spacing" textLength="68.6055" x="726.345" y="162.3232">Initial login</text><polygon fill="#181818" points="243.2617,197.5313,253.2617,201.5313,243.2617,205.5313,247.2617,201.5313" style="stroke:#181818;stroke-width:1.0;"/><line style="stroke:#181818;stroke-width:1.0;" x1="22.7793" x2="249.2617" y1="201.5313" y2="201.5313"/><text fill="#000000" font-family="sans-serif" font-size="13" lengthAdjust="spacing" textLength="143.7808" x="29.7793" y="196.6748">Visit kosha.example.com</text><polygon fill="#181818" points="33.7793,244.2344,23.7793,248.2344,33.7793,252.2344,29.7793,248.2344" style="stroke:#181818;stroke-width:1.0;"/><line style="stroke:#181818;stroke-width:1.0;" x1="27.7793" x2="254.2617" y1="248.2344" y2="248.2344"/><text fill="#000000" font-family="sans-serif" font-size="13" lengthAdjust="spacing" textLength="119.2217" x="39.7793" y="227.0264">Redirect to Keycloak</text><text fill="#000000" font-family="sans-serif" font-size="13" lengthAdjust="spacing" textLength="208.4824" x="39.7793" y="243.3779">(/auth, response_type=code, PKCE)</text><polygon fill="#181818" points="498.5259,274.5859,508.5259,278.5859,498.5259,282.5859,502.5259,278.5859" style="stroke:#181818;stroke-width:1.0;"/><line style="stroke:#181818;stroke-width:1.0;" x1="22.7793" x2="504.5259" y1="278.5859" y2="278.5859"/><text fill="#000000" font-family="sans-serif" font-size="13" lengthAdjust="spacing" textLength="97.5508" x="29.7793" y="273.7295">Enter credentials</text><polygon fill="#181818" points="33.7793,304.9375,23.7793,308.9375,33.7793,312.9375,29.7793,308.9375" style="stroke:#181818;stroke-width:1.0;"/><line style="stroke:#181818;stroke-width:1.0;stroke-dasharray:2.0,2.0;" x1="27.7793" x2="509.5259" y1="308.9375" y2="308.9375"/><text fill="#000000" font-family="sans-serif" font-size="13" lengthAdjust="spacing" textLength="163.668" x="39.7793" y="304.0811">Redirect back with ?code=...</text><polygon fill="#181818" points="243.2617,335.2891,253.2617,339.2891,243.2617,343.2891,247.2617,339.2891" style="stroke:#181818;stroke-width:1.0;"/><line style="stroke:#181818;stroke-width:1.0;" x1="22.7793" x2="249.2617" y1="339.2891" y2="339.2891"/><text fill="#000000" font-family="sans-serif" font-size="13" lengthAdjust="spacing" textLength="104.4253" x="29.7793" y="334.4326">/callback?code=...</text><polygon fill="#181818" points="498.5259,365.6406,508.5259,369.6406,498.5259,373.6406,502.5259,369.6406" style="stroke:#181818;stroke-width:1.0;"/><line style="stroke:#181818;stroke-width:1.0;" x1="255.2617" x2="504.5259" y1="369.6406" y2="369.6406"/><text fill="#000000" font-family="sans-serif" font-size="13" lengthAdjust="spacing" textLength="168.7017" x="262.2617" y="364.7842">POST /token (code + verifier)</text><polygon fill="#181818" points="266.2617,395.9922,256.2617,399.9922,266.2617,403.9922,262.2617,399.9922" style="stroke:#181818;stroke-width:1.0;"/><line style="stroke:#181818;stroke-width:1.0;stroke-dasharray:2.0,2.0;" x1="260.2617" x2="509.5259" y1="399.9922" y2="399.9922"/><text fill="#000000" font-family="sans-serif" font-size="13" lengthAdjust="spacing" textLength="231.2642" x="272.2617" y="395.1357">{access_token, refresh_token, id_token}</text><line style="stroke:#181818;stroke-width:1.0;" x1="255.2617" x2="297.2617" y1="430.3438" y2="430.3438"/><line style="stroke:#181818;stroke-width:1.0;" x1="297.2617" x2="297.2617" y1="430.3438" y2="443.3438"/><line style="stroke:#181818;stroke-width:1.0;" x1="256.2617" x2="297.2617" y1="443.3438" y2="443.3438"/><polygon fill="#181818" points="266.2617,439.3438,256.2617,443.3438,266.2617,447.3438,262.2617,443.3438" style="stroke:#181818;stroke-width:1.0;"/><text fill="#000000" font-family="sans-serif" font-size="13" lengthAdjust="spacing" textLength="240.5889" x="262.2617" y="425.4873">Store tokens (httpOnly cookie or memory)</text><rect fill="#EEEEEE" height="3" style="stroke:#EEEEEE;stroke-width:1.0;" width="1526.9072" x="0" y="472.5195"/><line style="stroke:#000000;stroke-width:1.0;" x1="0" x2="1526.9072" y1="472.5195" y2="472.5195"/><line style="stroke:#000000;stroke-width:1.0;" x1="0" x2="1526.9072" y1="475.5195" y2="475.5195"/><rect fill="#EEEEEE" height="24.3516" style="stroke:#000000;stroke-width:2.0;" width="154.8608" x="686.0232" y="461.3438"/><text fill="#000000" font-family="sans-serif" font-size="13" font-weight="bold" lengthAdjust="spacing" textLength="137.249" x="692.0232" y="478.8389">Authenticated API call</text><polygon fill="#181818" points="243.2617,514.0469,253.2617,518.0469,243.2617,522.0469,247.2617,518.0469" style="stroke:#181818;stroke-width:1.0;"/><line style="stroke:#181818;stroke-width:1.0;" x1="22.7793" x2="249.2617" y1="518.0469" y2="518.0469"/><text fill="#000000" font-family="sans-serif" font-size="13" lengthAdjust="spacing" textLength="149.3984" x="29.7793" y="513.1904">Click "Search documents"</text><polygon fill="#181818" points="648.9521,560.75,658.9521,564.75,648.9521,568.75,652.9521,564.75" style="stroke:#181818;stroke-width:1.0;"/><line style="stroke:#181818;stroke-width:1.0;" x1="255.2617" x2="654.9521" y1="564.75" y2="564.75"/><text fill="#000000" font-family="sans-serif" font-size="13" lengthAdjust="spacing" textLength="111.2681" x="262.2617" y="543.542">GET /api/v1/search</text><text fill="#000000" font-family="sans-serif" font-size="13" lengthAdjust="spacing" textLength="220.4097" x="262.2617" y="559.8936">Authorization: Bearer &lt;access_token&gt;</text><polygon fill="#181818" points="521.5259,591.1016,511.5259,595.1016,521.5259,599.1016,517.5259,595.1016" style="stroke:#181818;stroke-width:1.0;"/><line style="stroke:#181818;stroke-width:1.0;" x1="515.5259" x2="659.9521" y1="595.1016" y2="595.1016"/><text fill="#000000" font-family="sans-serif" font-size="13" lengthAdjust="spacing" textLength="126.4263" x="527.5259" y="590.2451">Fetch JWKS (cached)</text><line style="stroke:#181818;stroke-width:1.0;" x1="660.9521" x2="702.9521" y1="625.4531" y2="625.4531"/><line style="stroke:#181818;stroke-width:1.0;" x1="702.9521" x2="702.9521" y1="625.4531" y2="638.4531"/><line style="stroke:#181818;stroke-width:1.0;" x1="661.9521" x2="702.9521" y1="638.4531" y2="638.4531"/><polygon fill="#181818" points="671.9521,634.4531,661.9521,638.4531,671.9521,642.4531,667.9521,638.4531" style="stroke:#181818;stroke-width:1.0;"/><text fill="#000000" font-family="sans-serif" font-size="13" lengthAdjust="spacing" textLength="184.2788" x="667.9521" y="620.5967">Validate signature, exp, iss, aud</text><polygon fill="#181818" points="847.231,664.8047,857.231,668.8047,847.231,672.8047,851.231,668.8047" style="stroke:#181818;stroke-width:1.0;"/><line style="stroke:#181818;stroke-width:1.0;" x1="660.9521" x2="853.231" y1="668.8047" y2="668.8047"/><text fill="#000000" font-family="sans-serif" font-size="13" lengthAdjust="spacing" textLength="67.1772" x="667.9521" y="663.9482">convert(jwt)</text><line style="stroke:#181818;stroke-width:1.0;" x1="859.231" x2="901.231" y1="715.5078" y2="715.5078"/><line style="stroke:#181818;stroke-width:1.0;" x1="901.231" x2="901.231" y1="715.5078" y2="728.5078"/><line style="stroke:#181818;stroke-width:1.0;" x1="860.231" x2="901.231" y1="728.5078" y2="728.5078"/><polygon fill="#181818" points="870.231,724.5078,860.231,728.5078,870.231,732.5078,866.231,728.5078" style="stroke:#181818;stroke-width:1.0;"/><text fill="#000000" font-family="sans-serif" font-size="13" lengthAdjust="spacing" textLength="207.7524" x="866.231" y="694.2998">authorities = roles.map { ROLE_$it }</text><text fill="#000000" font-family="sans-serif" font-size="13" lengthAdjust="spacing" textLength="165.1216" x="866.231" y="710.6514">name = preferred_username</text><polygon fill="#181818" points="671.9521,754.8594,661.9521,758.8594,671.9521,762.8594,667.9521,758.8594" style="stroke:#181818;stroke-width:1.0;"/><line style="stroke:#181818;stroke-width:1.0;stroke-dasharray:2.0,2.0;" x1="665.9521" x2="858.231" y1="758.8594" y2="758.8594"/><text fill="#000000" font-family="sans-serif" font-size="13" lengthAdjust="spacing" textLength="138.0234" x="677.9521" y="754.0029">JwtAuthenticationToken</text><polygon fill="#181818" points="1068.9834,785.2109,1078.9834,789.2109,1068.9834,793.2109,1072.9834,789.2109" style="stroke:#181818;stroke-width:1.0;"/><line style="stroke:#181818;stroke-width:1.0;" x1="660.9521" x2="1074.9834" y1="789.2109" y2="789.2109"/><text fill="#000000" font-family="sans-serif" font-size="13" lengthAdjust="spacing" textLength="84.5571" x="667.9521" y="784.3545">invoke handler</text><line style="stroke:#181818;stroke-width:1.0;" x1="1080.9834" x2="1122.9834" y1="819.5625" y2="819.5625"/><line style="stroke:#181818;stroke-width:1.0;" x1="1122.9834" x2="1122.9834" y1="819.5625" y2="832.5625"/><line style="stroke:#181818;stroke-width:1.0;" x1="1081.9834" x2="1122.9834" y1="832.5625" y2="832.5625"/><polygon fill="#181818" points="1091.9834,828.5625,1081.9834,832.5625,1091.9834,836.5625,1087.9834,832.5625" style="stroke:#181818;stroke-width:1.0;"/><text fill="#000000" font-family="sans-serif" font-size="13" lengthAdjust="spacing" textLength="219.1211" x="1087.9834" y="814.7061">@PreAuthorize hasAnyRole(...) check</text><polygon fill="#181818" points="1302.1045,858.9141,1312.1045,862.9141,1302.1045,866.9141,1306.1045,862.9141" style="stroke:#181818;stroke-width:1.0;"/><line style="stroke:#181818;stroke-width:1.0;" x1="1080.9834" x2="1308.1045" y1="862.9141" y2="862.9141"/><text fill="#000000" font-family="sans-serif" font-size="13" lengthAdjust="spacing" textLength="169.0698" x="1087.9834" y="858.0576">findByKeycloakId(jwt.subject)</text><path d="M1011.75,877.9141 L1071.9209,877.9141 L1071.9209,886.2656 L1061.9209,896.2656 L1011.75,896.2656 L1011.75,877.9141 " fill="#EEEEEE" style="stroke:#000000;stroke-width:1.5;"/><rect fill="none" height="166.2969" style="stroke:#000000;stroke-width:1.5;" width="387.4336" x="1011.75" y="877.9141"/><text fill="#000000" font-family="sans-serif" font-size="13" font-weight="bold" lengthAdjust="spacing" textLength="15.1709" x="1026.75" y="892.4092">alt</text><text fill="#000000" font-family="sans-serif" font-size="11" font-weight="bold" lengthAdjust="spacing" textLength="141.8452" x="1086.9209" y="891.333">[UserProfile already exists]</text><polygon fill="#181818" points="1091.9834,914.6172,1081.9834,918.6172,1091.9834,922.6172,1087.9834,918.6172" style="stroke:#181818;stroke-width:1.0;"/><line style="stroke:#181818;stroke-width:1.0;stroke-dasharray:2.0,2.0;" x1="1085.9834" x2="1313.1045" y1="918.6172" y2="918.6172"/><text fill="#000000" font-family="sans-serif" font-size="13" lengthAdjust="spacing" textLength="35.4072" x="1097.9834" y="913.7607">profile</text><line style="stroke:#000000;stroke-width:1.0;stroke-dasharray:2.0,2.0;" x1="1011.75" x2="1399.1836" y1="927.6172" y2="927.6172"/><text fill="#000000" font-family="sans-serif" font-size="11" font-weight="bold" lengthAdjust="spacing" textLength="267.1206" x="1016.75" y="939.0361">[first call after admin provisioned in Keycloak only]</text><path d="M1085,947.4531 L1085,1038.4531 L1382,1038.4531 L1382,957.4531 L1372,947.4531 L1085,947.4531 " fill="#FEFFDD" style="stroke:#181818;stroke-width:0.5;"/><path d="M1372,947.4531 L1372,957.4531 L1382,957.4531 L1372,947.4531 " fill="#FEFFDD" style="stroke:#181818;stroke-width:0.5;"/><text fill="#000000" font-family="sans-serif" font-size="13" lengthAdjust="spacing" textLength="226.9097" x="1091" y="965.9482">Edge case: out-of-band Keycloak users</text><text fill="#000000" font-family="sans-serif" font-size="13" lengthAdjust="spacing" textLength="242.7979" x="1091" y="982.2998">are not auto-mirrored here. The supported</text><text fill="#000000" font-family="sans-serif" font-size="13" lengthAdjust="spacing" textLength="267.7188" x="1091" y="998.6514">path is admin &#8594; POST /api/v1/users/provision,</text><text fill="#000000" font-family="sans-serif" font-size="13" lengthAdjust="spacing" textLength="276.3579" x="1091" y="1015.0029">which creates Keycloak + UserProfile atomically</text><text fill="#000000" font-family="sans-serif" font-size="13" lengthAdjust="spacing" textLength="233.3652" x="1091" y="1031.3545">via UserCreationService (separate flow).</text><polygon fill="#181818" points="266.2617,1069.5625,256.2617,1073.5625,266.2617,1077.5625,262.2617,1073.5625" style="stroke:#181818;stroke-width:1.0;"/><line style="stroke:#181818;stroke-width:1.0;stroke-dasharray:2.0,2.0;" x1="260.2617" x2="1079.9834" y1="1073.5625" y2="1073.5625"/><text fill="#000000" font-family="sans-serif" font-size="13" lengthAdjust="spacing" textLength="57.0908" x="272.2617" y="1068.7061">200 result</text><polygon fill="#181818" points="33.7793,1099.9141,23.7793,1103.9141,33.7793,1107.9141,29.7793,1103.9141" style="stroke:#181818;stroke-width:1.0;"/><line style="stroke:#181818;stroke-width:1.0;stroke-dasharray:2.0,2.0;" x1="27.7793" x2="254.2617" y1="1103.9141" y2="1103.9141"/><text fill="#000000" font-family="sans-serif" font-size="13" lengthAdjust="spacing" textLength="42.6372" x="39.7793" y="1099.0576">Render</text><rect fill="#EEEEEE" height="3" style="stroke:#EEEEEE;stroke-width:1.0;" width="1526.9072" x="0" y="1133.0898"/><line style="stroke:#000000;stroke-width:1.0;" x1="0" x2="1526.9072" y1="1133.0898" y2="1133.0898"/><line style="stroke:#000000;stroke-width:1.0;" x1="0" x2="1526.9072" y1="1136.0898" y2="1136.0898"/><rect fill="#EEEEEE" height="24.3516" style="stroke:#000000;stroke-width:2.0;" width="149.8081" x="688.5496" y="1121.9141"/><text fill="#000000" font-family="sans-serif" font-size="13" font-weight="bold" lengthAdjust="spacing" textLength="132.1963" x="694.5496" y="1139.4092">Token refresh (silent)</text><polygon fill="#181818" points="498.5259,1190.9688,508.5259,1194.9688,498.5259,1198.9688,502.5259,1194.9688" style="stroke:#181818;stroke-width:1.0;"/><line style="stroke:#181818;stroke-width:1.0;" x1="255.2617" x2="504.5259" y1="1194.9688" y2="1194.9688"/><text fill="#000000" font-family="sans-serif" font-size="13" lengthAdjust="spacing" textLength="74.4199" x="262.2617" y="1173.7607">POST /token</text><text fill="#000000" font-family="sans-serif" font-size="13" lengthAdjust="spacing" textLength="148.5161" x="262.2617" y="1190.1123">grant_type=refresh_token</text><polygon fill="#181818" points="266.2617,1221.3203,256.2617,1225.3203,266.2617,1229.3203,262.2617,1225.3203" style="stroke:#181818;stroke-width:1.0;"/><line style="stroke:#181818;stroke-width:1.0;stroke-dasharray:2.0,2.0;" x1="260.2617" x2="509.5259" y1="1225.3203" y2="1225.3203"/><text fill="#000000" font-family="sans-serif" font-size="13" lengthAdjust="spacing" textLength="106.9517" x="272.2617" y="1220.4639">new access_token</text><rect fill="#EEEEEE" height="3" style="stroke:#EEEEEE;stroke-width:1.0;" width="1526.9072" x="0" y="1254.4961"/><line style="stroke:#000000;stroke-width:1.0;" x1="0" x2="1526.9072" y1="1254.4961" y2="1254.4961"/><line style="stroke:#000000;stroke-width:1.0;" x1="0" x2="1526.9072" y1="1257.4961" y2="1257.4961"/><rect fill="#EEEEEE" height="24.3516" style="stroke:#000000;stroke-width:2.0;" width="98.519" x="714.1941" y="1243.3203"/><text fill="#000000" font-family="sans-serif" font-size="13" font-weight="bold" lengthAdjust="spacing" textLength="80.9072" x="720.1941" y="1260.8154">Failure paths</text><path d="M396,1282.6719 L396,1390.6719 L774,1390.6719 L774,1292.6719 L764,1282.6719 L396,1282.6719 " fill="#FEFFDD" style="stroke:#181818;stroke-width:0.5;"/><path d="M764,1282.6719 L764,1292.6719 L774,1292.6719 L764,1282.6719 " fill="#FEFFDD" style="stroke:#181818;stroke-width:0.5;"/><text fill="#000000" font-family="sans-serif" font-size="13" lengthAdjust="spacing" textLength="231.626" x="402" y="1301.167">- Invalid signature / expired token &#8594; 401</text><text fill="#000000" font-family="sans-serif" font-size="13" lengthAdjust="spacing" textLength="357.9063" x="402" y="1317.5186">- Token valid but role missing &#8594; @PreAuthorize denies &#8594; 403</text><text fill="#000000" font-family="sans-serif" font-size="13" lengthAdjust="spacing" textLength="305.2969" x="402" y="1333.8701">- kosha.security.dev-bypass.enabled=true (dev only):</text><text fill="#000000" font-family="sans-serif" font-size="13" lengthAdjust="spacing" textLength="286.0952" x="409.2236" y="1350.2217">a separate Order(0) filter chain skips JWT entirely</text><text fill="#000000" font-family="sans-serif" font-size="13" lengthAdjust="spacing" textLength="284.0068" x="409.2236" y="1366.5732">for a fixed list of admin paths. Logs a loud banner</text><text fill="#000000" font-family="sans-serif" font-size="13" lengthAdjust="spacing" textLength="212.4434" x="409.2236" y="1382.9248">on startup. NEVER set in production.</text><!--SRC=[TLPRRXit5FsVLLmOHICXriX9y-LKQHDL2MobjMkvoOy1WvgvaXYDo2d9aQ860VhL1HHTIRVGdMGbFPVKCqt_PeRtVSwvd0Sq-EVlIdaQ_ZYYJx__HQ_jL1lwcYxVtj9ILRfKGLkJFQ2HRLp1vtWYcbi_KnrLrzqypxk5DHCzxOwuQ9mEwtvypUS1XYt7FlgHPxTaHmzfoEkYicf-kGgmnBV0hdqGLPTi0iB4qEAb2-x-WeU-urZBA7tR9AYTNMgFpzfCJv6bLau5fabbLn9rcurcjYez5OvZU5NvfpIKVBJGpbddIP4akNPseYkcEQ-vfF5Q7cA0YpBFCjI5in7_sh11JmVpKelwwMSpezRLnGzzUjw4cNNwj_IjRql64Aw7_K4xorGHh8jvCzGTTA5hPGATf4ciU7ndMgCbLu67EhHF23YzvV6nxQx3nq-YmR1_V3wg7KP3MtJk00xYEIfcIfleWQClXpo4A5hAsx7fpM1qIo10SBQgsA7UxwyTRtlcL7C_kEhOxM3KDrnRhp67TRILrmm3L6FbcKwkhGzJnwEVNoDqf4RUmFU-Jiuf_lMhBElrwC9eGPQg24clbqaMwZoJcT4vlG5DGY9Ppky1MCLvOHUPdC8e6fyZVwaT5u62tP47gRiABPqIw5nRu_a-h6lk5G3pT8FbDjUmZo034oUy9rk6pvql91chOauh7MRqdGJhWVEVLTqjL5M9sTvWKt3CT7s5-NU3dJFuLYHo0J0zqQAgJTOKwOCg2lR-FXfBAnDqCzk-wZ8zVTo6JquZ0CCKJporPY7KLwPQ0t4xrqmWxu8NWAuT0H3OfU422Ypf-VK5IV7_HQ9VQRHzCcBbYXcLjcWMSFCdszGW9AnU3T2PgdLt-GXxG4plp96Opka5FYFmjuUTFSl4VJkVbnoGulBjS8Jng6B6PNjxdhAyINh5Wj9JeqBZW2Y_hp4Gxqz9DUNMNBWF-o89elLk5TfP_BO_KwcweDbJZw08zlb2rVI1RgvU3-w_0lq-tXcZ5epZ6W2m0qNkXT3oSHDkLnhaTp1HD7mh_UtgWQXWfCqINsccJ0dzPV7h_lH8Z33opytw1dMrmACsLW0NyvsBA0yk4stA5-lXRkr9fxblnk_0LrbPLJXQbAh2MYxNc9dsmMUKmdJs9MoKcd45FK-qyo6nGar48wfSGAkx9GxQu7MtqYouXf360X-dfxD0TfAs2LO_3Sef8vRdSx9DwDX9PumfxBrbhZvQWYKIH02odRJmaMd6ZdEwdG7xfgujjbmPhMi5FMg_gUtJ7tzkLBRXOWpRtPLy6drMCmsU5N950VnT2G-FPnNiGalpw-YprEdE-UnYezRnBPR3cD6NJ273GxP1R2UdnsTdifYQAYG17UuPKu8Keit8dQteaGBrcD0MRVxFEhapKuTTdJRTqR8uNYk6LtIelvZjfT8Lf1H7wIL9XD3A7m3eUogN55476pjUbtljKLV4fmMTjDDa-a_E7aNhr4Bo63SX2WpNj_ToludXCTknUqM8AS8tCK9Q_dvp5UObBplZTQsypzceSSLbBxW60E0WSgzzdkYp_w-uSXXewwnDXxSe-RckVRp-HQoEDm1Fi1yLBD-ZdGho4FPk22zpoUNdGNuyAjkW8sKCi18__2VuWEkogNFwQV1cS8FyWP9EogOGhkJPZXB_0W00]--></g></svg>